<svg width="150" height="48" viewBox="0 0 150 48" fill="none" xmlns="http://www.w3.org/2000/svg">
<path d="M65.4978 30.7918H69.7975L67.7893 17.4229H63.2193L61.0952 24.7671L58.9711 17.4229H54.4203L52.4121 30.7918H56.6989L57.2911 23.3896L59.3573 30.7918H62.8331L64.9185 23.3896L65.4978 30.7918Z" fill="#2C3312"/>
<path d="M77.6959 27.8633L78.4618 30.8113H82.4783L78.1786 17.4424H73.4348L69.1094 30.8113H73.1259L73.9111 27.8633H77.6959ZM74.7929 24.5163L75.8035 20.6736L76.8205 24.5163H74.7929Z" fill="#2C3312"/>
<path d="M91.7733 20.7699V17.4229H80.7988V20.7699H84.2811V30.8111H88.2975V20.7699H91.7733Z" fill="#2C3312"/>
<path d="M96.5946 20.7894H102.87V17.4424H92.5781V30.8113H102.87V27.4643H96.5946V25.7264H102.201V22.508H96.5946V20.7894Z" fill="#2C3312"/>
<path d="M104.363 17.4229V30.7918H108.38V17.4229H104.363Z" fill="#2C3312"/>
<path d="M115.229 26.1447L118.402 30.8113H122.818L119.168 25.765C120.983 25.057 121.904 23.4285 121.904 21.7807C121.904 19.6244 120.275 17.4424 117.044 17.4424H110.369V30.8113H114.386V26.1447H115.229ZM114.386 22.7784V20.7894H116.774C117.424 20.7894 117.771 21.2851 117.771 21.7807C117.771 22.2828 117.424 22.7784 116.774 22.7784H114.386Z" fill="#2C3312"/>
<path d="M130.298 16.9854C126.359 16.9854 123.166 20.1779 123.166 24.1172C123.166 28.0564 126.359 31.249 130.298 31.249C134.237 31.249 137.436 28.0564 137.436 24.1172C137.436 20.1779 134.237 16.9854 130.298 16.9854ZM127.009 24.1172C127.009 22.2441 128.405 20.577 130.298 20.577C132.19 20.577 133.587 22.2441 133.587 24.1172C133.587 26.0096 132.19 27.6766 130.298 27.6766C128.405 27.6766 127.009 26.0096 127.009 24.1172Z" fill="#2C3312"/>
<path d="M144.13 20.1007C145.714 20.1007 146.518 20.7315 147.11 21.5554L149.601 19.5471C148.295 17.9766 146.325 16.9854 144.13 16.9854C140.725 16.9854 138.466 18.955 138.466 21.2657C138.466 23.9627 141.298 24.9411 143.538 25.4946C144.967 25.8358 146.158 26.164 146.158 26.93C146.158 27.8311 145.083 28.1143 143.956 28.1143C142.347 28.1143 141.008 27.4835 140.436 26.6597L137.932 28.6872C139.232 30.2577 141.62 31.249 143.821 31.249C147.76 31.249 150 29.112 150 26.7948C150 24.0206 147.188 23.2547 144.967 22.6818C143.538 22.2827 142.328 21.9738 142.328 21.2078C142.328 20.4611 143.287 20.1007 144.13 20.1007Z" fill="#2C3312"/>
<path fill-rule="evenodd" clip-rule="evenodd" d="M25.5085 6.35834C28.4694 6.64156 31.2178 7.65211 33.5801 9.20335L32.3635 10.3619C29.8725 8.81071 26.931 7.90958 23.7835 7.90958C20.0759 7.90958 16.6645 9.15185 13.9354 11.2373L12.4421 10.3426C15.1004 8.14773 18.4153 6.71236 22.0391 6.35834L23.8221 0.359375L25.5085 6.35834ZM25.5664 41.8951L23.7642 47.8748L22.1099 41.908C19.5803 41.6699 17.2052 40.9103 15.094 39.7324L16.4264 38.5931C18.6341 39.7196 21.1316 40.3503 23.7835 40.3503C27.0597 40.3503 30.1107 39.3784 32.6661 37.7049L34.1465 38.6704C31.6812 40.4276 28.7461 41.5798 25.5664 41.8951ZM8.11019 32.6907C6.98378 30.6246 6.25 28.3202 6.01184 25.8614L0 24.1686L6.01184 22.3856C6.30149 19.4183 7.31205 16.6634 8.87615 14.3076L9.88027 15.7687C8.40628 18.2082 7.55664 21.0725 7.55664 24.13C7.55664 26.6081 8.11663 28.951 9.10787 31.0494L8.11019 32.6907ZM41.5744 22.3856V22.6173C41.4263 20.8601 41.0208 19.1802 40.4029 17.6032L39.2894 19.3604C39.7528 20.8666 40.0038 22.4693 40.0038 24.13C40.0038 27.6058 38.9096 30.8305 37.043 33.4696L37.9506 34.9886C39.933 32.4139 41.2204 29.2793 41.5486 25.8679L47.5927 24.1686L41.5744 22.3856Z" fill="#42591C"/>
<path fill-rule="evenodd" clip-rule="evenodd" d="M23.8158 9.89183C26.4226 9.89183 28.8685 10.587 30.9798 11.7971L30.0851 13.329C28.2377 12.267 26.0943 11.6619 23.8158 11.6619C16.9672 11.6619 11.393 17.1073 11.1806 23.898L9.55856 26.4405C9.45557 25.7453 9.40408 25.0309 9.40408 24.3035C9.40408 21.658 10.1185 19.1799 11.3608 17.043L5.46484 7.15625L11.9208 10.8058L15.2679 12.6982C17.6623 10.9346 20.6167 9.89183 23.8158 9.89183ZM36.3737 22.8939L37.9442 21.4456C38.1245 22.3725 38.2274 23.3251 38.2274 24.3035C38.2274 27.3545 37.2748 30.1866 35.6592 32.5167L41.2205 41.8499L31.617 36.4237C29.3706 37.872 26.6865 38.7152 23.8158 38.7152C21.4278 38.7152 19.1814 38.1359 17.2053 37.1125L17.791 35.4196C19.5804 36.3916 21.6337 36.9387 23.8158 36.9387C30.7931 36.9387 36.4509 31.2809 36.4509 24.3035C36.4509 23.8272 36.4252 23.3573 36.3737 22.8939Z" fill="#F7CF05"/>
<path fill-rule="evenodd" clip-rule="evenodd" d="M35.0488 9.09428C35.4479 9.63496 35.7569 10.137 36.0658 10.7936C36.6516 10.7356 37.3596 10.4395 38.0612 11.0253C38.4216 11.3278 38.737 12.0423 38.737 12.5958C39.3163 12.6666 40.5586 12.7825 41.0092 12.6023C41.3246 8.5536 37.115 7.08604 35.0488 9.09428Z" fill="#42591C"/>
<path fill-rule="evenodd" clip-rule="evenodd" d="M25.1754 24.877C24.9565 26.2287 25.3685 27.3358 26.1859 28.076C27.5312 29.2861 28.6962 28.9063 29.9385 28.6939L29.179 26.7243C28.6254 26.6985 28.2135 26.9946 27.602 26.5698C27.1836 26.2801 27.1257 25.8489 27.2673 25.2825L25.1754 24.877Z" fill="#42591C"/>
<path fill-rule="evenodd" clip-rule="evenodd" d="M35.8926 18.7881C36.2208 19.3224 36.9031 20.1012 37.4953 20.5775L38.6024 18.9426L36.6328 17.7261L35.8926 18.7881Z" fill="#42591C"/>
<path fill-rule="evenodd" clip-rule="evenodd" d="M30.6543 14.218L32.8041 14.9196L33.4607 13.5486L31.6262 12.4351L30.6543 14.218Z" fill="#42591C"/>
<path fill-rule="evenodd" clip-rule="evenodd" d="M29.9648 16.4L32.2499 16.7412L32.6682 15.3701L30.4991 14.6621L29.9648 16.4Z" fill="#42591C"/>
<path fill-rule="evenodd" clip-rule="evenodd" d="M38.7512 13.1041L38.4551 14.5138L40.695 14.8613L41.0426 13.1106C40.6371 13.072 40.3088 13.0784 39.9355 13.0591L38.7512 13.1041Z" fill="#42591C"/>
<path fill-rule="evenodd" clip-rule="evenodd" d="M35.9044 22.09C36.2456 21.7488 36.7798 21.4077 37.1016 20.8735C36.8635 20.5194 35.8658 19.4059 35.5246 19.1484C34.675 20.1654 34.527 20.011 34.9196 20.6224C35.1771 21.0215 35.6083 21.7875 35.9044 22.09Z" fill="#42591C"/>
<path fill-rule="evenodd" clip-rule="evenodd" d="M38.2677 14.9448L37.6562 16.2193L39.8447 16.7921C40.1987 16.4767 40.4305 15.743 40.5849 15.2473L38.2677 14.9448Z" fill="#42591C"/>
<path fill-rule="evenodd" clip-rule="evenodd" d="M31.9082 12.1322L33.6847 13.2135L34.5344 12.0099L33.0153 10.6968L31.9082 12.1322Z" fill="#42591C"/>
<path fill-rule="evenodd" clip-rule="evenodd" d="M26.9785 21.6588L28.7872 22.9204C29.1348 22.457 29.4759 22.3154 29.772 21.9549L27.8796 20.5195C27.6093 20.983 27.2553 21.1825 26.9785 21.6588Z" fill="#42591C"/>
<path fill-rule="evenodd" clip-rule="evenodd" d="M29.9379 16.8892L29.9121 18.3439L31.901 18.4276L32.1714 17.166C31.5213 17.0179 30.5493 16.7798 29.9379 16.8892Z" fill="#42591C"/>
<path fill-rule="evenodd" clip-rule="evenodd" d="M37.41 16.6191L36.8887 17.443L38.884 18.6016L39.7144 17.2113L37.41 16.6191Z" fill="#42591C"/>
<path fill-rule="evenodd" clip-rule="evenodd" d="M33.0605 15.4989C33.4918 15.486 34.3479 15.3508 34.7148 15.28C35.3391 15.1641 35.4743 14.5655 35.8541 13.9412C33.2279 13.8189 33.6656 13.9669 33.0605 15.4989Z" fill="#42591C"/>
<path fill-rule="evenodd" clip-rule="evenodd" d="M33.4082 10.4266L34.9337 11.7461C35.2105 11.3341 35.4486 11.244 35.7576 10.9351C35.2427 10.3944 35.0753 9.71854 34.6698 9.34521C34.1677 9.60268 33.7107 9.99532 33.4082 10.4266Z" fill="#42591C"/>
<path fill-rule="evenodd" clip-rule="evenodd" d="M31.2637 24.5425L32.699 25.9392L33.5487 24.7549L31.7915 23.3774L31.2637 24.5425Z" fill="#42591C"/>
<path fill-rule="evenodd" clip-rule="evenodd" d="M34 13.6127C34.457 13.6063 35.12 13.5934 35.622 13.5419C36.24 13.484 36.491 12.9819 36.6648 12.3704C36.1949 12.2868 35.3002 12.0743 34.9462 12.2546C34.6565 12.4026 34.0965 13.2844 34 13.6127Z" fill="#42591C"/>
<path fill-rule="evenodd" clip-rule="evenodd" d="M36.632 17.0631L37.3851 15.8466C37.089 15.2608 36.5741 14.5979 36.2715 14.0894C35.7695 14.7459 35.5378 15.0162 35.8403 15.5827C36.1106 16.104 36.2651 16.6383 36.632 17.0631Z" fill="#42591C"/>
<path fill-rule="evenodd" clip-rule="evenodd" d="M30.3379 25.7971L31.7153 27.2904L32.4427 26.3571C32.1723 25.9323 31.3678 25.1534 30.9751 24.8638L30.3379 25.7971Z" fill="#42591C"/>
<path fill-rule="evenodd" clip-rule="evenodd" d="M37.0763 12.6989C36.5743 13.2009 36.4069 13.6257 36.7674 14.1342C37.3981 15.0161 37.2244 15.0933 37.6621 15.3379L38.1963 13.9218C37.9002 13.5614 37.4046 12.686 37.0763 12.6989Z" fill="#42591C"/>
<path fill-rule="evenodd" clip-rule="evenodd" d="M25.8456 23.2678L25.2148 24.4585L27.2295 24.8512C27.4677 24.6903 27.5063 24.6002 27.7058 24.1045L26.3863 23.3901C26.3091 23.3514 26.1997 23.3128 26.116 23.2935C25.8778 23.2356 25.9937 23.2485 25.8456 23.2678Z" fill="#42591C"/>
<path fill-rule="evenodd" clip-rule="evenodd" d="M34.6172 16.9535C34.9004 17.3333 35.2995 17.9834 35.5956 18.3825L36.3422 17.4749C36.2972 17.417 36.1684 17.1724 36.1105 17.0501C36.0719 16.9728 36.0139 16.8634 35.9946 16.8248L35.4604 15.7241C35.2351 15.84 35.4218 15.6662 35.2351 15.8915L34.6172 16.9535Z" fill="#42591C"/>
<path fill-rule="evenodd" clip-rule="evenodd" d="M29.5391 26.3961C29.6807 27.0719 30.1763 27.8315 30.4209 28.4687C30.762 28.2434 31.0517 28.0568 31.4057 27.722L30.0154 26.0356L29.5391 26.3961Z" fill="#42591C"/>
<path fill-rule="evenodd" clip-rule="evenodd" d="M33.748 18.4789L34.4303 19.6632L35.3894 18.6913C34.9453 18.2665 34.8745 17.8867 34.4496 17.4297C34.3788 17.4812 34.4175 17.4104 34.2308 17.6421L33.748 18.4789Z" fill="#42591C"/>
<path fill-rule="evenodd" clip-rule="evenodd" d="M26.1465 22.8044L27.9809 23.7313L28.4058 23.2421L26.7129 22.0127L26.1465 22.8044Z" fill="#42591C"/>
<path fill-rule="evenodd" clip-rule="evenodd" d="M32.9181 15.9688L32.6992 16.754C33.1433 16.857 33.7999 16.9021 34.1668 16.754L34.8491 15.6855L32.9181 15.9688Z" fill="#42591C"/>
<path fill-rule="evenodd" clip-rule="evenodd" d="M32.6673 17.1982L32.3262 18.4083C33.5234 18.6272 33.4011 18.2667 33.9482 17.2497L32.6673 17.1982Z" fill="#42591C"/>
<path fill-rule="evenodd" clip-rule="evenodd" d="M37.3281 12.1646C37.6628 12.6023 37.8237 13.0271 38.2743 13.3168C38.3966 12.3899 38.3129 11.8943 37.7916 11.3472L37.3281 12.1646Z" fill="#42591C"/>
<path fill-rule="evenodd" clip-rule="evenodd" d="M35.4355 11.7913L36.9482 11.9715L37.4245 11.1155C36.5941 10.9674 35.9119 11.3665 35.4355 11.7913Z" fill="#42591C"/>
<path fill-rule="evenodd" clip-rule="evenodd" d="M29.0508 23.1905L29.4048 24.0144L30.3767 22.9009C30.3252 22.8494 30.2673 22.6176 30.2673 22.6112C30.2544 22.5919 30.248 22.5533 30.2351 22.5275L30.1257 22.3022L29.0508 23.1905Z" fill="#42591C"/>
<path fill-rule="evenodd" clip-rule="evenodd" d="M30.673 23.1841L29.9199 24.1753L30.8725 24.3427L31.3875 23.2742L30.673 23.1841Z" fill="#42591C"/>
<path fill-rule="evenodd" clip-rule="evenodd" d="M28.1367 26.3187C28.8962 26.4731 29.2889 26.0741 29.7266 25.6943L28.8576 25.5205L28.1367 26.3187Z" fill="#42591C"/>
<path fill-rule="evenodd" clip-rule="evenodd" d="M29.1719 25.1407L30.1438 25.3145L30.6137 24.7352C29.7319 24.6515 29.513 24.3683 29.1719 25.1407Z" fill="#42591C"/>
<path fill-rule="evenodd" clip-rule="evenodd" d="M27.6666 26.0483L28.04 25.7909C28.1816 25.6364 28.2717 25.4819 28.3811 25.2953C28.3103 25.1537 28.3167 25.1343 28.2202 24.9863L27.9112 24.6001C27.6344 25.321 27.6344 25.4433 27.6666 26.0483Z" fill="#42591C"/>
<path fill-rule="evenodd" clip-rule="evenodd" d="M28.2383 24.1494L28.7339 24.9089C28.618 24.7802 28.7468 24.7544 28.7468 24.7931L29.0557 24.5549C29.0364 24.0657 28.9528 23.9627 28.6888 23.5508L28.2383 24.1494Z" fill="#42591C"/>
<path fill-rule="evenodd" clip-rule="evenodd" d="M17.877 18.1567L19.0677 20.0169C19.7371 19.9783 20.2135 19.6886 20.8636 19.8753C21.7711 20.1392 21.9449 20.7893 21.9835 21.4201C22.3118 21.5295 23.9789 21.6325 24.2299 21.6196C24.6419 20.5769 24.1141 18.2983 22.3504 17.4937C20.9408 16.8565 19.1257 17.2556 17.877 18.1567Z" fill="#42591C"/>
<path fill-rule="evenodd" clip-rule="evenodd" d="M10.7893 36.0635C10.2872 36.2373 9.64355 36.1536 9.14149 36.2115C8.60725 36.2759 8.87115 36.1472 8.47852 36.4883C8.93552 37.5632 9.30884 38.9535 11.0532 39.4685C12.141 39.7967 13.4669 39.5264 14.426 38.7154C14.2329 38.3356 13.4734 37.4602 13.0936 37.0805C12.4886 37.2993 12.3727 37.6855 11.7355 37.3959C11.0403 37.0805 10.9953 36.4819 10.7893 36.0635Z" fill="#42591C"/>
<path fill-rule="evenodd" clip-rule="evenodd" d="M20.8768 25.3145L19.8984 26.6404L21.6106 28.2431L22.8529 26.4151L20.8768 25.3145Z" fill="#42591C"/>
<path fill-rule="evenodd" clip-rule="evenodd" d="M13.2808 23.5635L12.3926 25.3657L14.7806 25.9515L15.4178 24.6577C14.7741 24.2586 13.9438 23.6922 13.2808 23.5635Z" fill="#42591C"/>
<path fill-rule="evenodd" clip-rule="evenodd" d="M18.5137 28.0694L19.9555 29.9425L21.378 28.6037L19.6594 26.9688L18.5137 28.0694Z" fill="#42591C"/>
<path fill-rule="evenodd" clip-rule="evenodd" d="M16.0938 19.47L17.4133 21.3431L18.765 20.2553L17.5806 18.3564C17.0979 18.556 16.525 19.0774 16.0938 19.47Z" fill="#42591C"/>
<path fill-rule="evenodd" clip-rule="evenodd" d="M15.6291 19.9526C14.8245 20.8473 14.5348 21.0404 14.8245 21.4717C14.9983 21.7292 16.041 22.7333 16.3242 22.9714L17.1546 21.7549C16.9743 21.3687 16.144 19.9848 15.6291 19.9526Z" fill="#42591C"/>
<path fill-rule="evenodd" clip-rule="evenodd" d="M12.2432 25.8037C11.9729 26.4152 11.7089 27.1683 11.8055 27.6639C12.1466 27.6253 12.3655 27.709 12.8869 27.6703C13.4275 27.6317 13.6399 27.6317 14.1098 27.7218L14.6312 26.3637C13.9232 26.1835 12.8418 26.0226 12.2432 25.8037Z" fill="#42591C"/>
<path fill-rule="evenodd" clip-rule="evenodd" d="M14.9015 32.9678L14.541 34.4096C15.1203 34.7636 15.9635 35.2592 16.6136 35.3558C16.8582 34.873 17.0384 34.3259 17.0384 33.8947L14.9015 32.9678Z" fill="#42591C"/>
<path fill-rule="evenodd" clip-rule="evenodd" d="M21.821 23.5122L21.1387 24.9218L22.9409 25.9968L23.7262 24.2782L21.821 23.5122Z" fill="#42591C"/>
<path fill-rule="evenodd" clip-rule="evenodd" d="M17.168 29.2151C17.271 29.6786 17.8889 30.6763 18.2429 31.0238C18.6741 30.7342 19.099 30.5797 19.5817 30.2064L18.23 28.417L17.168 29.2151Z" fill="#42591C"/>
<path fill-rule="evenodd" clip-rule="evenodd" d="M22.1575 21.8967L21.9258 23.1261C22.5501 23.3771 23.3097 23.7375 23.8503 23.744C24.0563 23.1776 24.2237 22.5661 24.2172 22.0447C23.6444 21.9482 22.7368 21.8645 22.1575 21.8967Z" fill="#42591C"/>
<path fill-rule="evenodd" clip-rule="evenodd" d="M10.4602 31.043C10.1706 31.4742 9.84229 32.0471 9.77148 32.4719L11.754 33.0319L12.5586 31.9505L10.4602 31.043Z" fill="#42591C"/>
<path fill-rule="evenodd" clip-rule="evenodd" d="M20.2886 25.4304C20.1599 24.9734 19.6514 23.9113 19.336 23.4028C18.3319 24.9412 18.525 24.4327 18.9305 25.7973C19.3231 27.0975 19.3617 26.6791 20.2886 25.4304Z" fill="#42591C"/>
<path fill-rule="evenodd" clip-rule="evenodd" d="M13.5508 23.0358L15.559 24.2781L16.0225 23.4928L14.3875 21.6133L13.5508 23.0358Z" fill="#42591C"/>
<path fill-rule="evenodd" clip-rule="evenodd" d="M19.6016 22.9716C19.9041 23.5767 20.2388 24.3362 20.6057 24.9219L21.4875 23.2484L20.3804 21.7744L19.6016 22.9716Z" fill="#42591C"/>
<path fill-rule="evenodd" clip-rule="evenodd" d="M16.8025 22.9839L16.043 24.2905C16.3712 24.3935 16.0558 24.3356 16.3391 24.3485C16.4742 24.3549 16.4485 24.3485 16.6094 24.342L18.2701 24.3034C18.6241 23.7949 18.933 23.4666 18.8751 22.9903C18.682 23.0289 17.0342 23.0225 16.8025 22.9839Z" fill="#42591C"/>
<path fill-rule="evenodd" clip-rule="evenodd" d="M13.9229 35.9414L13.3887 36.7589L14.8305 38.4002L15.7252 37.1579L13.9229 35.9414Z" fill="#42591C"/>
<path fill-rule="evenodd" clip-rule="evenodd" d="M9.50717 32.8838L8.88281 34.0424C9.58441 34.2548 10.3311 34.2548 11.0327 34.5573L11.554 33.4245L9.50717 32.8838Z" fill="#42591C"/>
<path fill-rule="evenodd" clip-rule="evenodd" d="M18.2299 21.2271L17.1035 22.5273C17.6571 22.6817 17.715 22.5723 18.2299 22.6045C18.7706 22.6367 18.732 22.7139 19.337 22.6109L19.9871 21.5939C19.4272 21.3558 18.8543 21.4459 18.2299 21.2271Z" fill="#42591C"/>
<path fill-rule="evenodd" clip-rule="evenodd" d="M15.8617 24.7352L15.2695 25.9131C15.881 25.9968 16.6084 25.9388 17.1104 26.1319L17.9858 24.7609C17.6962 24.7352 17.3228 24.7352 17.0074 24.7287C16.5569 24.7223 16.3058 24.8639 15.8617 24.7352Z" fill="#42591C"/>
<path fill-rule="evenodd" clip-rule="evenodd" d="M8.69709 34.5636C8.65847 34.7502 8.60054 34.9433 8.56836 35.1558V35.8574C9.34076 35.7093 10.1132 35.8767 10.8534 35.5999L10.9242 34.9498C10.3256 34.7696 9.2957 34.4928 8.69709 34.5636Z" fill="#42591C"/>
<path fill-rule="evenodd" clip-rule="evenodd" d="M15.1282 26.3696L14.6133 27.599C15.2569 27.702 15.5659 27.6055 16.1259 27.6763L16.9112 26.4984C16.4284 26.3117 16.5314 26.4276 15.9907 26.4147C15.7204 26.4018 15.3599 26.3761 15.1282 26.3696Z" fill="#42591C"/>
<path fill-rule="evenodd" clip-rule="evenodd" d="M14.3686 34.9116L14.0918 35.5424C14.5939 35.8836 15.5207 36.5594 15.9906 36.6753L16.3832 35.8449C15.952 35.5682 14.7612 34.9953 14.3686 34.9116Z" fill="#42591C"/>
<path fill-rule="evenodd" clip-rule="evenodd" d="M17.457 26.415L18.2487 27.7152C18.8795 27.1488 18.931 27.2067 18.7122 26.5309C18.5577 26.0546 18.4032 25.6619 18.2166 25.1792L17.457 26.415Z" fill="#42591C"/>
<path fill-rule="evenodd" clip-rule="evenodd" d="M16.9163 28.8673L17.9333 27.992L17.2124 26.8076C16.4658 27.8761 16.1504 27.9662 16.9163 28.8673Z" fill="#42591C"/>
<path fill-rule="evenodd" clip-rule="evenodd" d="M20.6504 21.3302L21.5258 22.669C21.7832 22.0124 21.6738 21.0598 21.1782 20.5127L20.6504 21.3302Z" fill="#42591C"/>
<path fill-rule="evenodd" clip-rule="evenodd" d="M18.6797 20.8986L20.2374 21.1175L20.778 20.3451C20.0958 19.8752 19.156 20.5639 18.6797 20.8986Z" fill="#42591C"/>
<path fill-rule="evenodd" clip-rule="evenodd" d="M13.7624 32.8967L13.0801 34.4157C13.4083 34.4672 13.1123 34.4543 13.3955 34.435L14.1228 34.2162L14.2837 32.8838L13.7624 32.8967Z" fill="#42591C"/>
<path fill-rule="evenodd" clip-rule="evenodd" d="M12.1152 33.2956L12.7267 34.1002C12.8683 33.8234 13.0743 33.405 13.158 33.154C13.306 32.7035 13.203 32.6713 12.8812 32.2207L12.1152 33.2956Z" fill="#42591C"/>
<path fill-rule="evenodd" clip-rule="evenodd" d="M11.6188 36.7907C11.7411 36.5654 11.7926 36.4495 11.8763 36.2307C11.9214 36.1277 11.96 36.0505 11.9793 35.9539C12.0694 35.5806 11.9536 35.587 11.4579 35.0142C11.1683 35.6836 11.1812 36.2243 11.6188 36.7907Z" fill="#42591C"/>
<path fill-rule="evenodd" clip-rule="evenodd" d="M11.541 34.4479L12.2233 35.2396L12.5258 34.7053L11.8886 33.7334L11.541 34.4479Z" fill="#42591C"/>
<path fill-rule="evenodd" clip-rule="evenodd" d="M12.5271 35.8896L12.0508 36.9517C12.6623 36.926 12.8875 36.6814 13.3252 36.0892C12.8167 35.8832 13.0034 36.057 12.5271 35.8896Z" fill="#42591C"/>
<path fill-rule="evenodd" clip-rule="evenodd" d="M12.8737 34.969L12.6484 35.5161C13.099 35.5418 13.1376 35.6577 13.6139 35.5418L13.9229 34.8467L12.8737 34.969Z" fill="#42591C"/>
<path d="M93.1313 35.4134H92.0435V38.5288H91.181V35.4134H90.0996V34.7183H93.1313V35.4134Z" fill="#2C3312"/>
<path d="M96.8519 38.5288H95.8607L95.2685 37.5504C95.2235 37.4732 95.1848 37.4088 95.1398 37.3509C95.1012 37.2929 95.0561 37.2414 95.0175 37.1964C94.9789 37.1578 94.9338 37.1256 94.8888 37.1063C94.8437 37.0805 94.7922 37.0676 94.7407 37.0676H94.509V38.5288H93.6465V34.7183H95.0111C95.9379 34.7183 96.4014 35.0594 96.4014 35.7546C96.4014 35.8833 96.3821 36.0056 96.337 36.1215C96.2984 36.2309 96.2405 36.3339 96.1632 36.424C96.0924 36.5141 96.0023 36.5978 95.8929 36.6621C95.7899 36.7265 95.674 36.778 95.5453 36.8166V36.8231C95.5968 36.8424 95.6547 36.8745 95.7062 36.9132C95.7641 36.9518 95.8092 36.9968 95.8607 37.0483C95.9122 37.1063 95.9572 37.1642 96.0023 37.2221C96.0474 37.2865 96.0924 37.3444 96.131 37.4023L96.8519 38.5288ZM94.509 35.3619V36.424H94.8823C95.0625 36.424 95.2106 36.366 95.3265 36.2631C95.4359 36.1536 95.4938 36.0185 95.4938 35.8576C95.4938 35.5228 95.2943 35.3619 94.8952 35.3619H94.509Z" fill="#2C3312"/>
<path d="M98.0695 38.5288H97.207V34.7183H98.0695V38.5288Z" fill="#2C3312"/>
<path d="M101.204 38.5288H98.9316V34.7183H99.7942V37.8336H101.204V38.5288Z" fill="#2C3312"/>
<path d="M105.019 38.5288H104.156V36.9775H102.579V38.5288H101.717V34.7183H102.579V36.2373H104.156V34.7183H105.019V38.5288Z" fill="#2C3312"/>
<path d="M109.25 38.5288H108.317L108.04 37.6791H106.688L106.418 38.5288H105.484L106.875 34.7183H107.892L109.25 38.5288ZM107.847 37.0226L107.435 35.7417C107.402 35.6451 107.383 35.5293 107.37 35.3941H107.351C107.338 35.51 107.319 35.6194 107.287 35.7288L106.868 37.0226H107.847Z" fill="#2C3312"/>
<path d="M109.551 38.3871V37.531C109.705 37.6597 109.872 37.7627 110.053 37.8271C110.233 37.8914 110.413 37.9236 110.6 37.9236C110.709 37.9236 110.806 37.9108 110.883 37.8914C110.967 37.8721 111.031 37.8464 111.089 37.8078C111.14 37.7756 111.179 37.737 111.205 37.6919C111.237 37.6404 111.25 37.5889 111.25 37.5374C111.25 37.4602 111.224 37.3958 111.185 37.3379C111.14 37.28 111.082 37.222 111.012 37.177C110.934 37.1255 110.851 37.074 110.748 37.0289C110.645 36.9839 110.535 36.9388 110.42 36.8873C110.123 36.765 109.898 36.6106 109.75 36.4368C109.608 36.2565 109.531 36.0377 109.531 35.7867C109.531 35.5871 109.57 35.4133 109.654 35.2717C109.731 35.1301 109.84 35.0143 109.982 34.9177C110.117 34.8276 110.278 34.7568 110.458 34.7182C110.638 34.6731 110.831 34.6538 111.031 34.6538C111.231 34.6538 111.404 34.6667 111.559 34.686C111.713 34.7117 111.855 34.7504 111.984 34.7954V35.5936C111.919 35.5485 111.848 35.5099 111.778 35.4777C111.7 35.4455 111.623 35.4133 111.539 35.394C111.462 35.3683 111.385 35.3554 111.301 35.3425C111.224 35.3361 111.153 35.3297 111.082 35.3297C110.979 35.3297 110.896 35.3361 110.812 35.3554C110.735 35.3747 110.664 35.4005 110.613 35.4326C110.555 35.4648 110.516 35.5099 110.484 35.5549C110.452 35.6 110.439 35.6515 110.439 35.7094C110.439 35.7802 110.452 35.8317 110.49 35.8832C110.522 35.9347 110.568 35.9862 110.632 36.0313C110.696 36.0763 110.767 36.1149 110.857 36.16C110.947 36.205 111.05 36.2501 111.16 36.2952C111.314 36.3595 111.449 36.4303 111.572 36.5011C111.694 36.5719 111.797 36.6556 111.881 36.7457C111.971 36.8358 112.035 36.9388 112.08 37.0547C112.132 37.1705 112.151 37.3057 112.151 37.4602C112.151 37.6726 112.112 37.8528 112.029 37.9944C111.951 38.1425 111.842 38.2583 111.7 38.3485C111.565 38.4386 111.404 38.5029 111.218 38.5416C111.037 38.5802 110.844 38.5995 110.638 38.5995C110.426 38.5995 110.226 38.5802 110.04 38.5416C109.853 38.5094 109.686 38.4579 109.551 38.3871Z" fill="#2C3312"/>
<path d="M116.575 38.5288H114.283V34.7183H116.485V35.4134H115.146V36.2631H116.394V36.9582H115.146V37.8336H116.575V38.5288Z" fill="#2C3312"/>
<path d="M122.045 38.5288H121.105L120.835 37.6791H119.477L119.206 38.5288H118.279L119.663 34.7183H120.687L122.045 38.5288ZM120.635 37.0226L120.23 35.7417C120.197 35.6451 120.178 35.5293 120.165 35.3941H120.139C120.133 35.51 120.114 35.6194 120.075 35.7288L119.663 37.0226H120.635Z" fill="#2C3312"/>
<path d="M125.386 34.7183L124.073 38.5288H123.095L121.801 34.7183H122.721L123.519 37.3702C123.564 37.5118 123.59 37.6405 123.597 37.7499H123.609C123.622 37.6341 123.655 37.4989 123.693 37.3573L124.485 34.7183H125.386Z" fill="#2C3312"/>
<path d="M128.133 38.5288H125.842V34.7183H128.043V35.4134H126.704V36.2631H127.947V36.9582H126.704V37.8336H128.133V38.5288Z" fill="#2C3312"/>
<path d="M132.177 38.5288H131.308L129.738 36.1343C129.641 35.9927 129.577 35.8897 129.545 35.8189H129.532C129.551 35.9541 129.558 36.1601 129.558 36.4369V38.5288H128.74V34.7183H129.667L131.186 37.0355C131.251 37.1449 131.315 37.2479 131.373 37.3509H131.386C131.373 37.2607 131.366 37.087 131.366 36.8231V34.7183H132.177V38.5288Z" fill="#2C3312"/>
<path d="M135.73 35.4134H134.642V38.5288H133.779V35.4134H132.691V34.7183H135.73V35.4134Z" fill="#2C3312"/>
<path d="M139.353 36.881C139.353 38.0267 138.819 38.5996 137.75 38.5996C136.714 38.5996 136.199 38.0396 136.199 36.9196V34.7183H137.055V36.926C137.055 37.544 137.3 37.8529 137.783 37.8529C138.253 37.8529 138.491 37.5568 138.491 36.9582V34.7183H139.353V36.881Z" fill="#2C3312"/>
<path d="M143.383 38.5288H142.398L141.806 37.5504C141.761 37.4732 141.716 37.4088 141.677 37.3509C141.632 37.2929 141.593 37.2414 141.555 37.1964C141.51 37.1578 141.464 37.1256 141.419 37.1063C141.374 37.0805 141.329 37.0676 141.271 37.0676H141.04V38.5288H140.184V34.7183H141.542C142.469 34.7183 142.932 35.0594 142.932 35.7546C142.932 35.8833 142.913 36.0056 142.874 36.1215C142.829 36.2309 142.778 36.3339 142.7 36.424C142.623 36.5141 142.533 36.5978 142.43 36.6621C142.327 36.7265 142.205 36.778 142.076 36.8166V36.8231C142.134 36.8424 142.185 36.8745 142.243 36.9132C142.295 36.9518 142.346 36.9968 142.398 37.0483C142.449 37.1063 142.494 37.1642 142.539 37.2221C142.584 37.2865 142.623 37.3444 142.662 37.4023L143.383 38.5288ZM141.04 35.3619V36.424H141.413C141.6 36.424 141.748 36.366 141.857 36.2631C141.973 36.1536 142.031 36.0185 142.031 35.8576C142.031 35.5228 141.831 35.3619 141.432 35.3619H141.04Z" fill="#2C3312"/>
<path d="M147.096 38.5288H146.156L145.885 37.6791H144.527L144.263 38.5288H143.33L144.72 34.7183H145.737L147.096 38.5288ZM145.692 37.0226L145.28 35.7417C145.248 35.6451 145.229 35.5293 145.216 35.3941H145.197C145.184 35.51 145.165 35.6194 145.126 35.7288L144.714 37.0226H145.692Z" fill="#2C3312"/>
<path d="M147.398 38.3871V37.531C147.553 37.6597 147.72 37.7627 147.9 37.8271C148.081 37.8914 148.261 37.9236 148.447 37.9236C148.557 37.9236 148.647 37.9108 148.731 37.8914C148.808 37.8721 148.879 37.8464 148.93 37.8078C148.988 37.7756 149.027 37.737 149.052 37.6919C149.078 37.6404 149.091 37.5889 149.091 37.5374C149.091 37.4602 149.072 37.3958 149.027 37.3379C148.988 37.28 148.93 37.222 148.853 37.177C148.782 37.1255 148.692 37.074 148.595 37.0289C148.492 36.9839 148.383 36.9388 148.267 36.8873C147.971 36.765 147.746 36.6106 147.598 36.4368C147.456 36.2565 147.379 36.0377 147.379 35.7867C147.379 35.5871 147.418 35.4133 147.501 35.2717C147.578 35.1301 147.688 35.0143 147.823 34.9177C147.965 34.8276 148.126 34.7568 148.306 34.7182C148.486 34.6731 148.673 34.6538 148.879 34.6538C149.078 34.6538 149.252 34.6667 149.406 34.686C149.561 34.7117 149.703 34.7504 149.831 34.7954V35.5936C149.767 35.5485 149.696 35.5099 149.619 35.4777C149.548 35.4455 149.471 35.4133 149.387 35.394C149.31 35.3683 149.233 35.3554 149.149 35.3425C149.072 35.3361 148.995 35.3297 148.924 35.3297C148.827 35.3297 148.737 35.3361 148.66 35.3554C148.583 35.3747 148.512 35.4005 148.46 35.4326C148.402 35.4648 148.357 35.5099 148.332 35.5549C148.299 35.6 148.286 35.6515 148.286 35.7094C148.286 35.7802 148.299 35.8317 148.338 35.8832C148.37 35.9347 148.415 35.9862 148.48 36.0313C148.544 36.0763 148.615 36.1149 148.705 36.16C148.795 36.205 148.892 36.2501 149.007 36.2952C149.162 36.3595 149.297 36.4303 149.419 36.5011C149.542 36.5719 149.645 36.6556 149.728 36.7457C149.818 36.8358 149.883 36.9388 149.928 37.0547C149.973 37.1705 149.999 37.3057 149.999 37.4602C149.999 37.6726 149.96 37.8528 149.876 37.9944C149.799 38.1425 149.69 38.2583 149.548 38.3485C149.413 38.4386 149.252 38.5029 149.065 38.5416C148.879 38.5802 148.686 38.5995 148.486 38.5995C148.274 38.5995 148.074 38.5802 147.887 38.5416C147.701 38.5094 147.533 38.4579 147.398 38.3871Z" fill="#2C3312"/>
</svg>
