<svg width="142" height="150" viewBox="0 0 142 150" fill="none" xmlns="http://www.w3.org/2000/svg">
<path fill-rule="evenodd" clip-rule="evenodd" d="M75.5547 13.6895C82.3087 14.3347 88.5789 16.6432 93.9619 20.1815L91.1897 22.8226C85.5143 19.2742 78.8006 17.2177 71.6131 17.2177C63.1655 17.2177 55.3833 20.0504 49.1534 24.8186L45.7462 22.7722C51.8147 17.7722 59.3651 14.496 67.6413 13.6895L71.7038 0L75.5547 13.6895ZM75.6756 94.748L71.5728 108.377L67.8026 94.7682C62.0365 94.2339 56.6232 92.49 51.8046 89.8085L54.8389 87.2077C59.8792 89.7783 65.5748 91.2198 71.6131 91.2198C79.093 91.2198 86.0486 89.002 91.8752 85.1815L95.2522 87.3791C89.6272 91.4012 82.9337 94.0222 75.6756 94.748ZM35.8772 73.75C33.2966 69.0424 31.6232 63.7702 31.0788 58.1653L17.3691 54.3045L31.0788 50.242C31.7441 43.4778 34.0526 37.1976 37.6111 31.8145L39.9095 35.1411C36.5425 40.7157 34.6071 47.2379 34.6071 54.2238C34.6071 59.869 35.8772 65.2218 38.1454 70.0101L35.8772 73.75ZM112.198 50.2319L112.188 50.7661C111.855 46.7641 110.938 42.9234 109.526 39.3347L106.986 43.3367C108.045 46.7843 108.609 50.4335 108.609 54.2238C108.609 62.1573 106.119 69.5061 101.865 75.5343L103.932 78.992C108.448 73.1149 111.391 65.9678 112.147 58.1855L125.928 54.3045L112.198 50.2319Z" fill="#42591C"/>
<path fill-rule="evenodd" clip-rule="evenodd" d="M97.3203 19.9187C98.2175 21.1586 98.9231 22.2977 99.6288 23.7896C100.97 23.6687 102.592 22.9933 104.185 24.334C105.002 25.0195 105.717 26.6525 105.728 27.9126C107.048 28.0739 109.871 28.3461 110.899 27.9328C111.635 18.6989 102.018 15.3421 97.3203 19.9187Z" fill="#42591C"/>
<path fill-rule="evenodd" clip-rule="evenodd" d="M74.7913 55.9268C74.2872 59.0014 75.2247 61.5316 77.0997 63.2151C80.1642 65.9772 82.8255 65.1203 85.6582 64.6264L83.9243 60.1405C82.6642 60.08 81.7167 60.7554 80.3255 59.7876C79.3779 59.1324 79.2368 58.1445 79.5594 56.8441L74.7913 55.9268Z" fill="#42591C"/>
<path fill-rule="evenodd" clip-rule="evenodd" d="M99.2266 42.0248C99.9927 43.2547 101.545 45.0289 102.896 46.1176L105.426 42.3877L100.92 39.6055L99.2266 42.0248Z" fill="#42591C"/>
<path fill-rule="evenodd" clip-rule="evenodd" d="M87.2812 31.6118L92.1804 33.2146L93.6825 30.0796L89.499 27.5493L87.2812 31.6118Z" fill="#42591C"/>
<path fill-rule="evenodd" clip-rule="evenodd" d="M85.707 36.5916L90.9187 37.3678L91.8764 34.2327L86.9268 32.6299L85.707 36.5916Z" fill="#42591C"/>
<path fill-rule="evenodd" clip-rule="evenodd" d="M105.749 29.0715L105.084 32.2973L110.185 33.0735L110.981 29.0816C110.064 28.9909 109.308 29.011 108.461 28.9707L105.749 29.0715Z" fill="#42591C"/>
<path fill-rule="evenodd" clip-rule="evenodd" d="M99.2585 49.5658C100.045 48.7896 101.254 48.0133 101.99 46.7936C101.456 45.9871 99.1678 43.4468 98.4016 42.8521C96.4561 45.1706 96.1234 44.8279 97.0206 46.219C97.6053 47.1262 98.5932 48.8803 99.2585 49.5658Z" fill="#42591C"/>
<path fill-rule="evenodd" clip-rule="evenodd" d="M104.649 33.2646L103.258 36.178L108.258 37.4884C109.054 36.7626 109.588 35.0892 109.941 33.9602L104.649 33.2646Z" fill="#42591C"/>
<path fill-rule="evenodd" clip-rule="evenodd" d="M90.1445 26.854L94.207 29.3137L96.1425 26.5718L92.6748 23.5879L90.1445 26.854Z" fill="#42591C"/>
<path fill-rule="evenodd" clip-rule="evenodd" d="M78.9043 48.578L83.0172 51.4611C83.8237 50.4026 84.5898 50.07 85.2753 49.2635L80.9607 45.9873C80.3357 47.0357 79.5394 47.4893 78.9043 48.578Z" fill="#42591C"/>
<path fill-rule="evenodd" clip-rule="evenodd" d="M85.6585 37.701L85.5879 41.0175L90.1242 41.2091L90.7492 38.326C89.2572 38.0034 87.0496 37.449 85.6585 37.701Z" fill="#42591C"/>
<path fill-rule="evenodd" clip-rule="evenodd" d="M102.705 37.0859L101.506 38.971L106.062 41.6121L107.957 38.4367L102.705 37.0859Z" fill="#42591C"/>
<path fill-rule="evenodd" clip-rule="evenodd" d="M92.7754 34.535C93.7633 34.5047 95.7089 34.1922 96.5556 34.0309C97.9669 33.7688 98.2693 32.3979 99.1464 30.9866C93.1685 30.7043 94.1564 31.0471 92.7754 34.535Z" fill="#42591C"/>
<path fill-rule="evenodd" clip-rule="evenodd" d="M93.5723 22.9624L97.0501 25.9765C97.6751 25.039 98.2295 24.8274 98.9251 24.1318C97.7457 22.8919 97.3626 21.3395 96.4453 20.4927C95.3061 21.0874 94.2577 21.9745 93.5723 22.9624Z" fill="#42591C"/>
<path fill-rule="evenodd" clip-rule="evenodd" d="M88.6797 55.1504L91.9458 58.346L93.8914 55.6343L89.8793 52.5093L88.6797 55.1504Z" fill="#42591C"/>
<path fill-rule="evenodd" clip-rule="evenodd" d="M94.9238 30.2309C95.9621 30.2209 97.4742 30.1805 98.6133 30.0696C100.025 29.9386 100.599 28.7995 101.002 27.3882C99.9339 27.2067 97.8875 26.7128 97.071 27.1362C96.4258 27.4688 95.1355 29.4749 94.9238 30.2309Z" fill="#42591C"/>
<path fill-rule="evenodd" clip-rule="evenodd" d="M100.929 38.0938L102.633 35.3317C101.968 33.991 100.788 32.4789 100.103 31.3096C98.9535 32.8116 98.4293 33.4265 99.1148 34.7269C99.7297 35.9063 100.083 37.1261 100.929 38.0938Z" fill="#42591C"/>
<path fill-rule="evenodd" clip-rule="evenodd" d="M86.5625 58.023L89.7077 61.4303L91.3609 59.2932C90.746 58.3254 88.9113 56.5512 88.0141 55.896L86.5625 58.023Z" fill="#42591C"/>
<path fill-rule="evenodd" clip-rule="evenodd" d="M101.928 28.1439C100.799 29.2931 100.406 30.2608 101.232 31.41C102.664 33.4262 102.27 33.6076 103.268 34.162L104.488 30.9262C103.813 30.1197 102.674 28.1137 101.928 28.1439Z" fill="#42591C"/>
<path fill-rule="evenodd" clip-rule="evenodd" d="M76.3143 52.2479L74.8828 54.9697L79.4695 55.8568C80.0239 55.504 80.1147 55.2923 80.5582 54.1632L77.5542 52.5302C77.3727 52.4495 77.1308 52.3487 76.9393 52.3084C76.3848 52.1774 76.657 52.2076 76.3143 52.2479Z" fill="#42591C"/>
<path fill-rule="evenodd" clip-rule="evenodd" d="M96.334 37.8516C96.9691 38.7084 97.8864 40.1903 98.5517 41.1076L100.265 39.0411C100.155 38.91 99.8723 38.3455 99.7312 38.0733C99.6404 37.8919 99.5094 37.65 99.4691 37.5592L98.2594 35.0391C97.7453 35.3112 98.1687 34.908 97.7352 35.4322L96.334 37.8516Z" fill="#42591C"/>
<path fill-rule="evenodd" clip-rule="evenodd" d="M84.7402 59.3842C85.0729 60.9266 86.1918 62.6604 86.7463 64.1121C87.5326 63.5979 88.1878 63.1746 89.0043 62.4185L85.8289 58.5576L84.7402 59.3842Z" fill="#42591C"/>
<path fill-rule="evenodd" clip-rule="evenodd" d="M94.3496 41.3399L95.9121 44.0315L98.0895 41.8137C97.0815 40.846 96.9202 39.9791 95.9424 38.9307C95.7811 39.0617 95.8819 38.8803 95.4585 39.4145L94.3496 41.3399Z" fill="#42591C"/>
<path fill-rule="evenodd" clip-rule="evenodd" d="M77 51.1887L81.1935 53.3157L82.1714 52.1867L78.3004 49.3843L77 51.1887Z" fill="#42591C"/>
<path fill-rule="evenodd" clip-rule="evenodd" d="M92.463 35.6142L91.959 37.3985C92.9771 37.6304 94.4691 37.7312 95.3058 37.3985L96.8481 34.959L92.463 35.6142Z" fill="#42591C"/>
<path fill-rule="evenodd" clip-rule="evenodd" d="M91.8761 38.4165L91.0898 41.1685C93.8318 41.6625 93.5495 40.8359 94.7995 38.5274L91.8761 38.4165Z" fill="#42591C"/>
<path fill-rule="evenodd" clip-rule="evenodd" d="M102.514 26.9242C103.27 27.9322 103.643 28.9 104.671 29.5653C104.953 27.4484 104.752 26.3093 103.562 25.0693L102.514 26.9242Z" fill="#42591C"/>
<path fill-rule="evenodd" clip-rule="evenodd" d="M98.1973 26.0783L101.645 26.4916L102.734 24.5359C100.828 24.2033 99.2759 25.1105 98.1973 26.0783Z" fill="#42591C"/>
<path fill-rule="evenodd" clip-rule="evenodd" d="M83.623 52.075L84.4295 53.95L86.6573 51.4198C86.5464 51.2988 86.4053 50.7746 86.3952 50.7545C86.3851 50.7041 86.3549 50.6234 86.3347 50.573L86.0827 50.0488L83.623 52.075Z" fill="#42591C"/>
<path fill-rule="evenodd" clip-rule="evenodd" d="M87.3231 52.0654L85.6094 54.3235L87.7767 54.6965L88.9562 52.267L87.3231 52.0654Z" fill="#42591C"/>
<path fill-rule="evenodd" clip-rule="evenodd" d="M81.5547 59.213C83.2785 59.5557 84.1656 58.6585 85.1736 57.7815L83.1878 57.3984L81.5547 59.213Z" fill="#42591C"/>
<path fill-rule="evenodd" clip-rule="evenodd" d="M83.9043 56.5314L86.1321 56.9145L87.1906 55.5939C85.1845 55.4024 84.6805 54.7572 83.9043 56.5314Z" fill="#42591C"/>
<path fill-rule="evenodd" clip-rule="evenodd" d="M80.4782 58.588L81.325 58.0135C81.6476 57.6505 81.8492 57.3078 82.1113 56.8844C81.95 56.5518 81.95 56.5215 81.7383 56.1687L81.0327 55.3018C80.3976 56.9348 80.3976 57.207 80.4782 58.588Z" fill="#42591C"/>
<path fill-rule="evenodd" clip-rule="evenodd" d="M81.7871 54.2637L82.9061 55.9976C82.654 55.7053 82.9363 55.6448 82.9363 55.7355L83.652 55.1911C83.6117 54.0722 83.4101 53.8303 82.8053 52.9028L81.7871 54.2637Z" fill="#42591C"/>
<path fill-rule="evenodd" clip-rule="evenodd" d="M58.1348 40.5945L60.8565 44.8385C62.3787 44.7477 63.4775 44.0824 64.9493 44.5159C67.0259 45.1207 67.419 46.6026 67.5098 48.034C68.2557 48.2861 72.0561 48.528 72.6307 48.4877C73.5682 46.1187 72.3686 40.9171 68.3465 39.0925C65.1307 37.6308 60.9876 38.5481 58.1348 40.5945Z" fill="#42591C"/>
<path fill-rule="evenodd" clip-rule="evenodd" d="M41.9873 81.4316C40.8381 81.8349 39.3664 81.6433 38.2172 81.7744C37.0075 81.9155 37.6023 81.6333 36.7051 82.4095C37.7434 84.8591 38.6002 88.0244 42.5821 89.2139C45.0619 89.9498 48.0861 89.3349 50.2736 87.48C49.8301 86.6131 48.0962 84.6373 47.2394 83.7603C45.8583 84.2643 45.5861 85.1413 44.1446 84.476C42.5418 83.7502 42.451 82.3893 41.9873 81.4316Z" fill="#42591C"/>
<path fill-rule="evenodd" clip-rule="evenodd" d="M64.9899 56.9258L62.752 59.95L66.6632 63.5992L69.4858 59.4359L64.9899 56.9258Z" fill="#42591C"/>
<path fill-rule="evenodd" clip-rule="evenodd" d="M47.6509 52.9229L45.6348 57.0358L51.0783 58.3765L52.54 55.4128C51.0682 54.5156 49.1731 53.2253 47.6509 52.9229Z" fill="#42591C"/>
<path fill-rule="evenodd" clip-rule="evenodd" d="M59.5996 63.2059L62.8859 67.47L66.1319 64.4256L62.2105 60.6958L59.5996 63.2059Z" fill="#42591C"/>
<path fill-rule="evenodd" clip-rule="evenodd" d="M54.0625 43.5883L57.0766 47.8625L60.1714 45.3827L57.4698 41.0581C56.3609 41.5117 55.0504 42.6912 54.0625 43.5883Z" fill="#42591C"/>
<path fill-rule="evenodd" clip-rule="evenodd" d="M53.0141 44.6875C51.1794 46.7339 50.5242 47.1673 51.1794 48.1552C51.5726 48.7399 53.9516 51.0383 54.5968 51.5726L56.502 48.8105C56.0786 47.9234 54.1835 44.7681 53.0141 44.6875Z" fill="#42591C"/>
<path fill-rule="evenodd" clip-rule="evenodd" d="M45.2934 58.0439C44.6684 59.4351 44.0736 61.1387 44.2954 62.2778C45.0716 62.1871 45.5656 62.3887 46.7551 62.298C47.995 62.1972 48.489 62.2073 49.5575 62.4189L50.737 59.3141C49.124 58.9008 46.6543 58.5278 45.2934 58.0439Z" fill="#42591C"/>
<path fill-rule="evenodd" clip-rule="evenodd" d="M51.3517 74.3745L50.5352 77.6608C51.8557 78.4773 53.771 79.6064 55.263 79.8281C55.8174 78.7193 56.2408 77.4794 56.2408 76.5015L51.3517 74.3745Z" fill="#42591C"/>
<path fill-rule="evenodd" clip-rule="evenodd" d="M67.1406 52.8125L65.5781 56.0181L69.691 58.4778L71.4854 54.5565L67.1406 52.8125Z" fill="#42591C"/>
<path fill-rule="evenodd" clip-rule="evenodd" d="M56.5215 65.8269C56.7634 66.8753 58.1747 69.1535 58.9711 69.9398C59.959 69.2946 60.9267 68.9317 62.0255 68.0749L58.9408 63.9922L56.5215 65.8269Z" fill="#42591C"/>
<path fill-rule="evenodd" clip-rule="evenodd" d="M67.9034 49.1329L67.3691 51.9252C68.7905 52.5099 70.5244 53.3264 71.7643 53.3466C72.2381 52.0462 72.6111 50.655 72.601 49.4655C71.3006 49.2337 69.2341 49.0421 67.9034 49.1329Z" fill="#42591C"/>
<path fill-rule="evenodd" clip-rule="evenodd" d="M41.2207 69.9897C40.5655 70.9676 39.8195 72.2781 39.6582 73.2559L44.1743 74.516L46.0191 72.0563L41.2207 69.9897Z" fill="#42591C"/>
<path fill-rule="evenodd" clip-rule="evenodd" d="M63.6527 57.1872C63.3502 56.1489 62.191 53.7195 61.4752 52.5703C59.1769 56.0683 59.6204 54.9191 60.5478 58.0139C61.445 60.9877 61.5357 60.03 63.6527 57.1872Z" fill="#42591C"/>
<path fill-rule="evenodd" clip-rule="evenodd" d="M48.2773 51.7336L52.864 54.5562L53.9124 52.7618L50.1826 48.4775L48.2773 51.7336Z" fill="#42591C"/>
<path fill-rule="evenodd" clip-rule="evenodd" d="M62.0762 51.5727C62.7617 52.9537 63.5278 54.6876 64.3746 56.0283L66.3806 52.2078L63.8403 48.8408L62.0762 51.5727Z" fill="#42591C"/>
<path fill-rule="evenodd" clip-rule="evenodd" d="M55.6889 51.6128L53.9551 54.5967C54.7111 54.8184 53.9954 54.6874 54.6406 54.7176C54.9329 54.7277 54.8926 54.7176 55.2454 54.7076L59.0458 54.6168C59.8422 53.4576 60.5478 52.7116 60.4168 51.6128C59.9732 51.7136 56.2131 51.6934 55.6889 51.6128Z" fill="#42591C"/>
<path fill-rule="evenodd" clip-rule="evenodd" d="M49.1237 81.1597L47.9141 83.0246L51.1903 86.7645L53.2467 83.9318L49.1237 81.1597Z" fill="#42591C"/>
<path fill-rule="evenodd" clip-rule="evenodd" d="M39.0525 74.1826L37.6211 76.8338C39.234 77.3177 40.9376 77.3177 42.5304 78.0032L43.73 75.4225L39.0525 74.1826Z" fill="#42591C"/>
<path fill-rule="evenodd" clip-rule="evenodd" d="M58.9433 47.6006L56.3828 50.5643C57.653 50.9272 57.7639 50.6651 58.9534 50.7357C60.1832 50.8163 60.1026 50.9877 61.4735 50.7457L62.9554 48.4373C61.6852 47.8929 60.3647 48.1046 58.9433 47.6006Z" fill="#42591C"/>
<path fill-rule="evenodd" clip-rule="evenodd" d="M53.552 55.6049L52.2012 58.2863C53.5923 58.4779 55.2556 58.3569 56.3947 58.7803L58.3907 55.6654C57.7254 55.5948 56.8887 55.5948 56.1629 55.5847C55.1346 55.5746 54.56 55.8972 53.552 55.6049Z" fill="#42591C"/>
<path fill-rule="evenodd" clip-rule="evenodd" d="M37.2084 78.0238C37.1075 78.4472 36.9866 78.8907 36.916 79.3746V80.9674C38.6801 80.6347 40.4342 81.0077 42.1176 80.3827L42.289 78.9008C40.918 78.4875 38.5692 77.8524 37.2084 78.0238Z" fill="#42591C"/>
<path fill-rule="evenodd" clip-rule="evenodd" d="M51.8686 59.3247L50.6992 62.1372C52.171 62.359 52.8666 62.1473 54.1468 62.3086L55.9311 59.617C54.8424 59.2037 55.0742 59.4658 53.8444 59.4255C53.2295 59.4054 52.4129 59.3449 51.8686 59.3247Z" fill="#42591C"/>
<path fill-rule="evenodd" clip-rule="evenodd" d="M50.1328 78.8208L49.5078 80.2523C50.6469 81.0285 52.7739 82.5708 53.8324 82.8329L54.7397 80.9377C53.7518 80.3127 51.03 79.0023 50.1328 78.8208Z" fill="#42591C"/>
<path fill-rule="evenodd" clip-rule="evenodd" d="M57.1777 59.4255L58.9923 62.3993C60.4338 61.1089 60.5447 61.2299 60.0507 59.6976C59.6979 58.619 59.3451 57.7118 58.9116 56.623L57.1777 59.4255Z" fill="#42591C"/>
<path fill-rule="evenodd" clip-rule="evenodd" d="M55.9487 65.0194L58.2774 63.0234L56.6241 60.3218C54.9306 62.7613 54.2048 62.973 55.9487 65.0194Z" fill="#42591C"/>
<path fill-rule="evenodd" clip-rule="evenodd" d="M64.457 47.8322L66.4631 50.8866C67.0478 49.3947 66.8058 47.2173 65.6768 45.9673L64.457 47.8322Z" fill="#42591C"/>
<path fill-rule="evenodd" clip-rule="evenodd" d="M59.9785 46.8448L63.5269 47.3489L64.7668 45.5848C63.2144 44.5162 61.0571 46.0787 59.9785 46.8448Z" fill="#42591C"/>
<path fill-rule="evenodd" clip-rule="evenodd" d="M48.7617 74.2229L47.1992 77.6806C47.9553 77.7915 47.2799 77.7713 47.925 77.731L49.5883 77.2371L49.9412 74.1826L48.7617 74.2229Z" fill="#42591C"/>
<path fill-rule="evenodd" clip-rule="evenodd" d="M45.0039 75.1307L46.4051 76.9654C46.7176 76.3303 47.1914 75.3828 47.3829 74.7981C47.7156 73.7699 47.4837 73.7094 46.7479 72.6812L45.0039 75.1307Z" fill="#42591C"/>
<path fill-rule="evenodd" clip-rule="evenodd" d="M43.8743 83.0944C44.1465 82.5803 44.2675 82.3283 44.4691 81.8142C44.5598 81.5823 44.6505 81.4109 44.7009 81.1791C44.9026 80.3424 44.6405 80.3626 43.5013 79.042C42.8461 80.5743 42.8763 81.8041 43.8743 83.0944Z" fill="#42591C"/>
<path fill-rule="evenodd" clip-rule="evenodd" d="M43.7031 77.7517L45.2555 79.5662L45.9511 78.3364L44.4894 76.1187L43.7031 77.7517Z" fill="#42591C"/>
<path fill-rule="evenodd" clip-rule="evenodd" d="M45.94 81.0381L44.8613 83.4675C46.2424 83.407 46.7565 82.8425 47.7646 81.5018C46.5952 81.0381 47.0287 81.4212 45.94 81.0381Z" fill="#42591C"/>
<path fill-rule="evenodd" clip-rule="evenodd" d="M46.7368 78.9512L46.2227 80.1911C47.2509 80.2415 47.3416 80.5137 48.4202 80.2516L49.1259 78.6689L46.7368 78.9512Z" fill="#42591C"/>
<path fill-rule="evenodd" clip-rule="evenodd" d="M71.6846 21.7433C77.6322 21.7433 83.2169 23.326 88.0354 26.0881L85.9891 29.5861C81.7753 27.1667 76.8963 25.7857 71.6846 25.7857C56.0697 25.7857 43.358 38.205 42.8741 53.699L39.1745 59.4954C38.9427 57.9026 38.8116 56.2696 38.8116 54.6163C38.8116 48.578 40.4447 42.9228 43.2874 38.0639L29.8398 15.5034L44.5677 23.83L52.1987 28.1446C57.6524 24.1224 64.3862 21.7433 71.6846 21.7433ZM100.334 51.3905L103.912 48.1042C104.336 50.201 104.558 52.3885 104.558 54.6163C104.558 61.5821 102.39 68.0337 98.7008 73.3462L111.392 94.6365L89.487 82.2575C84.356 85.5639 78.2471 87.4893 71.6846 87.4893C66.2511 87.4893 61.1302 86.1688 56.614 83.83L57.9548 79.9692C62.0374 82.1869 66.7149 83.447 71.6846 83.447C87.612 83.447 100.515 70.5337 100.515 54.6163C100.515 53.5276 100.455 52.449 100.334 51.3905Z" fill="#F7CF05"/>
<path d="M18.9315 137.682H25.1613L22.2581 118.327H15.6351L12.5605 128.962L9.49597 118.327H2.90323L0 137.682H6.1996L7.05645 126.966L10.0504 137.682H15.0807L18.1048 126.966L18.9315 137.682Z" fill="#2C3312"/>
<path d="M36.5935 133.447L37.7024 137.701H43.5189L37.2891 118.356H30.4241L24.1641 137.701H29.9806L31.1096 133.447H36.5935ZM32.3899 128.598L33.8516 123.033L35.3233 128.598H32.3899Z" fill="#2C3312"/>
<path d="M56.9672 123.175V118.327H41.0801V123.175H46.1204V137.702H51.9269V123.175H56.9672Z" fill="#2C3312"/>
<path d="M63.9432 123.195H73.0258V118.356H58.1367V137.701H73.0258V132.862H63.9432V130.342H72.0581V125.695H63.9432V123.195Z" fill="#2C3312"/>
<path d="M75.1816 118.327V137.682H80.9982V118.327H75.1816Z" fill="#2C3312"/>
<path d="M90.9054 130.947L95.5022 137.701H101.893L96.6111 130.392C99.232 129.374 100.563 127.015 100.563 124.636C100.563 121.511 98.2139 118.356 93.5365 118.356H83.8691V137.701H89.6857V130.947H90.9054ZM89.6857 126.078V123.195H93.1433C94.0909 123.195 94.5849 123.92 94.5849 124.636C94.5849 125.362 94.0909 126.078 93.1433 126.078H89.6857Z" fill="#2C3312"/>
<path d="M112.719 117.691C107.013 117.691 102.396 122.318 102.396 128.014C102.396 133.72 107.013 138.347 112.719 138.347C118.425 138.347 123.042 133.72 123.042 128.014C123.042 122.318 118.425 117.691 112.719 117.691ZM107.961 128.014C107.961 125.302 109.977 122.893 112.719 122.893C115.461 122.893 117.477 125.302 117.477 128.014C117.477 130.756 115.461 133.165 112.719 133.165C109.977 133.165 107.961 130.756 107.961 128.014Z" fill="#2C3312"/>
<path d="M132.733 122.208C135.032 122.208 136.201 123.115 137.058 124.304L140.657 121.401C138.771 119.133 135.919 117.691 132.733 117.691C127.804 117.691 124.538 120.544 124.538 123.891C124.538 127.792 128.64 129.204 131.876 130.01C133.953 130.504 135.667 130.978 135.667 132.087C135.667 133.387 134.124 133.8 132.491 133.8C130.163 133.8 128.227 132.893 127.39 131.704L123.771 134.637C125.646 136.905 129.114 138.347 132.29 138.347C137.995 138.347 141.231 135.242 141.231 131.895C141.231 127.883 137.169 126.774 133.953 125.937C131.876 125.363 130.132 124.919 130.132 123.81C130.132 122.732 131.513 122.208 132.733 122.208Z" fill="#2C3312"/>
<path d="M28.457 145.009H26.7533V149.888H25.4025V145.009H23.709V143.92H28.457V145.009Z" fill="#373435"/>
<path d="M34.2819 149.888H32.7295L31.802 148.356C31.7315 148.235 31.671 148.134 31.6004 148.043C31.5399 147.953 31.4694 147.872 31.4089 147.801C31.3383 147.741 31.2778 147.691 31.2073 147.65C31.1367 147.62 31.0561 147.6 30.9754 147.6H30.6125V149.888H29.2617V143.92H31.3988C32.8504 143.92 33.5762 144.455 33.5762 145.543C33.5762 145.745 33.546 145.937 33.4754 146.118C33.4149 146.289 33.3242 146.451 33.2033 146.592C33.0924 146.733 32.9512 146.854 32.7799 146.965C32.6186 147.066 32.4371 147.146 32.2355 147.207V147.217C32.3162 147.247 32.4069 147.297 32.4875 147.358C32.5783 147.418 32.6488 147.489 32.7295 147.57C32.8101 147.66 32.8807 147.751 32.9512 147.842C33.0218 147.943 33.0924 148.033 33.1528 148.124L34.2819 149.888ZM30.6125 144.928V146.592H31.1972C31.4795 146.592 31.7113 146.501 31.8928 146.34C32.0641 146.168 32.1549 145.957 32.1549 145.705C32.1549 145.18 31.8424 144.928 31.2174 144.928H30.6125Z" fill="#373435"/>
<path d="M36.1926 149.888H34.8418V143.92H36.1926V149.888Z" fill="#373435"/>
<path d="M41.0995 149.888H37.541V143.92H38.8918V148.799H41.0995V149.888Z" fill="#373435"/>
<path d="M47.0757 149.888H45.7249V147.459H43.2551V149.888H41.9043V143.92H43.2551V146.299H45.7249V143.92H47.0757V149.888Z" fill="#373435"/>
<path d="M53.698 149.888H52.2363L51.8028 148.558H49.6859L49.2625 149.888H47.8008L49.9782 143.92H51.5709L53.698 149.888ZM51.5004 147.529L50.8552 145.523C50.8048 145.372 50.7746 145.191 50.7544 144.979H50.7242C50.704 145.16 50.6738 145.332 50.6234 145.503L49.9681 147.529H51.5004Z" fill="#373435"/>
<path d="M54.1728 149.667V148.327C54.4148 148.528 54.6769 148.69 54.9591 148.79C55.2414 148.891 55.5236 148.942 55.816 148.942C55.9873 148.942 56.1385 148.921 56.2595 148.891C56.3906 148.861 56.4914 148.821 56.5821 148.76C56.6627 148.71 56.7232 148.649 56.7635 148.579C56.814 148.498 56.824 148.417 56.824 148.337C56.824 148.216 56.7938 148.115 56.7333 148.024C56.6627 147.934 56.572 147.843 56.4611 147.762C56.3402 147.692 56.2091 147.611 56.0478 147.54C55.8865 147.47 55.7152 147.399 55.5337 147.319C55.07 147.127 54.7172 146.885 54.4853 146.603C54.2635 146.331 54.1426 145.988 54.1426 145.595C54.1426 145.282 54.2031 145.01 54.3341 144.788C54.4551 144.567 54.6264 144.385 54.8381 144.234C55.0599 144.093 55.3119 143.982 55.5942 143.921C55.8764 143.851 56.1789 143.811 56.4914 143.811C56.8039 143.811 57.076 143.831 57.318 143.871C57.5599 143.911 57.7817 143.972 57.9833 144.042V145.292C57.8825 145.222 57.7716 145.161 57.6607 145.111C57.5398 145.061 57.4188 145.01 57.2877 144.98C57.1668 144.94 57.0458 144.919 56.9148 144.899C56.7938 144.879 56.6829 144.879 56.572 144.879C56.4107 144.879 56.2797 144.889 56.1486 144.919C56.0277 144.95 55.9168 144.99 55.8361 145.04C55.7454 145.091 55.6849 145.161 55.6345 145.232C55.5841 145.302 55.5639 145.383 55.5639 145.474C55.5639 145.575 55.5841 145.665 55.6446 145.746C55.695 145.827 55.7656 145.897 55.8664 145.978C55.9672 146.038 56.0781 146.109 56.2192 146.179C56.3603 146.25 56.5216 146.321 56.693 146.391C56.9349 146.492 57.1466 146.603 57.3381 146.714C57.5297 146.825 57.691 146.946 57.822 147.087C57.9631 147.238 58.064 147.399 58.1345 147.581C58.2152 147.762 58.2454 147.974 58.2454 148.216C58.2454 148.548 58.1849 148.821 58.0539 149.052C57.9329 149.274 57.7615 149.466 57.5398 149.607C57.3281 149.738 57.076 149.849 56.7837 149.909C56.5015 149.97 56.199 150 55.8764 150C55.5438 150 55.2313 149.97 54.9389 149.909C54.6466 149.859 54.3845 149.778 54.1728 149.667Z" fill="#373435"/>
<path d="M65.1707 149.888H61.582V143.92H65.0296V145.009H62.9328V146.34H64.8885V147.428H62.9328V148.799H65.1707V149.888Z" fill="#373435"/>
<path d="M73.739 149.888H72.2672L71.8438 148.558H69.7168L69.2934 149.888H67.8418L70.0091 143.92H71.612L73.739 149.888ZM71.5313 147.529L70.8962 145.523C70.8458 145.372 70.8156 145.191 70.7954 144.979H70.7551C70.745 145.16 70.7148 145.332 70.6543 145.503L70.0091 147.529H71.5313Z" fill="#373435"/>
<path d="M78.9723 143.92L76.9159 149.888H75.3836L73.3574 143.92H74.799L76.049 148.074C76.1195 148.295 76.1598 148.497 76.1699 148.668H76.1901C76.2102 148.487 76.2606 148.275 76.3211 148.053L77.5611 143.92H78.9723Z" fill="#373435"/>
<path d="M83.2681 149.888H79.6895V143.92H83.137V145.009H81.0403V146.34H82.9858V147.428H81.0403V148.799H83.2681V149.888Z" fill="#373435"/>
<path d="M89.6077 149.888H88.2468L85.7871 146.138C85.6359 145.916 85.5351 145.755 85.4847 145.644H85.4645C85.4847 145.856 85.5049 146.178 85.5049 146.602V149.888H84.2246V143.92H85.6762L88.0553 147.549C88.1561 147.721 88.2569 147.882 88.3476 148.043H88.3678C88.3476 147.902 88.3375 147.63 88.3375 147.217V143.92H89.6077V149.888Z" fill="#373435"/>
<path d="M95.1741 145.009H93.4705V149.888H92.1196V145.009H90.416V143.92H95.1741V145.009Z" fill="#373435"/>
<path d="M100.848 147.308C100.848 149.102 100.011 149.999 98.3376 149.999C96.7147 149.999 95.9082 149.122 95.9082 147.368V143.92H97.2489V147.378C97.2489 148.346 97.632 148.83 98.388 148.83C99.1239 148.83 99.4969 148.366 99.4969 147.428V143.92H100.848V147.308Z" fill="#373435"/>
<path d="M107.159 149.888H105.616L104.689 148.356C104.618 148.235 104.548 148.134 104.487 148.043C104.417 147.953 104.356 147.872 104.296 147.801C104.225 147.741 104.154 147.691 104.084 147.65C104.013 147.62 103.943 147.6 103.852 147.6H103.489V149.888H102.148V143.92H104.275C105.727 143.92 106.453 144.455 106.453 145.543C106.453 145.745 106.423 145.937 106.362 146.118C106.292 146.289 106.201 146.451 106.09 146.592C105.969 146.733 105.828 146.854 105.667 146.965C105.495 147.066 105.314 147.146 105.112 147.207V147.217C105.203 147.247 105.284 147.297 105.374 147.358C105.455 147.418 105.536 147.489 105.616 147.57C105.697 147.66 105.767 147.751 105.838 147.842C105.909 147.943 105.969 148.033 106.029 148.124L107.159 149.888ZM103.489 144.928V146.592H104.074C104.366 146.592 104.598 146.501 104.769 146.34C104.951 146.168 105.042 145.957 105.042 145.705C105.042 145.18 104.729 144.928 104.104 144.928H103.489Z" fill="#373435"/>
<path d="M112.973 149.888H111.502L111.078 148.558H108.951L108.538 149.888H107.076L109.254 143.92H110.846L112.973 149.888ZM110.776 147.529L110.131 145.523C110.08 145.372 110.05 145.191 110.03 144.979H110C109.979 145.16 109.949 145.332 109.889 145.503L109.244 147.529H110.776Z" fill="#373435"/>
<path d="M113.446 149.667V148.327C113.688 148.528 113.95 148.69 114.233 148.79C114.515 148.891 114.797 148.942 115.089 148.942C115.261 148.942 115.402 148.921 115.533 148.891C115.654 148.861 115.765 148.821 115.845 148.76C115.936 148.71 115.997 148.649 116.037 148.579C116.077 148.498 116.097 148.417 116.097 148.337C116.097 148.216 116.067 148.115 115.997 148.024C115.936 147.934 115.845 147.843 115.724 147.762C115.614 147.692 115.472 147.611 115.321 147.54C115.16 147.47 114.989 147.399 114.807 147.319C114.333 147.127 113.991 146.885 113.759 146.603C113.527 146.331 113.416 145.988 113.416 145.595C113.416 145.282 113.476 145.01 113.608 144.788C113.729 144.567 113.9 144.385 114.112 144.234C114.333 144.093 114.575 143.982 114.868 143.921C115.15 143.851 115.442 143.811 115.765 143.811C116.077 143.811 116.349 143.831 116.591 143.871C116.833 143.911 117.055 143.972 117.257 144.042V145.292C117.156 145.222 117.045 145.161 116.924 145.111C116.813 145.061 116.692 145.01 116.561 144.98C116.44 144.94 116.309 144.919 116.188 144.899C116.067 144.879 115.946 144.879 115.835 144.879C115.684 144.879 115.543 144.889 115.422 144.919C115.301 144.95 115.19 144.99 115.11 145.04C115.019 145.091 114.948 145.161 114.908 145.232C114.858 145.302 114.837 145.383 114.837 145.474C114.837 145.575 114.858 145.665 114.918 145.746C114.968 145.827 115.039 145.897 115.14 145.978C115.241 146.038 115.352 146.109 115.493 146.179C115.634 146.25 115.785 146.321 115.966 146.391C116.198 146.492 116.42 146.603 116.612 146.714C116.793 146.825 116.964 146.946 117.095 147.087C117.237 147.238 117.337 147.399 117.408 147.581C117.479 147.762 117.519 147.974 117.519 148.216C117.519 148.548 117.458 148.821 117.327 149.052C117.206 149.274 117.035 149.466 116.813 149.607C116.602 149.738 116.349 149.849 116.057 149.909C115.765 149.97 115.462 150 115.15 150C114.817 150 114.505 149.97 114.212 149.909C113.92 149.859 113.658 149.778 113.446 149.667Z" fill="#373435"/>
</svg>
