<svg width="57" height="27" viewBox="0 0 57 27" fill="none" xmlns="http://www.w3.org/2000/svg">
<path d="M7.84234 0L5.6684 12.3834L5.14077 15.5722L4.61602 12.5708L2.40172 0L2.13934 0.0374818H0V26.416H2.40172V13.9576L3.90387 22.5525H6.34307L7.87982 13.7702V26.4535H10.2815V0.0374818H8.14508L7.84234 0Z" fill="#2C3312"/>
<path d="M21.1253 0.0751953H16.6621H14.7852V26.4537H17.1869H21.1253V24.052H17.1869V14.3702H20.3757V11.9713H17.1869V2.47691H21.1253V0.0751953Z" fill="#2C3312"/>
<path d="M31.7076 0.0751953H25.627V26.4537H28.0287V14.5605H30.6928V26.4537H33.132V14.4855L31.8951 13.2832L33.132 12.0463V1.4649L31.7076 0.0751953ZM30.6928 2.47691V12.0838H28.0287V2.47691H30.6928Z" fill="#2C3312"/>
<path d="M39.0591 0.0751953L37.6348 1.4649V25.0669L39.0591 26.4537H43.6376L45.0648 25.0669V14.4076H41.2359V16.8094H42.6256V24.052H40.0365V2.47691H42.6256V7.5802H45.0648V1.4649L43.6376 0.0751953H39.0591Z" fill="#2C3312"/>
<path d="M57.0004 0.0751953H54.5612V24.052H51.972V0.0751953H49.5703V25.0669L50.9975 26.4537H55.576L57.0004 25.0669V0.0751953Z" fill="#2C3312"/>
</svg>
