<svg width="50" height="58" viewBox="0 0 50 58" fill="none" xmlns="http://www.w3.org/2000/svg">
<path fill-rule="evenodd" clip-rule="evenodd" d="M25.8908 55.6838C20.6373 55.6838 18.6619 55.1186 14.2804 53.0893C12.5956 52.3142 10.0765 50.2957 8.67162 48.8908C7.68659 47.9058 6.97608 47.0176 6.14715 45.8927L4.58079 43.2875C3.68189 41.2797 3.25127 40.6446 2.64841 38.2385C0.716033 30.5359 3.00905 22.1389 8.6178 16.541C10.0119 15.1468 12.4718 13.1606 14.135 12.3694C14.5172 12.1864 14.7594 12.1056 15.1416 11.9119C22.8227 8.04171 32.646 9.31202 39.3152 14.6409C42.8947 17.4991 45.4245 21.1055 46.8671 25.46C48.4496 30.2237 48.4496 35.1542 46.8671 39.9179C46.7379 40.3108 46.6356 40.5369 46.501 40.9029C46.3719 41.2743 46.2911 41.5865 46.1027 41.9741C45.1769 43.8849 43.7774 46.4309 42.2649 47.9381C41.479 48.7132 41.6405 48.7401 40.8654 49.3537C40.5693 49.5852 40.3971 49.8113 40.1226 50.0804C39.0514 51.1139 36.3493 52.7771 35.0198 53.4338C32.8129 54.5211 29.1688 55.6838 25.8908 55.6838ZM24.5451 0H25.4171C27.0535 0.150715 28.6306 1.14113 29.4595 2.96585C29.9655 4.08007 29.9493 5.58183 29.4272 6.69605C29.1419 7.28276 28.7974 7.67031 28.7059 8.00403C29.481 8.00403 30.5414 8.28393 31.1873 8.45618C34.1801 9.25281 35.5904 9.91488 38.2117 11.4651C39.5305 12.2456 40.0149 12.66 41.1399 13.6074C42.4264 14.6947 42.4156 14.7862 43.6159 15.9758C45.2684 17.6229 47.147 20.8471 48.0297 22.9463C51.3616 30.9019 50.4627 40.3216 45.3707 47.2114L42.5878 50.5164C39.5251 53.0624 39.3098 53.6168 35.2836 55.4954C32.3554 56.8626 28.8943 57.643 25.4225 57.713H24.4052C22.6504 57.6753 20.9011 57.4547 19.2378 57.0348C13.0477 55.4738 8.24101 52.2119 4.52158 47.0715C0.581466 41.6242 -0.83956 34.406 0.479195 27.7961C0.726798 26.5635 1.32427 24.4427 1.80333 23.3716C3.50964 19.5768 5.83495 15.8466 9.20451 13.3006C11.8043 11.3359 13.3438 10.3024 16.6326 9.11825C17.5154 8.80067 20.1636 8.00403 21.2671 8.00403C21.0894 7.23431 20.5781 7.37964 20.2659 5.62489C19.9483 3.84323 20.6588 2.04003 22.1014 0.94735C22.8334 0.398318 23.6785 0.0807401 24.5451 0ZM22.1714 4.96282C22.1714 0.882758 27.807 1.29184 27.807 4.51068V5.07586C27.807 6.48074 26.4237 7.66493 24.9865 7.66493C23.5332 7.66493 22.1714 6.4 22.1714 4.96282Z" fill="#262624"/>
<path fill-rule="evenodd" clip-rule="evenodd" d="M17.079 40.488L22.8762 30.5785C23.1184 30.304 27.333 27.9786 27.7852 27.7095L31.5207 25.5833C31.9998 25.3034 32.382 25.1151 32.8933 24.8944L27.1392 34.8415L17.079 40.488ZM23.9742 27.3919C23.9742 27.7849 22.3971 28.49 22.2841 28.5169L14.0809 20.3783C13.7256 20.895 12.972 21.2772 12.8159 21.8693L20.8469 29.9541C20.7123 30.4224 20.1418 31.2513 19.9157 31.6765L10.5552 31.6711C9.37642 31.6496 9.54328 31.4505 9.54328 33.3667C9.54328 33.8027 9.90392 33.7166 10.3238 33.7112L18.6777 33.7058C18.57 34.1526 17.698 35.5736 17.4127 36.0473C17.0144 36.7093 13.4888 42.641 13.4888 43.1739C13.4888 44.132 14.167 44.3366 14.6461 44.2235L19.9211 41.2631C20.384 40.9939 20.82 40.7732 21.2883 40.488L23.9742 39.0023V49.0357H26.0035V37.985C26.0035 37.6298 26.4233 37.5598 26.7409 37.3768C27.1016 37.1669 27.3492 37.0431 27.6937 36.86L35.8376 44.9448L37.3017 43.5399L29.1308 35.4229C29.4484 34.8631 29.9221 33.7058 30.2827 33.7058H40.4291V31.6765H31.3C31.3862 31.3536 31.7414 30.8207 31.9298 30.4977C32.1936 30.051 32.3658 29.7226 32.6188 29.2759C33.1086 28.3931 36.5966 22.5206 36.5966 22.0954C36.5966 21.6217 36.0529 21.078 35.5846 21.078C35.0518 21.078 26.6333 26.2293 26.0035 26.38V16.3467H23.9742V27.3919Z" fill="#262624"/>
<path fill-rule="evenodd" clip-rule="evenodd" d="M43.2463 32.6886C43.2463 33.8997 43.0256 35.7137 42.7726 36.7256C41.8898 40.2567 40.4365 42.9911 37.8636 45.5694C37.4653 45.9677 37.1423 46.3391 36.7063 46.6674C31.4151 50.6722 23.6964 52.2816 17.5063 49.2996C14.1045 47.6579 12.2959 46.0646 10.0567 43.1095C6.43954 38.3297 5.78824 30.5517 8.37731 25.2121C9.35157 23.1936 10.5304 21.385 12.1075 19.8133C15.0949 16.8259 19.5517 14.6459 23.8579 14.5437C29.3536 14.4145 33.8804 15.8301 37.8636 19.8133C38.9455 20.8952 39.0101 21.0029 39.9467 22.2355C40.4527 22.9137 41.2547 24.3778 41.6315 25.1744C41.8737 25.6912 42.0459 26.2671 42.2451 26.8108C42.8372 28.3825 43.2463 30.9016 43.2463 32.6886ZM4.80859 32.1235C4.80859 34.1958 4.87857 35.4822 5.37377 37.4254C6.19194 40.6604 7.36536 42.9265 9.36234 45.494L11.1225 47.3403C11.397 47.5556 11.5046 47.674 11.7684 47.9378C14.266 50.473 20.1761 52.8683 23.9709 52.8683C27.7226 52.8683 30.5109 52.5399 33.7405 50.9144C36.0765 49.7356 37.686 48.5568 39.4407 46.8074C41.2654 44.9827 42.2989 43.2494 43.4347 40.9941C43.7146 40.4397 43.9191 39.7669 44.129 39.2124C44.6188 37.9206 44.8611 36.5373 45.0548 35.1754C45.5393 31.7574 44.9526 27.9357 43.6177 24.7653C41.8091 20.47 38.2511 16.7129 34.1119 14.6567C33.0138 14.1077 31.7758 13.564 30.5539 13.2572C29.8488 13.0796 29.2782 12.9073 28.5462 12.7835C25.4296 12.2775 22.8136 12.4121 19.7778 13.1657C18.3568 13.5209 17.4794 13.9677 16.2414 14.4791C13.9322 15.4264 11.1548 17.7733 9.46461 19.7595C6.73021 22.9675 4.80859 27.8927 4.80859 32.1235Z" fill="#262624"/>
<path fill-rule="evenodd" clip-rule="evenodd" d="M23.9711 32.0156C23.9711 34.0879 23.5621 33.7057 26.0004 33.7057V31.6764C24.6601 31.6764 23.9711 31.4827 23.9711 32.0156Z" fill="#262624"/>
</svg>
