<svg width="55" height="45" viewBox="0 0 55 45" fill="none" xmlns="http://www.w3.org/2000/svg">
<path fill-rule="evenodd" clip-rule="evenodd" d="M8.37848 25.8905C9.70182 25.8905 11.0292 25.8905 12.3526 25.8905C15.6122 25.8905 15.1941 26.2477 17.378 22.9677C17.7028 22.4806 18.9003 20.9381 19.014 20.52H19.2291C19.3631 21.0923 23.5117 28.7117 24.2749 30.2949C24.5103 30.7779 24.7539 31.261 25.4561 31.261C26.4791 31.261 27.1164 29.1298 27.7497 27.8593L30.9728 21.0923C31.4071 20.2155 33.1648 16.692 33.2988 16.1156H33.5139C33.6032 16.5012 33.7818 16.761 33.9442 17.0817L37.2039 23.8121C38.2755 25.9514 37.7113 25.8905 40.8207 25.8905C42.753 25.8905 44.6852 25.8905 46.6175 25.8905L45.2495 27.7456C45.0181 28.0054 44.9572 28.1312 44.7136 28.387C44.3239 28.7929 44.1047 29.1055 43.6907 29.5155C42.8545 30.3476 42.4566 31.0052 41.5068 31.7359L39.1442 33.8833C37.9995 34.7764 36.9359 35.7831 35.4786 36.875C35.0402 37.2079 34.6789 37.4758 34.2527 37.7965C32.9294 38.7911 30.3395 40.6218 28.9675 41.4296L27.6076 42.3267C27.1286 42.071 26.7511 41.8031 26.2721 41.5108C25.7484 41.1901 25.3912 40.9547 24.9 40.6259C22.8825 39.2822 19.018 36.5584 17.1629 34.9387C16.7854 34.6059 16.3754 34.2284 16.006 33.9442L12.4865 30.6967C11.1835 29.3937 9.40955 27.429 8.37848 25.8905ZM25.4561 27.6076C25.1639 27.3924 23.8852 24.7863 23.6335 24.2789L21.8108 20.8366C20.6539 18.8475 19.8908 15.3808 17.9179 18.3482L14.2848 23.6335H6.87652C6.68979 22.8378 4.61953 19.9638 4.61953 16.3307C4.61953 12.109 6.13772 8.90619 8.08621 6.58425C9.81548 4.53428 13.2537 2.25699 16.9721 2.25699C20.0816 2.25699 22.1762 2.78471 24.5062 4.49775L26.3776 6.1702C27.7578 7.99284 28.4316 6.03218 30.3679 4.59111C30.7576 4.29884 31.058 4.10805 31.468 3.86449C34.8373 1.84294 39.8302 1.66433 43.2036 3.63311C44.6771 4.48963 45.7244 5.24061 46.861 6.52742L48.225 8.3866C48.6634 9.14163 48.9678 9.75054 49.321 10.6192C50.8798 14.4634 50.6687 18.2711 48.9475 21.9854C48.7446 22.4238 48.2168 23.2884 48.1235 23.6335H39.5299C39.3878 23.0327 38.446 21.3765 38.1334 20.7351L34.6059 13.4121C34.3907 12.8884 34.1147 12.3566 33.4084 12.3566C32.491 12.3566 32.3245 13.2334 32.012 13.8586L26.3776 25.6307C26.1219 26.2558 25.5941 27.0311 25.4561 27.6076ZM2.47214 15.255C2.47214 17.5242 2.39907 18.3401 3.15411 20.5849L4.40438 23.6335C3.78736 23.6335 1.08384 23.5442 0.633257 23.7309C0.0365341 23.9785 0 24.4007 0 24.8147C0 25.8864 1.16503 25.8905 2.25699 25.8905C3.40173 25.8864 4.54646 25.8905 5.6912 25.8905C6.47871 27.0596 7.9766 29.1217 8.94273 30.1609C9.9738 31.2772 11.7315 33.2135 12.7382 33.9929L18.2264 38.6003L22.6024 41.7463C23.3656 42.2537 26.9662 44.6893 27.3924 44.6893C28.1962 44.6893 30.0026 43.4146 30.7008 42.9478C31.7197 42.2618 32.7386 41.6326 33.7128 40.91L35.8927 39.3309C36.1565 39.132 36.392 38.994 36.6437 38.7951L40.1469 35.9617C43.0128 33.2298 44.3442 32.4991 47.1574 28.8984C47.8596 27.9932 48.7567 26.9215 49.3047 25.8905C50.4129 25.8905 51.5252 25.8864 52.6334 25.8905C54.4114 25.8905 55 25.8215 55 24.4941C55 23.6741 53.8796 23.6294 53.2788 23.6335C52.3858 23.6416 51.4887 23.6335 50.5956 23.6335C53.1327 18.8353 53.1205 14.0128 51.0706 9.0848C50.1207 6.80345 48.7364 5.22843 47.0762 3.62499C44.7623 1.38829 40.7558 0 37.3825 0C35.3528 0 33.0511 0.580486 31.6507 1.25434C28.8497 2.60204 28.801 3.21094 27.498 4.0837C26.0772 3.12975 26.1422 2.59798 23.3453 1.25434C18.4822 -1.0879 11.7071 0.101484 7.97254 3.57222C5.44763 5.92258 3.83202 8.43531 2.96332 11.8817C2.70352 12.9168 2.47214 14.021 2.47214 15.255Z" fill="#262624"/>
</svg>
