<svg width="79" height="55" viewBox="0 0 79 55" fill="none" xmlns="http://www.w3.org/2000/svg">
<path fill-rule="evenodd" clip-rule="evenodd" d="M33.9308 31.1583C33.9308 33.9254 41.9421 33.9373 37.5011 38.3386C36.0181 39.8056 34.2648 41.5391 33.4299 43.4435C33.2192 43.9325 33.084 44.4136 32.8772 44.843H17.3875C15.503 44.843 13.3242 44.3579 13.3242 46.1948C13.3242 47.2801 14.346 47.5505 15.4314 47.5505H32.5751C32.5751 49.2641 33.6605 54.3173 35.1315 54.3173C35.5927 54.3173 36.042 54.3292 36.36 54.043C37.6402 52.898 35.1315 50.6119 35.1315 47.5505C35.1315 43.4992 38.4275 41.6703 40.2245 39.257C43.5841 34.7564 40.0098 33.2297 39.0437 31.9097C41.6995 32.1284 44.4071 32.6889 46.5023 34.0725C48.363 35.2971 48.0251 36.3308 47.3134 38.2233C45.9815 41.7697 48.0887 44.3858 50.665 46.3021C52.5376 47.6976 54.6408 48.9778 56.8513 49.8923C58.6206 50.6238 67.9001 54.4605 69.2519 54.377C69.9158 54.3372 70.4725 53.717 70.4725 53.1127C70.4725 51.5184 67.7053 51.2798 65.0375 50.2779C64.4809 50.0712 64.0475 49.9638 63.4671 49.7412L58.9545 47.9401C56.5969 46.9541 54.1995 45.7654 52.1877 44.179L51.0347 43.2288C47.3452 39.8613 52.0486 38.0404 50.1243 34.2077C49.5756 33.1144 48.8361 32.3788 47.7984 31.7268C47.2418 31.3769 46.6812 31.1344 46.1127 30.8521C44.419 30.0132 40.5545 29.2022 37.9901 29.2022L44.3116 19.2825C44.9557 18.2091 45.8225 17.0799 46.4109 15.9667C47.0828 16.416 47.4406 17.0521 48.1483 17.5372C49.7267 18.6225 52.1003 18.5788 53.6548 17.4974C54.4221 16.9646 54.8118 16.2689 56.0363 16.2689C57.4596 16.2689 57.8016 17.3423 58.9545 17.8632C61.9404 19.211 62.6481 16.3404 60.6999 15.6645C59.7497 15.3385 59.9843 15.3982 59.3004 14.8097C57.5869 13.3268 55.1616 13.2473 53.2771 14.4122C52.2235 15.0602 51.158 16.6903 49.1423 14.8893C48.9991 14.762 48.9554 14.7342 48.8162 14.6149L47.9137 13.7124C48.7924 12.0545 50.2754 9.85192 51.3448 8.26955L53.0584 5.62166C53.6707 4.63964 54.2074 3.63774 55.5831 3.63774C56.414 3.63774 57.1615 4.03134 57.5829 4.49651C58.0043 4.96168 58.4059 5.58986 58.8074 6.12659L73.8042 26.1726C74.2336 26.7491 74.5874 27.2143 75.0287 27.8067C76.949 30.3909 77.9947 28.8284 77.9947 27.5482C77.9947 27.2262 77.0087 26.0334 76.79 25.7432C74.3846 22.5347 60.1234 3.14076 59.1533 2.32572C57.9725 1.33575 56.4259 0.703594 54.442 1.14093C51.5436 1.78104 49.9732 5.59781 48.4862 7.81631L41.7473 18.3721C41.5167 18.718 41.3576 19.0241 41.1191 19.3978L36.1931 27.1029C35.6881 27.9498 33.9308 30.2756 33.9308 31.1583Z" fill="#262624" stroke="#262624" stroke-width="0.130396"/>
<path fill-rule="evenodd" clip-rule="evenodd" d="M33.9308 31.1583C33.9308 33.9254 41.9421 33.9373 37.5011 38.3386C36.0181 39.8056 34.2648 41.5391 33.4299 43.4435C33.2192 43.9325 33.084 44.4136 32.8772 44.843H17.3875C15.503 44.843 13.3242 44.3579 13.3242 46.1948C13.3242 47.2801 14.346 47.5505 15.4314 47.5505H32.5751C32.5751 49.2641 33.6605 54.3173 35.1315 54.3173C35.5927 54.3173 36.042 54.3292 36.36 54.043C37.6402 52.898 35.1315 50.6119 35.1315 47.5505C35.1315 43.4992 38.4275 41.6703 40.2245 39.257C43.5841 34.7564 40.0098 33.2297 39.0437 31.9097C41.6995 32.1284 44.4071 32.6889 46.5023 34.0725C48.363 35.2971 48.0251 36.3308 47.3134 38.2233C45.9815 41.7697 48.0887 44.3858 50.665 46.3021C52.5376 47.6976 54.6408 48.9778 56.8513 49.8923C58.6206 50.6238 67.9001 54.4605 69.2519 54.377C69.9158 54.3372 70.4725 53.717 70.4725 53.1127C70.4725 51.5184 67.7053 51.2798 65.0375 50.2779C64.4809 50.0712 64.0475 49.9638 63.4671 49.7412L58.9545 47.9401C56.5969 46.9541 54.1995 45.7654 52.1877 44.179L51.0347 43.2288C47.3452 39.8613 52.0486 38.0404 50.1243 34.2077C49.5756 33.1144 48.8361 32.3788 47.7984 31.7268C47.2418 31.3769 46.6812 31.1344 46.1127 30.8521C44.419 30.0132 40.5545 29.2022 37.9901 29.2022L44.3116 19.2825C44.9557 18.2091 45.8225 17.0799 46.4109 15.9667C47.0828 16.416 47.4406 17.0521 48.1483 17.5372C49.7267 18.6225 52.1003 18.5788 53.6548 17.4974C54.4221 16.9646 54.8118 16.2689 56.0363 16.2689C57.4596 16.2689 57.8016 17.3423 58.9545 17.8632C61.9404 19.211 62.6481 16.3404 60.6999 15.6645C59.7497 15.3385 59.9843 15.3982 59.3004 14.8097C57.5869 13.3268 55.1616 13.2473 53.2771 14.4122C52.2235 15.0602 51.158 16.6903 49.1423 14.8893C48.9991 14.762 48.9554 14.7342 48.8162 14.6149L47.9137 13.7124C48.7924 12.0545 50.2754 9.85192 51.3448 8.26955L53.0584 5.62166C53.6707 4.63964 54.2074 3.63774 55.5831 3.63774C56.414 3.63774 57.1615 4.03134 57.5829 4.49651C58.0043 4.96168 58.4059 5.58986 58.8074 6.12659L73.8042 26.1726C74.2336 26.7491 74.5874 27.2143 75.0287 27.8067C76.949 30.3909 77.9947 28.8284 77.9947 27.5482C77.9947 27.2262 77.0087 26.0334 76.79 25.7432C74.3846 22.5347 60.1234 3.14076 59.1533 2.32572C57.9725 1.33575 56.4259 0.703594 54.442 1.14093C51.5436 1.78104 49.9732 5.59781 48.4862 7.81631L41.7473 18.3721C41.5167 18.718 41.3576 19.0241 41.1191 19.3978L36.1931 27.1029C35.6881 27.9498 33.9308 30.2756 33.9308 31.1583Z" fill="#262624"/>
<path fill-rule="evenodd" clip-rule="evenodd" d="M1 46.0439C1 47.0895 2.29214 48.4811 3.91824 46.1075C6.03337 43.0104 10.4664 37.1699 12.9871 33.8223C14.7642 31.4567 16.4102 29.2024 18.1874 26.8408L22.0718 21.5529C23.3361 19.8195 25.2365 19.895 26.632 21.7676C27.948 23.5329 27.8685 23.7873 29.1209 23.7873C29.5622 23.7873 30.1745 23.0399 30.1745 22.5867C30.1745 21.8193 28.5841 19.8712 28.0355 19.3106C25.6619 16.8814 22.3063 17.104 20.064 19.8433C18.0085 22.3521 13.7981 28.3277 11.8062 30.9836L2.20069 43.9407C1.87865 44.3701 1 45.4038 1 46.0439Z" fill="#262624" stroke="#262624" stroke-width="0.130396"/>
<path fill-rule="evenodd" clip-rule="evenodd" d="M1 46.0439C1 47.0895 2.29214 48.4811 3.91824 46.1075C6.03337 43.0104 10.4664 37.1699 12.9871 33.8223C14.7642 31.4567 16.4102 29.2024 18.1874 26.8408L22.0718 21.5529C23.3361 19.8195 25.2365 19.895 26.632 21.7676C27.948 23.5329 27.8685 23.7873 29.1209 23.7873C29.5622 23.7873 30.1745 23.0399 30.1745 22.5867C30.1745 21.8193 28.5841 19.8712 28.0355 19.3106C25.6619 16.8814 22.3063 17.104 20.064 19.8433C18.0085 22.3521 13.7981 28.3277 11.8062 30.9836L2.20069 43.9407C1.87865 44.3701 1 45.4038 1 46.0439Z" fill="#262624"/>
<path fill-rule="evenodd" clip-rule="evenodd" d="M66.2689 47.5503H75.8943C77.2461 47.5503 77.8623 47.0016 78.0015 46.4013V45.8606C77.8822 45.3119 77.4131 44.8428 76.7968 44.8428H65.5175C64.6985 44.8428 64.0345 45.5982 64.2412 46.4092C64.4639 47.2919 65.2312 47.5503 66.2689 47.5503Z" fill="#262624" stroke="#262624" stroke-width="0.130396"/>
<path fill-rule="evenodd" clip-rule="evenodd" d="M66.2689 47.5503H75.8943C77.2461 47.5503 77.8623 47.0016 78.0015 46.4013V45.8606C77.8822 45.3119 77.4131 44.8428 76.7968 44.8428H65.5175C64.6985 44.8428 64.0345 45.5982 64.2412 46.4092C64.4639 47.2919 65.2312 47.5503 66.2689 47.5503Z" fill="#262624"/>
</svg>
