<svg width="63" height="62" viewBox="0 0 63 62" fill="none" xmlns="http://www.w3.org/2000/svg">
<path fill-rule="evenodd" clip-rule="evenodd" d="M37.9593 27.0381C39.0961 27.8721 39.2554 30.1297 41.1943 30.1297H48.9234V58.8095H44.0044C44.3444 58.1668 44.7056 57.3965 44.7056 56.4191V44.892C44.7056 43.7658 44.4188 42.9371 43.9991 42.2253C43.4573 41.2904 41.6512 39.3833 40.9128 38.4272L36.5782 33.3276C36.3444 32.9345 36.3657 33.2107 36.4772 32.6105C36.6632 31.6702 37.0244 30.7353 37.2581 29.8535C37.4387 29.1576 37.9434 27.7021 37.9593 27.0381ZM35.2873 6.93728C35.2873 0.860288 44.286 0.775295 44.286 6.93728C44.286 11.0488 39.0908 12.669 36.5835 10.0023C35.9726 9.34896 35.2873 8.13781 35.2873 6.93728ZM31.4414 11.5747L31.4945 18.7991C32.0948 18.0023 32.3657 13.4286 35.776 14.1776C37.4653 14.5495 38.772 17.1311 40.1479 18.9479L44.0044 24.228C44.3603 24.7167 44.5463 25.1045 45.2793 25.2001C46.7933 25.3967 51.1916 24.823 52.0522 25.4551C52.8224 26.0182 53.0084 27.7499 50.8995 27.7499H41.7627C41.0722 27.6756 41.1359 27.4365 40.6047 26.645L35.8132 19.904C34.8783 19.1338 33.2209 20.1324 34.2409 21.6198C36.7216 25.2267 36.5304 23.8615 35.3776 27.8349L33.8956 33.2373C33.869 33.9119 34.3524 34.2838 34.6818 34.6715L39.8929 40.8495C43.1067 44.451 42.4586 43.9252 42.4586 49.9543C42.4586 51.4523 42.4586 52.9503 42.4586 54.4483C42.4586 56.1907 42.4852 57.2903 41.5131 58.1455C40.5569 58.9848 39.1545 58.9636 38.1505 58.1933C37.0563 57.3594 37.2581 56.2438 37.2581 54.4483L37.2528 47.702C37.1678 46.5281 35.4255 44.8016 34.4002 43.5321C34.0284 43.0699 33.7734 42.7512 33.4016 42.2837C33.0297 41.811 32.7375 41.4125 32.3338 41.0354C32.1373 40.9238 32.0895 40.977 32.1373 40.9557C32.1373 41.5507 31.9885 43.957 32.2754 44.4404C32.2913 44.467 32.3285 44.5095 32.3445 44.5254C32.3551 44.5467 32.3923 44.5839 32.4188 44.6104C32.7854 45.8375 34.873 46.8946 34.8783 48.536L34.8677 55.1548C34.8624 56.8972 34.9686 57.6781 35.5689 58.8095H32.5516V60.9184C32.8013 61.0194 32.7322 60.9291 32.9182 60.9928L33.2634 61.1362C33.3006 61.1469 33.3537 61.1681 33.3909 61.1947L60.7321 61.2C61.6564 61.2053 62.432 61.1893 62.7985 60.5891C63.2978 59.7817 62.7932 58.9689 62.1079 58.8361L51.1704 58.8095L51.3138 55.4364C51.3138 54.0765 51.1651 53.1256 51.1704 51.9198V37.301C51.1704 34.7459 51.3138 32.5627 51.3138 30.1297C52.3922 29.8801 53.0562 29.7526 53.7786 29.0833C55.9247 27.1019 54.8251 22.9053 51.1704 22.8203L51.1226 17.673C50.9845 17.2108 48.9075 15.5853 48.9234 19.3091C48.9287 20.4777 48.9234 21.6517 48.9234 22.8203H45.8318L40.8703 15.9731C40.27 15.1657 39.7707 14.5017 39.2236 13.6836C43.0908 13.6836 45.9752 11.596 46.5011 8.03157C47.1279 3.76598 44.4506 0.807167 41.3537 0.16972C34.3259 -1.26454 30.8358 6.74074 34.4268 11.0382C35.4998 12.329 35.2289 11.0966 32.1957 12.7009C32.0523 12.1697 31.7495 11.9253 31.4414 11.5747Z" fill="#262624"/>
<path fill-rule="evenodd" clip-rule="evenodd" d="M19.124 57.6838C17.9075 57.6838 17.0257 56.871 16.7601 55.9627C16.282 54.3319 17.4932 53.3226 18.4228 51.9202L23.4267 44.6958C23.7508 44.223 23.9792 43.9256 24.2979 43.4581C24.6645 42.9163 24.7441 42.8631 24.9194 42.1141L25.6737 38.6454C25.7959 38.0026 25.9978 37.482 26.0137 36.8818C26.3378 37.0943 26.7362 37.6733 26.9964 38.0026L29.9818 41.7689C30.2262 42.3213 29.8118 45.0942 29.61 45.6785C29.3709 46.3691 26.4068 49.9866 25.7481 50.8153L21.5516 56.1539C20.9301 56.9242 20.3723 57.6838 19.124 57.6838ZM22.7787 32.239C22.205 32.239 17.2116 30.502 16.5689 30.1567C14.7203 29.1793 15.6924 26.9163 16.2714 25.4502L18.9859 17.6202C19.5755 17.6734 25.0097 19.6494 25.8862 20.0107L28.2607 20.8553L25.0682 30.3161C24.6645 31.3732 24.1704 32.239 22.7787 32.239ZM29.1053 18.7464L24.4838 17.0412C23.7933 16.8128 22.9115 16.4941 22.2156 16.2179L19.8252 15.3732C20.0217 14.5233 20.6751 12.5685 21.0469 11.8142C21.3391 11.2192 21.8066 10.943 22.4068 10.7518C23.5755 10.3799 26.3324 11.6495 27.9261 12.1913C32.1438 13.6203 29.8225 15.676 29.1053 18.7464ZM12.4414 58.8099L12.4467 61.1951H33.3922C33.355 61.1685 33.3019 61.1473 33.2647 61.1366L32.9194 60.9932C32.7335 60.9295 32.8025 61.0198 32.5529 60.9188V58.8099H22.359L27.7189 52.0796C28.4785 51.1287 31.2089 47.7662 31.5754 46.9428C32.1545 45.6573 32.0057 45.0252 32.4201 44.6108C32.3935 44.5843 32.3563 44.5471 32.3457 44.5258C32.3298 44.5099 32.2926 44.4674 32.2766 44.4408C31.9898 43.9574 32.1385 41.5511 32.1385 40.9561C32.0907 40.9774 32.1385 40.9242 32.3351 41.0358L28.8238 36.6002C27.4958 34.8951 26.3696 33.753 27.363 30.7782L30.4599 21.9283C30.6511 21.3706 30.7733 20.9828 30.9486 20.4516C31.108 19.9629 31.4001 19.3095 31.4958 18.7995L31.4426 11.5751C30.6724 10.4755 27.8942 9.69465 26.4174 9.20594C24.351 8.52069 22.6831 7.67076 20.5529 9.06783C18.8106 10.2152 18.6246 11.7185 17.881 13.7053C17.5304 14.6296 17.3232 15.4954 16.9567 16.4357L14.0828 24.6693C13.3976 26.7145 12.5158 28.2656 13.7375 30.4595C14.8743 32.5099 17.1745 32.9083 19.703 33.7689C21.6844 34.4435 22.1997 34.8101 24.1864 34.3479L22.6618 41.6786L16.2289 50.9906C15.8836 51.5112 15.634 51.814 15.2993 52.3133C13.7322 54.6294 14.0828 57.0888 15.8889 58.8099H12.4414Z" fill="#262624"/>
<path fill-rule="evenodd" clip-rule="evenodd" d="M12.4462 61.1939L12.4408 58.8088H2.25762C1.03585 58.8034 0 58.7025 0 59.9296C0.00531206 61.6879 3.12349 61.1939 5.48736 61.1939C7.80873 61.1939 10.1301 61.1939 12.4462 61.1939Z" fill="#262624"/>
</svg>
