<svg width="23" height="23" viewBox="0 0 23 23" fill="none" xmlns="http://www.w3.org/2000/svg">
<path d="M11.5 0C8.37581 0 7.98582 0.014375 6.75913 0.069C5.53438 0.1265 4.70062 0.319125 3.9675 0.60375C3.21137 0.897 2.56929 1.29087 1.93008 1.93008C1.29087 2.56929 0.896044 3.21042 0.60375 3.9675C0.319125 4.70062 0.125542 5.53438 0.069 6.75913C0.0115 7.98582 0 8.37581 0 11.5C0 14.6242 0.014375 15.0142 0.069 16.2409C0.1265 17.4647 0.319125 18.2994 0.60375 19.0325C0.897 19.7877 1.29087 20.4307 1.93008 21.0699C2.56929 21.7082 3.21042 22.1039 3.9675 22.3962C4.70158 22.6799 5.53533 22.8744 6.75913 22.931C7.98582 22.9885 8.37581 23 11.5 23C14.6242 23 15.0142 22.9856 16.2409 22.931C17.4647 22.8735 18.2994 22.6799 19.0325 22.3962C19.7877 22.103 20.4307 21.7082 21.0699 21.0699C21.7082 20.4307 22.1039 19.7906 22.3962 19.0325C22.6799 18.2994 22.8744 17.4647 22.931 16.2409C22.9885 15.0142 23 14.6242 23 11.5C23 8.37581 22.9856 7.98582 22.931 6.75913C22.8735 5.53533 22.6799 4.69967 22.3962 3.9675C22.103 3.21137 21.7082 2.56929 21.0699 1.93008C20.4307 1.29087 19.7906 0.896044 19.0325 0.60375C18.2994 0.319125 17.4647 0.125542 16.2409 0.069C15.0142 0.0115 14.6242 0 11.5 0ZM11.5 2.07C14.5696 2.07 14.9356 2.08533 16.1479 2.13804C17.2692 2.19075 17.8777 2.37667 18.2821 2.53575C18.8207 2.74371 19.2021 2.99288 19.6066 3.39442C20.0081 3.79692 20.2573 4.17929 20.4652 4.71788C20.6224 5.12229 20.8102 5.73083 20.861 6.85208C20.9156 8.06531 20.9281 8.4295 20.9281 11.5C20.9281 14.5705 20.9137 14.9356 20.8572 16.1479C20.7987 17.2692 20.6118 17.8777 20.4537 18.2821C20.2391 18.8207 19.9947 19.2021 19.5922 19.6066C19.1906 20.0081 18.8025 20.2573 18.2697 20.4652C17.8672 20.6224 17.2491 20.8102 16.1278 20.861C14.9069 20.9156 14.5475 20.9281 11.4713 20.9281C8.39407 20.9281 8.03469 20.9137 6.81471 20.8572C5.6925 20.7987 5.07438 20.6118 4.67188 20.4537C4.12658 20.2391 3.75188 19.9947 3.35033 19.5922C2.94688 19.1906 2.68908 18.8025 2.48783 18.2697C2.32971 17.8672 2.14379 17.2491 2.08533 16.1278C2.04221 14.9203 2.02687 14.5475 2.02687 11.4856C2.02687 8.42282 2.04221 8.04907 2.08533 6.82717C2.14379 5.70592 2.32971 5.08875 2.48783 4.68625C2.68908 4.14 2.94688 3.76625 3.35033 3.36279C3.75188 2.96125 4.12658 2.7025 4.67188 2.50221C5.07438 2.34312 5.67908 2.15625 6.80033 2.09875C8.02218 2.05563 8.38156 2.04125 11.4569 2.04125L11.5 2.07ZM11.5 5.59475C8.23688 5.59475 5.59475 8.23975 5.59475 11.5C5.59475 14.7631 8.23975 17.4052 11.5 17.4052C14.7631 17.4052 17.4052 14.7602 17.4052 11.5C17.4052 8.23688 14.7602 5.59475 11.5 5.59475ZM11.5 15.3333C9.38206 15.3333 7.66669 13.6179 7.66669 11.5C7.66669 9.38206 9.38206 7.66669 11.5 7.66669C13.6179 7.66669 15.3333 9.38206 15.3333 11.5C15.3333 13.6179 13.6179 15.3333 11.5 15.3333ZM19.0191 5.36188C19.0191 6.12375 18.4 6.74188 17.6391 6.74188C16.8772 6.74188 16.2591 6.12279 16.2591 5.36188C16.2591 4.60096 16.8782 3.98283 17.6391 3.98283C18.3991 3.98187 19.0191 4.60096 19.0191 5.36188Z" fill="#F7CF05"/>
</svg>
