<svg width="150" height="151" viewBox="0 0 150 151" fill="none" xmlns="http://www.w3.org/2000/svg">
<path fill-rule="evenodd" clip-rule="evenodd" d="M74.7255 11.0469C75.5919 11.0469 76.3499 11.0469 77.108 11.0469L76.8914 17.1115C76.2416 17.1115 75.4836 17.1115 74.7255 17.1115C43.4276 17.1115 17.7612 41.5867 16.0284 72.4514L9.85547 76.0252V75.9169C9.85547 40.0705 38.8791 11.0469 74.7255 11.0469ZM16.3533 82.9562C19.6022 110.139 41.3699 131.69 68.6608 134.506L72.7761 140.787C40.0704 139.812 13.4293 114.687 10.1804 82.6313L16.3533 82.9562ZM79.3823 134.614C104.291 132.665 124.867 115.229 131.473 91.8366L138.621 87.8296C133.314 116.528 109.056 138.621 79.3823 140.679V134.614ZM133.531 79.9239C133.531 78.516 133.639 77.2164 133.639 75.9169C133.639 48.4094 114.687 25.2338 89.129 18.8443L84.9054 11.805C115.878 16.6783 139.704 43.536 139.704 75.9169C139.704 77.433 139.595 78.8409 139.487 80.2488L133.531 79.9239Z" fill="#262624"/>
<path fill-rule="evenodd" clip-rule="evenodd" d="M69.2045 16.6783L77.1104 17.0032L77.0021 0L68.5547 11.4798L69.2045 16.6783Z" fill="#262624"/>
<path fill-rule="evenodd" clip-rule="evenodd" d="M86.9684 133.638L79.0625 134.612L79.8206 150.641L87.8348 139.269L86.9684 133.638Z" fill="#262624"/>
<path fill-rule="evenodd" clip-rule="evenodd" d="M133.975 71.9085L133.434 79.8144L150.004 80.8974L139.607 71.6919L133.975 71.9085Z" fill="#262624"/>
<path fill-rule="evenodd" clip-rule="evenodd" d="M16.0285 90.9704L16.3534 82.9561L0 81.9814L11.6964 91.187L16.0285 90.9704Z" fill="#262624"/>
<path fill-rule="evenodd" clip-rule="evenodd" d="M75.053 23.3921C103.643 23.3921 126.927 46.5677 126.927 75.2664C126.927 103.965 103.643 127.249 75.053 127.249C46.3542 127.249 23.0703 103.965 23.0703 75.2664C23.0703 46.5677 46.3542 23.3921 75.053 23.3921ZM44.08 45.1598L40.9393 44.8349L38.4485 44.7266C31.6258 53.0655 27.4022 63.6786 27.4022 75.2664C27.4022 86.9625 31.6258 97.5757 38.5568 105.915H37.6904L40.3979 108.839L42.997 111.871L43.2136 110.68C51.5525 118.26 62.8154 122.917 75.053 122.917C87.2905 122.917 98.4451 118.26 106.892 110.68L107.109 111.871L109.708 108.839L112.415 105.915H111.441C118.372 97.5757 122.595 86.9625 122.595 75.2664C122.595 63.6786 118.48 53.0655 111.549 44.7266L109.167 44.8349L105.918 45.1598L106.567 42.0192L106.892 39.9616C98.4451 32.2725 87.2905 27.6157 75.053 27.6157C62.8154 27.6157 51.5525 32.2725 43.1053 39.9616L43.4302 42.0192L44.08 45.1598Z" fill="#262624"/>
<path fill-rule="evenodd" clip-rule="evenodd" d="M44.0694 105.591L40.9287 105.808L37.6797 105.916L40.3872 108.84L42.9864 111.873L43.4196 108.732L44.0694 105.591Z" fill="#262624"/>
<path fill-rule="evenodd" clip-rule="evenodd" d="M105.91 105.591L109.159 105.808L112.408 105.916L109.701 108.84L107.101 111.873L106.56 108.732L105.91 105.591Z" fill="#262624"/>
<path fill-rule="evenodd" clip-rule="evenodd" d="M53.0729 85.9885C52.6397 85.2304 52.3148 82.7394 50.582 79.2738C50.0405 78.2991 48.6326 76.0248 47.8745 75.1584C47.4413 74.8335 47.0081 74.5086 46.6832 73.9671C47.1164 73.5339 48.0911 73.1007 48.7409 72.7758L56.4302 68.7687C56.8634 68.5521 57.08 68.3355 57.5132 68.1189C58.2713 67.6857 58.8128 67.3608 59.6792 66.9276C60.1124 66.711 60.329 66.6027 60.7622 66.3861C61.1954 66.1695 61.412 65.9529 61.8452 65.7363L64.0112 64.545L58.5962 75.2667C58.163 76.2414 57.7298 76.9995 57.2966 77.9742L54.4808 83.3892C54.1559 84.039 53.5061 85.6636 53.0729 85.9885ZM41.918 73.1007C41.918 74.292 42.8927 74.6169 43.8674 75.6999C45.0587 77.1078 46.4666 78.8406 47.333 80.4651C48.9575 83.2809 48.7409 83.1726 47.0081 86.2051L43.3259 93.028C43.2176 93.4612 43.3259 94.2193 44.084 94.2193H51.8816C53.0729 94.2193 53.6144 92.4865 54.0476 91.6201L63.0365 72.4509C63.2531 71.9094 63.4697 71.4762 63.6863 70.8264C63.9029 70.6098 64.0112 70.3932 64.1195 70.0683C64.2278 69.8517 64.2278 69.8517 64.3361 69.6351L64.5527 69.3102C64.5527 69.3102 64.5527 69.3102 64.5527 69.2019V89.9956C64.5527 92.8114 64.5527 94.2193 67.3686 94.2193H89.3535C89.7867 94.2193 90.0033 93.6778 90.0033 93.3529C90.0033 92.7031 85.563 85.2304 85.0215 84.2556L67.5852 53.2817C66.3938 51.224 66.3938 52.0904 64.3361 55.5561C63.6863 56.7474 60.6539 62.2707 60.2207 62.8122C59.246 63.8952 56.4302 65.0865 54.914 66.0612C51.8816 67.9023 46.8998 70.2849 43.6508 71.9094C43.2176 72.126 41.918 72.5592 41.918 73.1007Z" fill="#262624"/>
<path fill-rule="evenodd" clip-rule="evenodd" d="M69.9688 51.4424C69.9688 52.4171 70.6186 53.0669 71.2684 54.2582L75.817 62.1642C77.8747 65.8464 80.5822 70.1784 82.6399 73.9689L93.145 92.2717C94.1197 94.0045 94.5529 93.2464 97.8019 92.2717L106.683 89.4558C107.549 89.2392 107.982 89.0226 108.09 88.5894V88.2645C107.982 87.6147 106.899 86.3151 105.166 83.4993L87.0802 55.0163C85.6723 52.8503 85.3474 51.2258 83.1814 51.2258C81.4486 51.2258 70.7269 51.1175 69.9688 51.4424Z" fill="#262624"/>
</svg>
