<svg width="150" height="151" viewBox="0 0 150 151" fill="none" xmlns="http://www.w3.org/2000/svg">
<path fill-rule="evenodd" clip-rule="evenodd" d="M74.7291 11.0474C75.5956 11.0474 76.3537 11.0474 77.1118 11.0474L76.8952 17.1123C76.2454 17.1123 75.4873 17.1123 74.7291 17.1123C43.4295 17.1123 17.7616 41.5889 16.0288 72.4553L9.85547 76.0293V75.921C9.85547 40.0726 38.8807 11.0474 74.7291 11.0474ZM16.3537 82.9607C19.6028 110.145 41.3717 131.697 68.6642 134.513L72.7797 140.795C40.0721 139.82 13.5378 114.694 10.1804 82.6358L16.3537 82.9607ZM79.3862 134.621C104.296 132.672 124.874 115.235 131.48 91.8416L138.628 87.8344C133.321 116.535 109.061 138.629 79.3862 140.686V134.621ZM133.538 79.9282C133.646 78.5203 133.646 77.2207 133.646 75.921C133.646 48.412 114.693 25.2351 89.1335 18.8452L84.9096 11.8055C115.993 16.6791 139.711 43.5383 139.711 75.921C139.711 77.4373 139.603 78.8452 139.495 80.2532L133.538 79.9282Z" fill="#262624"/>
<path fill-rule="evenodd" clip-rule="evenodd" d="M69.2095 16.6787L77.1156 17.0036V0L68.668 11.4801L69.2095 16.6787Z" fill="#262624"/>
<path fill-rule="evenodd" clip-rule="evenodd" d="M86.9647 133.646L79.0586 134.62L79.8167 150.649L87.8312 139.277L86.9647 133.646Z" fill="#262624"/>
<path fill-rule="evenodd" clip-rule="evenodd" d="M133.972 71.9134L133.539 79.8195L150.001 80.9026L139.712 71.6968L133.972 71.9134Z" fill="#262624"/>
<path fill-rule="evenodd" clip-rule="evenodd" d="M16.0289 90.976L16.3538 82.9615L0 81.9868L11.8051 91.1926L16.0289 90.976Z" fill="#262624"/>
<path fill-rule="evenodd" clip-rule="evenodd" d="M75.0559 23.394C103.756 23.394 126.933 46.5709 126.933 75.2713C126.933 103.972 103.756 127.257 75.0559 127.257C46.3555 127.257 23.0703 103.972 23.0703 75.2713C23.0703 46.5709 46.3555 23.394 75.0559 23.394ZM44.0811 45.163L40.9404 44.8381L38.4494 44.7298C31.6263 53.0691 27.4024 63.6829 27.4024 75.2713C27.4024 86.9681 31.6263 97.5818 38.5577 105.921H37.6913L40.3988 108.845L42.9981 111.878L43.2147 110.686C51.6624 118.268 62.8176 122.925 75.0559 122.925C87.2942 122.925 98.4494 118.268 106.897 110.686L107.114 111.878L109.713 108.845L112.421 105.921H111.446C118.485 97.5818 122.601 86.9681 122.601 75.2713C122.601 63.6829 118.485 53.0691 111.554 44.7298L109.171 44.8381L105.922 45.163L106.572 42.0222L106.897 39.9644C98.4494 32.2749 87.2942 27.6179 75.0559 27.6179C62.8176 27.6179 51.5541 32.2749 43.2147 39.9644L43.5396 42.0222L44.0811 45.163Z" fill="#262624"/>
<path fill-rule="evenodd" clip-rule="evenodd" d="M44.0813 105.597L40.9405 105.813L37.6914 105.922L40.399 108.846L42.9983 111.878L43.5398 108.737L44.0813 105.597Z" fill="#262624"/>
<path fill-rule="evenodd" clip-rule="evenodd" d="M105.922 105.597L109.171 105.813L112.42 105.922L109.712 108.846L107.113 111.878L106.572 108.737L105.922 105.597Z" fill="#262624"/>
<path fill-rule="evenodd" clip-rule="evenodd" d="M47.3242 85.8852L47.5408 87.7264C47.6491 88.0513 47.5408 87.943 47.8657 88.0513L51.2231 89.026C55.5553 90.3257 61.8369 91.3004 66.4939 90.6506C68.5517 90.434 71.2592 90.6506 73.317 90.9755C78.299 91.7336 77.1076 92.7083 83.6058 92.7083C86.9632 92.7083 90.3206 92.2751 93.3531 91.7336C94.5444 91.517 101.368 90.0008 101.368 88.9177C101.368 86.4267 101.692 84.8022 99.743 82.961C98.7683 82.0946 97.5769 81.5531 95.7358 81.5531H89.9957C89.7791 81.5531 89.2376 82.0946 89.021 82.2029C86.3134 84.369 84.2556 85.9935 80.0318 85.9935C78.6239 85.9935 77.1076 85.5603 76.1329 85.1271C72.234 83.5026 71.8008 81.0116 62.4867 79.4953C60.9704 79.2787 59.5625 79.0621 58.1545 78.9538C55.5553 78.6289 51.1148 78.6289 48.6239 78.6289C48.6239 79.0621 48.4073 79.9285 48.2989 80.3618L47.5408 83.8275C47.4325 84.2607 47.3242 85.3437 47.3242 85.8852Z" fill="#262624"/>
<path fill-rule="evenodd" clip-rule="evenodd" d="M74.2915 74.5132C72.342 74.5132 72.8836 72.6721 74.0749 72.6721C74.5081 72.6721 74.9413 72.997 74.9413 73.5385C75.0496 73.9717 74.7247 74.5132 74.2915 74.5132ZM70.0677 69.6396C70.0677 68.2316 71.9088 68.2316 71.9088 69.8562C71.9088 70.7226 70.0677 70.9392 70.0677 69.6396ZM68.768 64.5493C70.6092 64.5493 70.0677 66.4988 69.0929 66.4988C67.4684 66.4988 67.9016 64.5493 68.768 64.5493ZM66.9269 61.5168C66.9269 60.1089 68.9846 60.2172 68.9846 61.5168C68.9846 62.8165 66.9269 62.8165 66.9269 61.5168ZM63.8944 53.8273C63.8944 55.0186 64.111 56.21 64.2193 57.4013C64.3276 59.8923 65.4106 63.0331 62.2698 65.0908C60.9702 65.9573 59.129 66.0656 57.0713 66.2822L50.1399 67.2569C49.49 67.3652 49.5983 67.2569 49.7067 68.1233C50.1399 71.0475 49.9233 73.8634 49.2734 76.6793C50.7897 76.6793 53.7139 76.4627 55.0135 76.6793C55.8799 76.7876 57.0713 76.8959 57.8294 76.8959C58.6958 76.8959 59.7789 77.1125 60.537 77.2208C65.6272 77.8706 71.0424 79.2786 74.9413 82.2028C77.2157 83.8273 80.2482 84.5854 83.0641 83.6107C84.1471 83.2858 86.4215 82.2028 86.8547 81.4446C84.3637 81.4446 81.1146 78.6287 79.5984 76.8959C77.2157 73.9717 76.8908 74.1883 74.2915 70.1811C70.8258 64.8742 69.8511 57.9428 69.8511 49.6035C69.8511 48.737 69.9594 48.1955 69.9594 47.3291C68.4431 47.3291 66.602 48.4121 65.6272 49.3869C64.5442 50.4699 63.8944 52.3111 63.8944 53.8273Z" fill="#262624"/>
<path fill-rule="evenodd" clip-rule="evenodd" d="M46.6758 96.3913C47.4339 96.4996 47.8671 97.0411 48.7335 97.0411C48.7335 95.1999 50.683 95.6331 50.683 96.7162V97.5826C51.4411 97.5826 51.9826 97.7992 52.7408 97.7992C53.174 96.283 54.6902 96.6079 54.7985 98.0158H56.8563C56.8563 96.3913 58.2642 96.8245 58.5891 97.1494C58.8057 97.4743 58.6974 97.6909 58.9141 98.0158C59.239 98.0158 60.5386 97.9075 60.8635 97.7992C60.8635 96.3913 61.5133 95.4165 62.3798 94.9833C63.5711 94.2252 67.0368 94.4418 68.7696 94.4418C70.0693 94.4418 71.2606 94.5501 71.9104 95.1999C73.1018 96.3913 72.7769 97.0411 72.9935 98.0158C73.4267 98.1241 74.8346 98.3407 75.1595 98.449C75.5928 97.6909 76.2426 97.5826 76.6758 98.1241C77.0007 98.449 76.8924 98.3407 77.0007 98.6656C77.7588 98.6656 78.3003 98.7739 79.1668 98.7739C79.2751 97.6909 80.3581 97.6909 80.7913 98.1241C81.1162 98.449 81.0079 98.5573 81.1162 98.8822H83.0657C83.174 98.6656 83.2823 98.3407 83.3906 98.2324C83.8238 97.5826 85.1234 97.6909 85.1234 98.8822C85.8816 98.8822 86.3148 98.7739 87.1812 98.7739C87.2895 97.5826 88.8058 97.4743 89.1307 98.5573C89.5639 98.5573 90.8635 98.3407 91.2967 98.2324C91.2967 97.7992 91.1884 97.6909 91.5133 97.366C92.0548 96.6079 93.1379 96.9328 93.2462 97.9075C93.5711 97.9075 93.896 97.7992 94.2209 97.7992C94.5458 97.6909 95.0873 97.6909 95.1956 97.4743C95.5206 97.0411 95.0873 95.9581 96.2787 95.9581C96.9285 95.9581 97.2534 96.3913 97.2534 97.0411L99.4195 96.4996C99.4195 95.9581 99.2029 94.9833 100.394 94.9833C100.936 94.9833 101.261 95.3082 101.261 95.8497C102.235 95.6331 103.427 94.4418 103.427 93.2505C103.427 91.1927 103.21 91.8425 102.452 90.8678C101.152 91.5176 99.961 92.0591 98.3364 92.6006C93.6794 94.0086 84.0404 95.4165 78.8419 94.3335C75.1595 93.5754 73.9682 92.4923 68.878 92.4923C67.1451 92.4923 65.8455 92.8173 64.2209 92.8173C59.7805 92.8173 58.5891 92.709 54.3653 91.8425C52.4159 91.4093 50.8996 90.9761 49.0585 90.4346C47.8671 90.1097 46.7841 89.3516 46.6758 91.0844V96.3913Z" fill="#262624"/>
<path fill-rule="evenodd" clip-rule="evenodd" d="M49.383 65.4171C50.5743 65.3088 60.105 64.0092 60.6465 63.7925C63.2458 62.7095 62.4877 59.8936 62.271 57.6193C61.9461 55.1283 62.596 55.3449 60.6465 55.5615L50.3577 56.8611C47.4335 57.186 48.4082 59.8936 48.8414 61.9514L49.383 65.4171Z" fill="#262624"/>
</svg>
