<svg width="150" height="151" viewBox="0 0 150 151" fill="none" xmlns="http://www.w3.org/2000/svg">
<path fill-rule="evenodd" clip-rule="evenodd" d="M74.7932 11.0405C75.5508 11.0405 76.3084 11.0405 77.066 11.0405L76.9577 17.1014C76.2001 17.1014 75.4425 17.1014 74.7932 17.1014C43.4066 17.1014 17.8645 41.5612 16.0245 72.4066L9.85547 75.9782V75.87C9.85547 40.046 38.9692 11.0405 74.7932 11.0405ZM16.3492 82.9049C19.5961 110.07 41.3502 131.608 68.7323 134.422L72.7368 140.699C40.1597 139.725 13.5353 114.616 10.2884 82.5802L16.3492 82.9049ZM79.3388 134.53C104.34 132.582 124.903 115.157 131.397 91.7797L138.54 87.7752C133.237 116.456 109.102 138.535 79.3388 140.591V134.53ZM133.454 79.8745C133.562 78.4675 133.562 77.1687 133.562 75.87C133.562 48.3797 114.73 25.2186 89.1877 18.833L84.8585 11.7981C115.92 16.6685 139.623 43.5094 139.623 75.87C139.623 77.3852 139.514 78.7922 139.514 80.1992L133.454 79.8745Z" fill="#262624"/>
<path fill-rule="evenodd" clip-rule="evenodd" d="M69.2627 16.6673L77.1634 16.992L77.0552 0L68.6133 11.4723L69.2627 16.6673Z" fill="#262624"/>
<path fill-rule="evenodd" clip-rule="evenodd" d="M87.0179 133.554L79.1172 134.528L79.8748 150.546L87.7755 139.182L87.0179 133.554Z" fill="#262624"/>
<path fill-rule="evenodd" clip-rule="evenodd" d="M133.874 71.8649L133.441 79.7656L150.001 80.8479L139.61 71.6484L133.874 71.8649Z" fill="#262624"/>
<path fill-rule="evenodd" clip-rule="evenodd" d="M16.1262 90.9137L16.3426 82.9047L0 81.9307L11.797 91.1302L16.1262 90.9137Z" fill="#262624"/>
<path fill-rule="evenodd" clip-rule="evenodd" d="M75.0021 23.3784C103.683 23.3784 126.952 46.5395 126.952 75.2203C126.952 103.901 103.683 127.17 75.0021 127.17C46.3213 127.17 23.1602 103.901 23.1602 75.2203C23.1602 46.5395 46.3213 23.3784 75.0021 23.3784ZM44.1567 45.1325L40.9098 44.8079L38.5287 44.6996C31.6021 53.0333 27.4893 63.6398 27.4893 75.2203C27.4893 86.9091 31.6021 97.5156 38.637 105.849H37.6629L40.3686 108.771L42.9661 111.802L43.1826 110.611C51.6245 118.187 62.7721 122.841 75.0021 122.841C87.232 122.841 98.3796 118.187 106.822 110.611L107.038 111.802L109.635 108.771L112.341 105.849H111.367C118.402 97.5156 122.623 86.9091 122.623 75.2203C122.623 63.6398 118.402 53.0333 111.475 44.6996L109.094 44.8079L105.847 45.1325L106.497 41.9939L106.822 39.9375C98.3796 32.2532 87.232 27.5994 75.0021 27.5994C62.7721 27.5994 51.6245 32.2532 43.1826 39.9375L43.5073 41.9939L44.1567 45.1325Z" fill="#262624"/>
<path fill-rule="evenodd" clip-rule="evenodd" d="M44.1461 105.524L40.8992 105.741L37.6523 105.849L40.3581 108.771L42.9556 111.802L43.4967 108.663L44.1461 105.524Z" fill="#262624"/>
<path fill-rule="evenodd" clip-rule="evenodd" d="M105.84 105.524L109.087 105.741L112.334 105.849L109.628 108.771L107.03 111.802L106.489 108.663L105.84 105.524Z" fill="#262624"/>
<path fill-rule="evenodd" clip-rule="evenodd" d="M59.9559 48.8125V72.5148C59.9559 75.6534 62.0123 78.251 64.9345 78.4674C64.9345 79.0086 64.8262 78.9003 64.6098 79.4415C63.7439 81.7143 61.6876 91.5632 60.93 92.6455L56.709 98.2734C55.9514 99.3557 55.1938 100.33 54.328 101.412C53.4621 102.603 52.5963 103.577 53.0292 105.417C53.2457 106.715 54.6527 108.122 56.0596 108.122C57.6831 108.122 58.4407 107.798 59.4148 106.499L66.9908 96.3253C68.0731 94.9183 69.1554 90.048 69.6965 87.8834C69.8048 87.234 70.1295 86.6929 70.1295 86.0435L71.6447 87.4505C73.1599 88.641 74.9998 90.8056 76.4068 91.6714L75.9739 97.624C75.8656 99.4639 75.3245 104.767 75.7574 105.849C75.9739 106.391 76.4068 107.04 76.8397 107.365C79.0043 108.88 81.71 107.906 82.3594 105.741L82.9005 100.654C82.9005 97.624 83.5499 93.5113 83.5499 90.1562C83.5499 88.5328 82.3594 87.5587 81.1689 86.5846L76.9479 82.6884C75.5409 81.4978 75.7574 82.3637 76.4068 78.5756L77.5973 70.6749C77.7055 70.242 77.8138 69.7008 77.8138 69.1597C78.1384 69.3761 78.5714 70.1337 78.8961 70.5667C79.9783 72.1901 81.0606 74.03 82.9005 74.03H92.9659L93.0741 100.438C93.0741 101.953 93.1823 103.144 93.1823 104.767C93.1823 107.365 92.7494 108.231 94.6976 108.231C95.2387 108.231 95.5634 107.473 95.5634 106.932C95.6716 106.174 95.5634 105.308 95.5634 104.875L95.3469 73.8135C96.321 73.1642 97.2951 72.4066 97.0786 70.6749C96.6457 67.3198 92.533 68.1856 89.6108 68.1856C87.8791 68.1856 86.1474 68.1856 84.4158 68.1856L80.6277 62.6659C79.2207 60.5013 79.0043 60.9342 79.0043 59.5273C79.1125 55.3063 74.4586 52.3841 70.4542 54.5487C70.1295 54.7652 70.0212 54.9816 69.6965 55.0898C69.6965 53.2499 69.6965 51.41 69.6965 49.5701C69.6965 45.8903 67.8566 46.6479 62.6616 46.6479C61.1464 46.6479 59.9559 47.1891 59.9559 48.8125Z" fill="#262624"/>
<path fill-rule="evenodd" clip-rule="evenodd" d="M76.8353 53.4653C82.7879 53.4653 84.3031 46.9716 81.0563 43.8329L80.6233 43.4C79.8657 42.7506 78.8917 42.3177 77.8094 42.2095H76.5106C75.1036 42.3177 73.8049 42.9671 72.8308 44.0494C69.4757 48.0539 72.6144 53.4653 76.8353 53.4653Z" fill="#262624"/>
</svg>
