<svg width="33" height="23" viewBox="0 0 33 23" fill="none" xmlns="http://www.w3.org/2000/svg">
<path d="M32.0006 3.59215C31.8159 2.89748 31.4518 2.26347 30.9446 1.75359C30.4375 1.24371 29.805 0.875854 29.1107 0.686879C26.5628 -2.40134e-07 16.3421 0 16.3421 0C16.3421 0 6.12148 -2.40134e-07 3.57211 0.686879C2.87813 0.876191 2.24608 1.24417 1.73918 1.75401C1.23228 2.26386 0.868299 2.89771 0.683644 3.59215C0 6.15466 0 11.5 0 11.5C0 11.5 0 16.8454 0.683644 19.4079C0.868292 20.1026 1.23243 20.7366 1.73961 21.2464C2.24677 21.7563 2.87917 22.1241 3.57348 22.3132C6.12148 23 16.3421 23 16.3421 23C16.3421 23 26.5628 23 29.1121 22.3132C29.8065 22.1243 30.4389 21.7565 30.9461 21.2466C31.4533 20.7367 31.8174 20.1026 32.0019 19.4079C32.6842 16.8454 32.6842 11.5 32.6842 11.5C32.6842 11.5 32.6842 6.15466 32.0006 3.59215ZM12.9988 16.353V6.64706L21.5417 11.5L12.9988 16.353Z" fill="#F7CF05"/>
</svg>
