<svg width="395" height="48" viewBox="0 0 395 48" fill="none" xmlns="http://www.w3.org/2000/svg">
<path d="M300.944 2.95835C301.179 2.70975 301.326 2.53573 301.59 2.26227C300.798 2.23741 300.387 2.23741 299.889 2.21255C300.241 2.46115 300.534 2.66003 300.944 2.95835ZM288.157 2.53573C288.098 2.51087 288.069 2.48601 288.01 2.46115L287.541 2.63517C287.6 2.66003 287.658 2.68489 287.717 2.70975L288.157 2.53573ZM343.648 44.6487C342.973 44.773 342.621 44.8476 342.211 44.9222C343.003 45.2951 343.208 45.0713 343.648 44.6487ZM351.215 45.2951C350.951 45.1459 350.658 44.9968 350.364 44.8227C351.01 44.5741 351.42 44.2012 352.535 44.3007L353.063 44.4747C353.092 44.425 353.151 44.3753 353.209 44.3504C352.975 44.3255 352.769 44.3007 352.535 44.2758C352.681 44.1515 352.799 44.0023 353.033 43.7786C350.951 43.9775 349.074 44.1515 346.962 44.3255C347.343 44.5741 347.637 44.7233 347.754 44.8973C347.842 45.0216 347.725 45.1708 347.637 45.4442C348.253 45.2702 348.634 45.1708 348.986 45.0713C350.335 45.1956 348.839 45.6928 349.748 45.9414C350.511 45.8669 350.922 45.6431 351.215 45.2951ZM358.87 44.8476C358.958 44.8227 359.046 44.773 359.105 44.7482C359.017 44.773 358.929 44.7979 358.87 44.8476C358.723 44.9222 358.577 44.9968 358.43 45.0713C358.518 45.0713 358.606 45.0962 358.723 45.1211L358.87 44.8476ZM355.35 44.7233C355.321 44.8476 355.292 44.9719 355.292 45.0713C356.817 45.1211 356.817 45.1211 357.609 44.7233H355.35ZM352.007 44.6736C351.948 44.6984 351.919 44.7482 351.86 44.773C352.065 44.7979 352.3 44.8227 352.505 44.8476C352.681 44.9222 352.887 44.9719 353.063 45.0216C353.121 44.9968 353.18 44.947 353.209 44.8973C353.004 44.8725 352.769 44.8476 352.564 44.8227C352.359 44.773 352.183 44.7233 352.007 44.6736ZM373.798 44.599C373.505 44.2012 373.124 44.0521 372.156 44.1515C372.127 44.2509 372.068 44.4001 371.98 44.599H373.798ZM355.116 43.7537C355.028 43.6792 354.91 43.6046 354.764 43.5549C354.676 43.53 354.47 43.5549 354.353 43.53C354.353 43.5549 354.382 43.5549 354.382 43.5549C354.353 43.5549 354.353 43.5549 354.324 43.53C354.353 43.6046 354.324 43.6792 354.412 43.704C354.5 43.7786 354.676 43.8283 354.852 43.8532C354.881 43.878 355.145 43.7786 355.116 43.7537ZM358.371 43.2814C358.283 43.2814 358.195 43.2814 358.078 43.2814C358.049 43.3808 358.019 43.5051 357.99 43.6046C358.078 43.6294 358.195 43.6294 358.283 43.6294C358.313 43.5051 358.342 43.4057 358.371 43.2814ZM333.5 41.8644C332.796 42.1627 332.473 42.3119 331.887 42.5356C332.767 42.6848 333.207 42.7345 334.028 42.8588C333.852 42.5107 333.735 42.3119 333.5 41.8644ZM334.116 41.2429C333.735 41.4666 333.5 41.6158 333.236 41.7401C334.087 41.7649 334.497 41.6406 334.116 41.2429ZM371.951 41.044C371.071 41.2926 371.071 41.2926 371.892 41.6406C371.921 41.4169 371.921 41.2429 371.951 41.044ZM327.575 40.9694C327.077 41.0689 326.725 41.1683 326.109 41.2926C326.754 41.4418 327.194 41.5412 327.986 41.6904C327.781 41.3672 327.693 41.1932 327.575 40.9694ZM339.952 40.2236C340.275 40.2485 340.627 40.2982 340.95 40.3479C341.008 40.3231 341.038 40.2733 341.096 40.2236C340.803 40.149 340.539 40.0745 340.246 39.9999C340.158 40.0745 340.04 40.149 339.952 40.2236ZM339.542 39.6021C338.955 39.4778 338.427 39.3784 337.929 39.2789C337.841 39.3287 337.753 39.3535 337.665 39.4032C338.105 39.6021 338.515 39.801 339.073 40.0496C339.249 39.8756 339.366 39.7761 339.542 39.6021ZM346.493 39.5773C345.936 39.5275 345.378 39.4778 344.85 39.453C344.85 39.3287 344.85 39.2044 344.85 39.0801C345.466 39.1546 346.053 39.2044 346.64 39.2789C346.698 39.3038 346.786 39.3535 346.845 39.3784C346.786 39.3535 346.728 39.3038 346.669 39.2541C346.317 38.9309 345.965 38.6077 344.85 38.7072C344.469 38.4834 344.117 38.2597 343.736 38.0359C343.267 38.1851 342.827 38.3342 342.328 38.5083C342.475 38.732 342.651 39.0055 342.944 39.4281C343.413 39.4281 344.147 39.4281 344.85 39.453C345.144 39.9253 345.437 40.4225 345.701 40.9197C345.29 40.9446 344.88 40.9943 344.176 41.044C344.674 41.2429 344.909 41.3672 345.261 41.4418C345.408 41.4666 345.76 41.3672 346.024 41.3175C345.936 41.1683 345.877 41.0689 345.789 40.9446C347.138 40.6214 346.61 40.1242 346.493 39.5773ZM370.191 39.975C369.692 39.8507 369.252 39.7264 368.813 39.627C367.786 39.8756 367.111 40.149 367.669 40.696C368.9 40.696 369.399 40.2982 370.191 39.975ZM373.271 39.627C373.212 39.6021 373.153 39.5524 373.065 39.5275C372.919 39.5773 372.743 39.627 372.567 39.7016C372.625 39.7264 372.684 39.7761 372.743 39.801C372.919 39.7513 373.095 39.6767 373.271 39.627ZM375.588 38.8812C375.177 38.9558 374.766 39.0303 374.121 39.1298C375.236 39.3287 375.558 39.2044 375.588 38.8812ZM373.711 38.3094C373.241 38.0608 372.655 37.9613 371.98 38.1354C372.215 38.4337 372.449 38.7072 372.684 39.0055C373.711 38.9558 373.711 38.9558 373.711 38.3094ZM371.452 37.8122C371.423 37.8122 371.188 37.9116 371.188 37.9365C371.276 38.0111 371.393 38.0608 371.54 38.1105C371.657 38.1354 371.833 38.1354 371.98 38.1354C371.951 38.0856 371.98 38.0111 371.892 37.9613C371.804 37.9116 371.628 37.8619 371.452 37.8122ZM357.198 37.663C357.051 37.7873 356.905 37.9116 356.758 38.0359C356.905 38.0608 357.022 38.0856 357.169 38.1354C357.257 37.9862 357.374 37.837 357.462 37.7127C357.374 37.6879 357.286 37.663 357.198 37.663ZM349.367 37.0167C349.836 37.0664 350.335 37.1161 351.01 37.1907C351.039 36.9669 351.068 36.7432 351.098 36.4946C350.071 36.5195 349.719 36.7681 349.367 37.0167C349.162 37.0415 348.957 37.0415 348.575 37.0664C348.751 37.1907 348.898 37.2653 349.162 37.4144C349.25 37.2155 349.309 37.1161 349.367 37.0167ZM372.889 36.2709C372.831 36.2211 372.743 36.1963 372.684 36.1466C372.361 36.1963 372.039 36.2709 371.745 36.3206C371.833 36.42 371.951 36.5195 372.156 36.6686C372.479 36.4946 372.684 36.3952 372.889 36.2709ZM381.072 36.5195C380.838 36.3703 380.632 36.2709 380.368 36.0968C380.192 36.5443 380.192 36.5443 381.072 36.5195ZM377.054 36.0968C377.054 36.0968 377.23 36.246 377.259 36.2211C377.435 36.2211 377.611 36.1714 377.787 36.1217C377.67 36.0471 377.582 35.9974 377.523 35.9477C377.377 35.9974 377.201 36.0471 377.054 36.0968ZM370.162 35.7239C370.162 35.5251 370.015 35.3262 369.428 35.3759C369.135 35.4008 368.959 35.5996 368.549 35.8234C369.34 35.7737 369.751 35.7488 370.162 35.7239C370.191 36.1466 370.719 36.1217 371.452 35.8482C371.042 35.7985 370.602 35.7737 370.162 35.7239ZM374.356 35.1273C373.857 35.0527 373.535 34.9781 373.183 34.9284C373.241 34.7047 373.271 34.4561 373.329 34.2323C372.537 34.4561 371.745 34.655 370.719 34.9284C371.716 35.177 372.479 35.351 373.623 35.6245C373.798 35.5002 374.033 35.351 374.356 35.1273ZM379.518 35.0279C379.488 34.9533 379.371 34.8787 379.283 34.8041C379.107 34.8538 378.99 34.9036 378.872 34.9284C378.96 34.9781 379.078 35.0527 379.195 35.1024C379.224 35.1273 379.547 35.0527 379.518 35.0279ZM373.329 34.0583C373.417 33.9589 373.505 33.8843 373.652 33.7103C373.212 33.76 372.889 33.8097 372.127 33.934C372.831 34.0086 373.095 34.0335 373.329 34.0583C373.329 34.108 373.329 34.1826 373.329 34.2323C373.711 34.1826 373.711 34.108 373.329 34.0583ZM375.382 33.76C375.265 33.7351 375.148 33.7351 375.03 33.7103C375.03 33.7351 375.03 33.7849 375.03 33.8346C375.148 33.8097 375.265 33.7849 375.382 33.76ZM362.917 34.6052C363.357 34.5804 363.768 34.5555 364.296 34.5307C363.416 34.1826 363.416 34.1826 362.917 34.6052ZM361.597 34.6301C362.067 34.829 362.507 34.8787 362.917 34.6052C362.507 34.5804 362.125 34.3069 361.597 34.6301ZM356.465 34.8787C355.937 34.9533 355.38 35.0279 354.617 35.1273C355.585 35.2516 355.585 35.2516 356.465 34.8787ZM283.2 35.351C282.262 35.4505 281.88 35.6245 282.144 36.0223C282.408 36.0223 282.731 36.0471 283.2 36.0968V35.351ZM339.806 35.898C339.982 35.8482 340.158 35.7737 340.334 35.7239C340.539 35.6991 340.744 35.6991 340.95 35.6742C340.92 35.6494 340.92 35.6245 340.891 35.5996C340.686 35.6494 340.51 35.6742 340.334 35.7239C340.099 35.7488 339.864 35.7488 339.659 35.7737C339.689 35.8234 339.747 35.8482 339.806 35.898ZM338.515 35.5499C337.401 35.7737 337.401 35.7737 337.606 36.1466C337.929 35.9477 338.134 35.7985 338.515 35.5499ZM365.938 35.898C365.762 35.6494 365.616 35.4505 365.44 35.2019C364.765 35.6245 364.765 35.6245 365.938 35.898ZM364.032 35.351C363.211 35.4256 362.712 35.4505 361.715 35.5002C362.477 35.7985 362.8 35.9228 363.269 36.0968C363.504 35.8731 363.68 35.6991 364.032 35.351ZM292.527 36.0223C292.087 36.1714 291.882 36.246 291.53 36.3703C292.087 36.4697 292.527 36.5692 293.348 36.7183C292.996 36.42 292.82 36.2709 292.527 36.0223ZM337.02 36.42C336.932 36.3703 336.873 36.3206 336.814 36.2957L335.964 36.5195C336.022 36.5692 336.081 36.594 336.169 36.6438C336.433 36.5692 336.726 36.4946 337.02 36.42ZM343.707 37.6879C344.088 37.5884 344.44 37.489 344.821 37.3896C344.674 37.3398 344.557 37.2653 344.411 37.2155C344.117 37.3398 343.795 37.4393 343.472 37.5636C343.56 37.6133 343.619 37.663 343.707 37.6879ZM340.51 37.8868H342.035C342.181 37.837 342.299 37.7873 342.269 37.7873C341.654 37.315 343.384 37.0167 342.856 36.4946C342.357 36.5692 341.918 36.6189 341.566 36.6686C341.184 37.0912 340.862 37.4641 340.51 37.8868ZM288.274 37.0664C288.128 36.9918 287.981 36.9172 287.864 36.8426C287.776 36.8924 287.688 36.9172 287.6 36.9669C287.776 37.0167 287.952 37.0664 288.157 37.1161L288.274 37.0664ZM328.514 37.2653C328.514 37.1907 328.338 37.141 328.103 36.9918C327.927 37.141 327.751 37.2155 327.722 37.315C327.693 37.3647 327.839 37.4641 328.133 37.7376C328.367 37.4641 328.514 37.3647 328.514 37.2653ZM332.884 37.663C332.767 37.663 332.649 37.6382 332.532 37.6133C332.532 37.663 332.532 37.6879 332.532 37.7376C332.649 37.7127 332.767 37.6879 332.884 37.663ZM333.852 37.6879C333.764 37.6879 333.676 37.7127 333.559 37.7376C333.705 37.8122 333.852 37.8868 333.999 37.9613C333.94 37.8619 333.911 37.7625 333.852 37.6879ZM345.672 38.0856C345.584 38.1105 345.466 38.1105 345.378 38.1105C345.437 38.1602 345.466 38.1851 345.525 38.2348C345.584 38.1851 345.642 38.1354 345.672 38.0856ZM348.106 38.1105C348.106 38.0608 348.106 38.0359 348.106 37.9862C347.989 38.0111 347.871 38.0359 347.754 38.0608C347.871 38.0608 347.989 38.0856 348.106 38.1105ZM359.427 38.6326H361.275C360.659 38.2099 360.248 37.9365 359.046 37.9613C359.192 38.2099 359.31 38.4088 359.427 38.6326ZM357.169 38.906C357.521 38.732 357.726 38.6077 358.137 38.4088C357.491 38.384 357.11 38.384 356.524 38.384C356.758 38.5829 356.905 38.7072 357.169 38.906ZM348.429 38.3591H346.816C346.786 38.5083 346.757 38.6326 346.728 38.7817C348.106 38.8563 348.106 38.8563 348.429 38.3591ZM333.705 38.8066C333.764 38.7569 333.852 38.7072 333.94 38.6574C333.764 38.6077 333.617 38.5829 333.441 38.558C333.412 38.6077 333.324 38.6574 333.383 38.7072C333.441 38.7569 333.588 38.7569 333.705 38.8066ZM329.482 38.8812C329.453 38.8066 329.423 38.7072 329.365 38.558C329.101 38.6326 328.895 38.6823 328.543 38.8066C328.983 38.8315 329.247 38.8563 329.482 38.8812C329.658 38.9558 329.57 38.906 329.482 38.8812ZM330.479 38.1602C330.362 38.1851 330.244 38.2099 330.127 38.2348C330.244 38.2597 330.362 38.2845 330.479 38.3094C330.479 38.2597 330.479 38.2099 330.479 38.1602ZM333.999 37.9613C334.175 38.0111 334.351 38.0856 334.527 38.1354C334.585 38.0856 334.615 38.0608 334.673 38.0111C334.439 37.9862 334.233 37.9862 333.999 37.9613ZM338.955 38.7072V39.1795C339.63 38.9558 339.454 38.8315 338.985 38.7072C339.337 38.6077 339.689 38.4834 339.894 38.4337C339.835 37.9116 339.337 37.7625 338.339 37.7873C337.899 38.1851 337.899 38.4834 338.955 38.7072ZM259.326 35.1273C259.238 35.1273 259.121 35.1273 259.033 35.1273C259.092 35.177 259.15 35.2267 259.18 35.2765C259.238 35.2267 259.297 35.177 259.326 35.1273ZM342.768 34.7793C342.944 34.3566 342.944 34.3566 342.094 34.3566C342.328 34.5058 342.504 34.6301 342.768 34.7793ZM339.366 34.5058C338.31 34.0583 338.251 34.6052 337.753 34.6052C337.841 34.6798 337.929 34.7295 338.017 34.7793C338.427 34.7047 338.838 34.6052 339.366 34.5058ZM339.073 33.5114C338.867 33.5611 338.75 33.586 338.633 33.6108C338.75 33.6854 338.838 33.76 338.985 33.8097C339.014 33.8097 339.307 33.7351 339.307 33.7351C339.278 33.6606 339.161 33.586 339.073 33.5114ZM340.598 32.7905C340.539 32.9396 340.48 33.0888 340.451 33.2379C340.627 33.2379 340.803 33.2379 341.008 33.2379V32.7905C340.862 32.7905 340.744 32.7905 340.598 32.7905ZM337.342 32.3927C337.137 32.4424 336.902 32.4673 336.902 32.4921C336.932 32.5667 337.02 32.6164 337.078 32.691C337.196 32.6662 337.43 32.6662 337.43 32.6413C337.459 32.5667 337.371 32.4921 337.342 32.3927ZM341.536 32.4424C342.299 32.1192 342.24 31.8955 341.742 31.622C341.008 31.8458 341.184 32.0695 341.536 32.4424ZM355.468 33.6108C355.526 33.5363 355.614 33.4368 355.732 33.2877C354.793 32.9893 353.297 33.0391 352.828 32.3927C352.3 32.7656 351.86 33.0639 351.303 33.4368C351.479 33.4617 351.743 33.5363 352.124 33.6108C351.802 33.9092 351.479 34.1578 351.186 34.4312V34.4064V33.8843C350.599 34.0335 350.218 34.1329 349.836 34.2323C349.778 34.3318 349.719 34.4312 349.66 34.5058C349.572 34.4809 349.484 34.4809 349.397 34.4561C349.543 34.3815 349.66 34.3069 349.807 34.2323V33.7103C349.25 33.8594 348.869 33.9589 348.458 34.0335C348.605 33.7103 348.106 33.3125 349.162 33.0391C348.957 32.8899 348.751 32.7407 348.546 32.6164C348.663 32.3927 348.81 32.1938 348.927 31.9949C349.045 31.9452 349.191 31.8706 349.455 31.7712C348.634 31.622 348.106 31.274 347.109 31.5972C347.783 31.7463 348.341 31.8706 348.898 31.9949H346.904C346.728 32.2684 346.61 32.4673 346.434 32.7407C346.17 32.6662 345.965 32.6164 345.76 32.5667C345.848 32.517 345.936 32.4921 345.994 32.4673C345.994 32.4673 345.994 32.4673 345.994 32.4424C345.906 32.4921 345.818 32.517 345.73 32.5419C345.232 32.5667 344.704 32.5916 344.059 32.6413C344.117 32.4921 344.205 32.3181 344.323 32.1192C344.029 32.0695 343.736 32.0198 343.325 31.9701C343.325 32.4175 342.915 32.8153 343.941 33.1136C343.149 33.2628 342.856 33.4865 343.325 33.8594C344.235 33.6606 343.824 33.3622 343.941 33.1136C344.909 33.1634 345.848 33.1882 346.874 33.2131C347.021 33.1634 347.255 33.0888 347.783 32.8899C347.783 33.412 347.109 33.8843 348.458 34.0583C348.047 34.2323 348.458 34.3815 348.605 34.5555C348.223 34.5804 347.871 34.6052 347.519 34.6301C347.461 34.6798 347.314 34.7544 347.373 34.7793C347.959 35.2267 348.575 35.6494 349.074 36.0223C350.188 36.246 350.57 35.6991 351.567 35.8482C352.065 35.898 352.887 35.5748 353.767 35.351C353.884 35.2267 354.089 35.003 354.353 34.7047C353.825 34.5307 353.297 34.3069 352.623 34.0832C352.799 33.8594 352.975 33.6108 353.209 33.2877C353.972 33.412 354.676 33.4865 355.468 33.6108ZM375.441 33.2379C375.353 33.0888 375.236 32.9645 375.148 32.8153C375.03 32.8402 374.913 32.8402 374.766 32.865C374.854 32.9893 374.972 33.1385 375.06 33.2877C375.177 33.2628 375.324 33.2379 375.441 33.2379ZM375.441 31.8955C375.265 31.8209 375.118 31.7712 374.942 31.6966C374.884 31.7215 374.796 31.7712 374.737 31.796C374.884 31.8458 375.06 31.9203 375.236 31.9701C375.294 31.9452 375.353 31.9203 375.441 31.8955ZM344.762 31.274C344.674 31.3486 344.557 31.4231 344.528 31.4977C344.528 31.5226 344.821 31.5972 344.85 31.5723C344.997 31.5226 345.085 31.448 345.173 31.3734C345.056 31.3486 344.938 31.3237 344.762 31.274ZM376.497 31.0751C376.526 30.6773 375.764 30.6525 375.177 30.5282C374.326 30.6276 373.652 30.7768 373.535 31.274C374.092 31.1497 374.502 31.0502 374.913 30.9508C375.294 31.0502 375.676 31.1497 376.028 31.2491C376.409 31.4729 376.79 31.6966 377.23 31.9452C377.523 31.5474 377.465 31.2243 376.497 31.0751ZM373.065 28.2659C372.684 28.3156 372.215 28.3156 372.127 28.4151C371.745 28.7134 372.215 28.8874 372.86 29.0117C372.919 28.788 372.977 28.5642 373.065 28.2659ZM377.787 25.5313C377.67 25.4319 377.582 25.407 377.523 25.3573C377.377 25.3821 377.201 25.4319 377.083 25.4816C377.054 25.5064 377.23 25.6307 377.259 25.6059C377.435 25.6059 377.611 25.5562 377.787 25.5313ZM374.473 24.8352C374.268 24.7358 374.033 24.6363 373.798 24.5369C373.681 24.5866 373.593 24.6363 373.476 24.6861C373.711 24.7606 373.974 24.8601 374.238 24.9347C374.326 24.9098 374.385 24.8601 374.473 24.8352ZM334.409 24.3877L334.175 24.4623C334.321 24.5369 334.439 24.6115 334.585 24.6861C334.673 24.6363 334.791 24.5866 334.878 24.5618C334.732 24.4872 334.556 24.4375 334.409 24.3877ZM375.998 24.4126C375.881 24.338 375.734 24.2634 375.617 24.1889C375.5 24.2137 375.382 24.2634 375.294 24.2883C375.441 24.3629 375.617 24.4126 375.793 24.4872C375.852 24.4623 375.91 24.4375 375.998 24.4126ZM379.166 23.7165C378.374 23.6917 377.817 23.6917 376.937 23.6668C377.729 24.0646 378.315 24.0646 379.166 23.7165ZM389.46 23.6171C389.343 23.5674 389.167 23.5176 389.02 23.4928C388.932 23.5425 388.874 23.5922 388.756 23.6668C388.932 23.6917 389.108 23.7414 389.284 23.7414C389.314 23.7414 389.49 23.6171 389.46 23.6171ZM372.479 23.5425C373.505 23.9651 374.004 23.6419 374.737 23.4431C373.798 23.3685 373.798 23.3685 372.479 23.5425ZM334.644 23.2939C334.585 23.3436 334.527 23.4182 334.497 23.4679C334.82 23.5176 335.113 23.5674 335.436 23.6419C335.494 23.5674 335.553 23.4928 335.612 23.4182L334.644 23.2939ZM372.215 22.9459C371.921 22.8961 371.628 22.8216 371.335 22.747C371.247 22.7967 371.188 22.8713 371.1 22.921C371.423 22.9707 371.745 23.0204 372.097 23.0702C372.127 23.0204 372.185 22.9956 372.215 22.9459ZM333.383 22.3492C332.561 22.4735 332.18 22.5481 331.506 22.6475C331.975 22.8464 332.151 22.921 332.473 23.0702C332.737 22.8464 332.943 22.6724 333.383 22.3492ZM391.66 22.3989C391.543 22.3989 391.425 22.3741 391.308 22.3492C391.308 22.3989 391.308 22.4238 391.308 22.4735C391.425 22.4487 391.543 22.4238 391.66 22.3989ZM344.381 21.5786C344.528 21.504 344.792 21.4045 344.762 21.3797C344.117 20.9322 343.795 20.3604 342.181 20.1615C342.064 20.5593 341.976 20.9819 341.859 21.4294C342.739 21.504 343.325 22.026 344.381 21.5786ZM346.288 21.6034C346.17 21.6283 346.082 21.6531 345.965 21.678C346.082 21.678 346.2 21.7029 346.317 21.7277C346.317 21.678 346.317 21.6531 346.288 21.6034ZM348.634 21.4294C348.663 21.3797 348.693 21.3051 348.722 21.2554C348.458 21.2305 348.194 21.2057 347.93 21.2057C347.431 21.2057 346.933 21.2057 346.141 21.2057C347.109 21.5537 347.871 21.4791 348.634 21.4294ZM347.578 20.261C347.549 20.2112 347.549 20.1367 347.549 20.0869C348.077 20.0621 348.575 20.0372 349.191 20.0124C349.25 20.0372 349.367 20.1118 349.543 20.1615C349.631 20.2112 349.778 20.2112 350.012 20.2361C349.983 20.1367 350.012 20.0372 349.895 19.9875C349.338 19.7638 348.751 19.54 348.047 19.2417C347.871 19.5152 347.725 19.7886 347.549 20.0869C347.167 20.1367 347.167 20.2112 347.549 20.261C347.578 20.3604 347.637 20.435 347.695 20.5841C348.341 20.6339 349.015 20.6836 350.071 20.7582C349.191 20.3853 348.341 20.3604 347.578 20.261ZM342.006 18.7942C341.067 18.8937 341.038 19.1671 340.686 19.54C341.536 19.2914 342.094 19.1671 342.006 18.7942ZM345.085 19.6395C345.29 19.6643 345.525 19.6892 345.73 19.714C345.789 20.0124 345.818 20.2858 345.848 20.5841C345.965 20.609 346.082 20.609 346.229 20.609C346.346 20.5096 346.64 20.3853 346.581 20.3107C346.405 20.0869 346.053 19.9129 345.76 19.714C345.584 19.6395 345.408 19.5897 345.232 19.54C345.173 19.5649 345.114 19.6146 345.085 19.6395ZM336.257 18.7694C336.404 18.6451 336.521 18.4959 336.726 18.297C336.14 18.2722 335.67 18.2473 335.201 18.2473C335.054 18.7694 335.054 18.7694 334.087 19.2914C334.145 19.3411 334.145 19.4157 334.233 19.4406C334.527 19.54 334.849 19.5897 335.054 19.6395C336.286 19.4903 334.966 18.8688 336.257 18.7694C336.228 18.7694 336.228 18.7694 336.169 18.7445C336.228 18.7694 336.257 18.7694 336.286 18.7942C336.257 18.7942 336.257 18.7694 336.257 18.7694ZM343.619 18.5456C344.117 18.4213 344.117 18.4213 344.264 17.9241C343.824 18.0981 343.443 18.2473 342.973 18.4462C343.296 18.4959 343.531 18.5705 343.619 18.5456ZM290.327 19.2417C290.151 19.2417 289.975 19.2666 289.799 19.3163C289.858 19.366 289.917 19.4406 289.975 19.4406C290.151 19.4654 290.327 19.4157 290.533 19.4157C290.445 19.3163 290.357 19.2168 290.327 19.2417ZM331.3 18.1727C330.919 18.3219 330.655 18.4213 330.332 18.5456C330.538 18.6948 330.743 18.7942 330.919 18.9185C331.74 18.7445 331.946 18.5456 331.3 18.1727ZM281.968 16.2088C281.822 16.3828 281.704 16.4574 281.675 16.532C281.675 16.5817 281.792 16.6563 281.851 16.6563C282.027 16.6563 282.203 16.6314 282.379 16.6065C282.291 16.532 282.232 16.4574 281.968 16.2088ZM334.351 17.0789C333.793 16.6314 334.057 16.0348 333.94 15.4381C333.353 15.4878 332.943 15.5127 332.532 15.5376C332.18 15.5873 331.828 15.637 331.359 15.7116C332.503 16.2585 332.972 16.8551 332.239 17.5264C332.503 17.6755 332.737 17.8247 332.972 17.949C332.855 18.2473 332.737 18.5208 332.649 18.7694C332.386 18.9931 332.122 19.2168 331.711 19.5649C332.415 19.4903 332.737 19.4654 333.177 19.4157C332.972 19.1671 332.796 18.9682 332.649 18.7694C333.148 18.7445 333.647 18.7196 334.263 18.6699C334.145 18.123 335.084 17.6755 334.351 17.0789ZM346.141 16.6065C345.466 16.7308 344.792 16.8551 344.088 16.9794C344.235 17.1286 344.293 17.2032 344.381 17.2778C344.381 17.3026 344.352 17.3026 344.352 17.3026C344.381 17.3026 344.411 17.2778 344.469 17.2529C344.44 17.2778 344.411 17.2778 344.411 17.3026C344.762 17.4021 345.144 17.5015 345.554 17.6009C346.288 17.3523 347.167 17.1286 346.141 16.6065ZM341.8 16.4325C341.507 16.6065 341.214 16.8054 340.92 16.9794C341.067 17.0292 341.214 17.054 341.36 17.1037C341.624 16.9049 341.859 16.706 342.123 16.5071C342.006 16.4822 341.888 16.4574 341.8 16.4325ZM344.938 15.6619C344.176 15.7862 343.677 15.8856 342.768 16.0596C344.117 16.2336 344.557 16.0845 344.938 15.6619ZM348.37 16.2088C348.106 16.0348 347.871 15.8359 347.519 15.5873C347.197 15.6867 346.904 15.7862 346.346 15.9602C347.109 16.1342 347.637 16.2336 348.135 16.3579C348.223 16.3082 348.282 16.2585 348.37 16.2088ZM347.49 15.289C347.431 15.2392 347.373 15.1895 347.314 15.1398C347.285 15.1895 347.226 15.2392 347.167 15.289C347.285 15.289 347.373 15.289 347.49 15.289ZM343.032 14.6923C342.621 14.6674 342.211 14.6426 341.566 14.5929C341.859 14.7918 342.035 14.8912 342.299 15.0652C342.621 14.9161 342.827 14.7918 343.032 14.6923ZM345.642 14.7669C345.554 14.4188 344.469 14.4188 343.032 14.6923C343.413 14.7918 343.765 14.8912 344.176 14.9906C344.645 14.9161 345.173 14.8415 345.642 14.7669ZM335.289 14.3194C334.791 14.3443 334.468 14.3443 334.057 14.3691C334.527 14.6674 334.527 14.6674 335.289 14.3194ZM340.099 14.1951C339.864 14.1702 339.659 14.1454 339.425 14.1205C339.425 14.1205 339.395 14.1205 339.395 14.0957C339.395 14.1205 339.425 14.1205 339.483 14.1454C339.63 14.1951 339.806 14.2448 339.952 14.2945C339.982 14.2697 340.04 14.22 340.099 14.1951ZM345.73 13.6233C345.496 13.3499 345.261 13.1013 345.026 12.8278C344.674 12.8527 344.411 12.8527 343.853 12.9024C344.205 13.0764 344.381 13.1758 344.645 13.3001C344.44 13.499 344.176 13.7228 343.941 13.9465C344.205 14.0459 344.44 14.1454 344.792 14.2697C345.114 14.0459 345.408 13.8471 345.73 13.6233ZM336.316 13.0515C336.433 13.0515 336.55 13.0515 336.638 13.0515C336.58 13.0018 336.521 12.9521 336.492 12.9024C336.433 12.9521 336.374 13.0018 336.316 13.0515ZM340.363 13.5487C340.568 13.6233 340.774 13.6979 340.979 13.7725C341.888 13.5985 341.976 13.3499 342.035 12.9024C341.331 13.1758 340.92 13.325 340.363 13.5487ZM337.899 13.2256C338.281 13.3747 338.603 13.6482 339.425 13.2256H337.899ZM343.531 13.9714C343.384 14.0211 343.237 14.0708 343.179 14.1454C343.149 14.1702 343.384 14.2697 343.443 14.2697C343.589 14.22 343.765 14.1702 343.883 14.1205C343.941 14.0708 343.912 13.9962 343.941 13.9465C343.795 13.9465 343.619 13.9465 343.531 13.9714ZM331.564 14.1702C331.242 14.1702 330.919 14.1454 330.626 14.1454V14.6177C331.242 14.7669 331.506 14.6426 331.564 14.1702ZM324.995 11.7588C324.496 12.1814 324.261 12.3803 323.909 12.6538C323.587 12.4798 323.352 12.3803 323.147 12.256C323 12.3555 322.678 12.4798 322.736 12.5543C322.941 12.8278 323.029 13.0764 321.944 13.2256C322.707 13.3996 323.117 13.499 323.616 13.6233C323.763 13.3499 323.851 13.151 323.939 12.9272C324.203 12.9521 324.379 12.9521 324.437 12.977C324.789 13.2753 325.17 13.5736 325.464 13.8968C325.669 14.0957 325.728 14.3194 325.874 14.6426H328.661C328.514 14.4934 328.367 14.3194 328.221 14.1454C327.957 14.1702 327.663 14.1951 327.4 14.22C325.757 13.6233 325.522 12.7781 324.995 11.7588ZM328.455 13.7476C328.309 13.6979 328.133 13.6482 327.986 13.5985C327.898 13.6482 327.839 13.6979 327.722 13.7973C327.898 13.8222 328.074 13.8719 328.25 13.8719C328.309 13.8719 328.485 13.7476 328.455 13.7476ZM323.293 11.5351C323.235 11.7837 323.205 12.0323 323.147 12.256C323.557 12.0571 323.968 11.8334 324.467 11.5599C324.027 11.5599 323.763 11.5351 323.293 11.5351ZM306.722 13.8719C306.576 13.7476 306.458 13.6233 306.253 13.4244C306.546 13.2256 306.84 13.0018 307.25 12.7532C306.752 12.6289 306.341 12.5543 305.637 12.3803C305.754 12.7035 305.813 12.8775 305.872 13.0764C305.667 13.2007 305.461 13.325 305.168 13.499C305.579 13.6482 305.989 13.7973 306.4 13.9465C306.517 13.9216 306.605 13.8968 306.722 13.8719ZM273.199 13.0764C272.964 13.0515 272.759 13.0267 272.554 13.0018C272.202 12.7284 271.762 12.5792 270.882 12.6786C271.175 13.0515 271.879 13.0018 272.495 13.0267C272.671 13.0764 272.876 13.1261 273.052 13.1758C273.111 13.151 273.14 13.1013 273.199 13.0764ZM277.774 13.0764C277.54 13.2007 277.364 13.3001 277.129 13.4244C276.513 13.2753 276.015 13.1758 275.34 13.0018C276.073 13.7725 276.073 13.7725 278.478 13.6482C278.185 13.3996 278.009 13.2504 277.774 13.0764ZM290.503 13.3747C290.943 13.0515 291.148 12.8775 291.383 12.7284C290.738 12.6289 290.181 12.5543 289.653 12.4798C289.535 12.5295 289.359 12.5792 289.33 12.6041C289.154 12.9024 289.477 13.0267 290.151 13.0018C290.239 13.1013 290.327 13.1758 290.503 13.3747ZM289.623 13.325C289.506 13.3499 289.418 13.3499 289.33 13.3499C289.359 13.3996 289.418 13.4493 289.477 13.4742C289.535 13.4244 289.565 13.3747 289.623 13.325ZM285.869 11.7588C285.605 11.7588 285.341 11.7588 285.341 11.7837C284.989 12.1814 283.288 12.1566 283.464 12.8278C284.403 12.6538 285.136 12.5046 286.133 12.3057C286.016 12.082 285.957 11.908 285.869 11.7588ZM308.159 11.5351C308.013 11.4854 307.866 11.4108 307.749 11.3362C307.661 11.3859 307.573 11.4108 307.485 11.4605C307.661 11.5102 307.837 11.5599 308.042 11.6097C308.042 11.6097 308.159 11.5599 308.159 11.5351ZM273.404 11.908L273.434 11.8831C273.58 11.8334 273.698 11.7588 274.05 11.6097C273.316 11.5848 272.788 11.5599 272.055 11.5351C272.348 11.8831 272.554 12.1566 272.759 12.43C272.876 12.43 273.023 12.43 273.14 12.43C273.228 12.256 273.316 12.082 273.404 11.908ZM281.646 12.6289C281.675 12.5792 281.734 12.5543 281.792 12.5046C281.558 12.4798 281.323 12.4798 281.118 12.4549C280.561 12.1814 280.033 11.8831 279.329 11.5351C278.86 11.5351 278.214 11.5102 277.628 11.5102C277.1 11.7091 276.601 11.908 276.132 12.082C277.628 12.5792 279.241 12.8029 281.118 12.4549C281.294 12.5046 281.47 12.5792 281.646 12.6289ZM275.223 11.3362C275.457 11.2368 275.692 11.1373 276.044 10.9882C275.545 10.8887 275.135 10.839 274.665 10.7644C274.196 11.1125 274.196 11.3113 275.223 11.3362C274.665 11.8831 274.724 11.9328 276.132 12.082C275.839 11.8334 275.545 11.5848 275.223 11.3362ZM281.03 11.2119C280.942 11.1373 280.883 11.0379 280.825 11.0379C280.649 11.0379 280.473 11.0876 280.297 11.1125C280.355 11.1622 280.414 11.2616 280.473 11.2616C280.649 11.2616 280.825 11.2368 281.03 11.2119ZM288.45 10.5407C287.541 10.3418 287.101 10.4164 286.456 10.839C287.306 10.7147 287.746 10.665 288.45 10.5407ZM304.024 10.491C303.731 10.5158 303.496 10.5655 303.261 10.5904C303.291 10.5904 303.291 10.5904 303.32 10.6153C303.291 10.5904 303.261 10.5904 303.261 10.5904C303.701 10.8639 303.936 10.8141 304.024 10.491ZM282.614 9.96889C282.702 9.94403 282.79 9.89431 282.848 9.84459C282.584 9.79487 282.291 9.72029 282.027 9.67057C282.203 9.77001 282.408 9.86945 282.614 9.96889ZM277.862 9.69543C277.804 9.64571 277.774 9.59599 277.716 9.54627C277.657 9.59599 277.628 9.64571 277.569 9.69543C277.657 9.69543 277.774 9.69543 277.862 9.69543ZM285.811 8.32813C285.077 8.45243 284.608 8.62645 284.872 9.12365C285.84 8.92477 286.632 8.80047 287.57 8.62645C287.013 8.32813 286.602 8.17897 285.811 8.32813ZM294.903 10.2424C295.871 9.91917 296.428 9.74515 296.868 9.59599C296.574 8.80047 295.665 8.25355 294.257 7.78121C293.671 7.95523 293.055 8.12925 292.439 8.30327C292.439 9.09879 294.228 9.39711 294.903 10.2424C294.697 10.2424 294.463 10.2672 294.199 10.2921C294.844 10.4164 295.255 10.491 295.665 10.5904C295.636 10.2672 295.343 10.2175 294.903 10.2424ZM298.364 7.20942C298.539 6.71222 298.51 6.71222 297.014 6.81166C297.132 7.13484 297.542 7.284 298.364 7.20942ZM288.831 6.041C287.922 6.19016 288.802 6.5382 288.597 6.76194C289.154 6.83652 289.711 6.9111 290.533 7.0354C290.65 6.98568 290.914 6.88624 291.148 6.81166C290.151 6.48848 289.535 6.26474 288.831 6.041ZM297.718 5.96642C297.718 6.01614 297.718 6.041 297.748 6.09072L298.1 6.01614C297.953 6.01614 297.836 5.99128 297.718 5.96642ZM300.593 6.14044C300.299 5.99128 300.035 5.86698 299.449 5.59352C299.155 5.7924 298.95 5.9167 298.686 6.11558C299.331 6.36418 299.859 6.36418 300.593 6.14044ZM297.836 4.87258C297.63 4.798 297.425 4.69856 297.278 4.64884C296.046 4.69856 296.017 5.02174 296.017 5.34492C296.046 5.56866 296.164 5.76754 297.161 5.71782C297.396 5.44436 297.601 5.19576 297.836 4.87258ZM299.067 4.6737C299.067 4.69856 299.097 4.74828 299.097 4.798C299.214 4.77314 299.331 4.74828 299.449 4.72342C299.331 4.69856 299.185 4.6737 299.067 4.6737ZM302.44 5.27034C302.528 5.24548 302.587 5.24548 302.646 5.24548C302.558 5.14604 302.44 5.07146 302.352 4.99688C302.294 4.82286 302.235 4.64884 302.176 4.44996C301.296 4.798 301.296 4.798 302.352 4.99688C302.382 5.09632 302.411 5.1709 302.44 5.27034ZM43.7558 1.78993C44.049 1.93909 44.3423 2.11311 44.6356 2.26227C43.9904 2.51087 43.5798 2.88377 42.4653 2.80919L41.9373 2.63517C41.8787 2.66003 41.8493 2.70975 41.7907 2.73461C41.996 2.75947 42.2306 2.78433 42.4653 2.80919C42.3186 2.93349 42.172 3.08265 41.9667 3.30639C44.049 3.10751 45.9261 2.93349 48.0378 2.75947C47.6566 2.51087 47.3633 2.36171 47.2459 2.18769C47.1286 2.06339 47.2753 1.91423 47.3633 1.64077C46.7473 1.81479 46.3661 1.91423 46.0141 2.01367C44.665 1.88937 46.1608 1.39216 45.2222 1.16842C44.489 1.21814 44.0784 1.44188 43.7558 1.78993ZM36.1301 2.23741C36.0421 2.28713 35.9542 2.31199 35.8662 2.33685C35.8955 2.33685 35.8955 2.33685 35.8955 2.36171C35.9835 2.31199 36.0715 2.28713 36.1301 2.23741C36.2768 2.16283 36.4234 2.08825 36.5701 2.01367C36.4821 2.01367 36.3941 1.98881 36.2768 1.96395L36.1301 2.23741ZM39.6496 2.36171C39.679 2.23741 39.679 2.11311 39.7083 2.01367C38.1832 1.96395 38.1832 1.96395 37.3913 2.36171H39.6496ZM42.9932 2.43629C43.0518 2.38657 43.0812 2.33685 43.1398 2.31199C42.9345 2.28713 42.6999 2.26227 42.4946 2.23741C42.2893 2.18769 42.1133 2.11311 41.9373 2.06339C41.8787 2.11311 41.82 2.13797 41.7907 2.18769C41.996 2.21255 42.2306 2.23741 42.4359 2.26227C42.6412 2.31199 42.8172 2.36171 42.9932 2.43629ZM21.2015 2.51087C21.4948 2.88377 21.8761 3.03293 22.844 2.93349C22.8733 2.83405 22.9319 2.68489 23.0199 2.51087H21.2015ZM39.8843 3.33125C39.9723 3.40583 40.0896 3.48041 40.2362 3.53013C40.3242 3.55499 40.5002 3.53013 40.6468 3.55499C40.6468 3.48041 40.6762 3.40583 40.5882 3.38097C40.5002 3.30639 40.3242 3.25667 40.1482 3.23181C40.0896 3.23181 39.855 3.30639 39.8843 3.33125ZM36.5994 3.80359C36.7167 3.80359 36.8047 3.80359 36.922 3.80359C36.9514 3.70415 36.9807 3.57985 37.01 3.48041C36.922 3.48041 36.8047 3.45555 36.7167 3.45555C36.6874 3.57985 36.6581 3.67929 36.5994 3.80359ZM61.5 5.22062C62.2039 4.9223 62.5265 4.798 63.1131 4.5494C62.2332 4.42509 61.7933 4.35051 60.9721 4.22621C61.148 4.57426 61.2654 4.77314 61.5 5.22062ZM60.8841 5.84212C61.2654 5.61838 61.5 5.49408 61.7639 5.34492C60.9134 5.32006 60.5028 5.44436 60.8841 5.84212ZM23.0493 6.041C23.9291 5.81726 23.9291 5.81726 23.1079 5.44436C23.0786 5.6681 23.0786 5.84212 23.0493 6.041ZM48.5071 7.53261C49.0644 7.55747 49.5923 7.60719 50.1495 7.63205C50.1495 7.75635 50.1495 7.88065 50.1202 8.00495C49.5336 7.95523 48.947 7.88065 48.3605 7.83093C48.3018 7.78121 48.2138 7.73149 48.1551 7.70663C48.2138 7.75635 48.2725 7.78121 48.3018 7.83093C48.6831 8.15411 49.035 8.47729 50.1495 8.40271C50.5015 8.60159 50.8828 8.82533 51.2641 9.04907C51.7333 8.89991 52.1733 8.75075 52.6719 8.57673C52.5252 8.35299 52.3492 8.07953 52.0559 7.65691C51.5573 7.65691 50.8534 7.65691 50.1495 7.63205C49.8562 7.1597 49.563 6.6625 49.2697 6.1653C49.6803 6.14044 50.0909 6.11558 50.8241 6.041C50.3255 5.84212 50.0616 5.71782 49.7389 5.64324C49.563 5.61838 49.2403 5.71782 48.947 5.76754C49.0644 5.9167 49.123 6.041 49.211 6.14044C47.8325 6.46362 48.3898 6.96082 48.5071 7.53261ZM24.809 7.10998C25.3076 7.25914 25.7476 7.35858 26.1875 7.45803C27.214 7.20942 27.8886 6.93596 27.3313 6.38904C26.0995 6.38904 25.6009 6.7868 24.809 7.10998ZM21.7001 7.45803C21.7881 7.48289 21.8468 7.53261 21.9054 7.55747C22.0814 7.50775 22.2574 7.45803 22.4333 7.38344C22.3747 7.35858 22.316 7.33372 22.2574 7.284C22.0814 7.33372 21.9054 7.40831 21.7001 7.45803ZM19.4124 8.20383C19.823 8.12925 20.2043 8.05467 20.8789 7.95523C19.7644 7.75635 19.4418 7.88065 19.4124 8.20383ZM21.2895 8.80047C21.7588 9.04907 22.316 9.12365 23.0199 8.94963C22.7853 8.65131 22.5507 8.37785 22.316 8.07953C21.2895 8.12925 21.2895 8.12925 21.2895 8.80047ZM23.5479 9.27281C23.5772 9.27281 23.8118 9.17337 23.8118 9.14851C23.7238 9.09879 23.6065 9.02421 23.4599 8.97449C23.3426 8.94963 23.1666 8.94963 23.0199 8.94963C23.0493 8.99935 23.0199 9.07393 23.0786 9.12365C23.1959 9.17337 23.3719 9.22309 23.5479 9.27281ZM37.8019 9.42197C37.9485 9.29767 38.0952 9.17337 38.2418 9.04907C38.0952 9.02421 37.9779 8.99935 37.8312 8.97449C37.7432 9.09879 37.6259 9.24795 37.5379 9.39711C37.6259 9.39711 37.7139 9.42197 37.8019 9.42197ZM45.6328 10.0683C45.1342 10.0186 44.665 9.96889 43.9904 9.89431C43.9611 10.1181 43.9317 10.3418 43.8731 10.5904C44.9289 10.5655 45.2809 10.3169 45.6328 10.0683C45.8381 10.0435 46.0434 10.0435 46.4247 10.0186C46.2194 9.89431 46.1021 9.81973 45.8381 9.67057C45.7208 9.86945 45.6915 9.96889 45.6328 10.0683ZM22.1107 10.8141C22.1694 10.8639 22.2574 10.8887 22.316 10.9384C22.6386 10.8887 22.9613 10.8141 23.2546 10.7644C23.1372 10.665 23.0199 10.5655 22.844 10.4164C22.5213 10.5904 22.316 10.7147 22.1107 10.8141ZM13.9278 10.5655C14.1625 10.7147 14.3385 10.8141 14.6317 10.9882C14.8077 10.5655 14.8077 10.5655 13.9278 10.5655ZM17.9166 10.9882C17.946 10.9882 17.77 10.8639 17.7407 10.8639C17.5647 10.8639 17.3887 10.9136 17.2127 10.9633C17.33 11.0379 17.418 11.0876 17.4767 11.1373C17.6233 11.0876 17.7993 11.0379 17.9166 10.9882ZM24.8383 11.3611C24.8383 11.5599 24.985 11.7588 25.5716 11.7091C25.8355 11.6842 26.0115 11.4854 26.4515 11.2616C25.6596 11.3113 25.249 11.3362 24.8383 11.3611C24.809 10.9384 24.2811 10.9633 23.5185 11.2368C23.9585 11.2865 24.3984 11.3362 24.8383 11.3611ZM20.6443 11.9577C21.1429 12.0571 21.4361 12.1069 21.8174 12.1566C21.7588 12.3803 21.7294 12.6289 21.6708 12.8527C22.4627 12.6538 23.2252 12.43 24.2811 12.1566C23.2546 11.908 22.5213 11.734 21.3775 11.4605C21.2015 11.5848 20.9669 11.734 20.6443 11.9577ZM15.453 12.0571C15.5116 12.1317 15.5996 12.2063 15.7169 12.2809C15.8929 12.2312 16.0102 12.1814 16.1275 12.1566C16.0102 12.1069 15.9222 12.0323 15.8049 11.9826C15.7756 11.9577 15.453 12.0323 15.453 12.0571ZM21.6708 13.0515C21.5828 13.1261 21.4948 13.2007 21.3188 13.3747C21.7881 13.325 22.1107 13.2753 22.8733 13.151C22.1694 13.1013 21.9054 13.0764 21.6708 13.0515C21.6708 12.977 21.6708 12.9272 21.6708 12.8527C21.2602 12.9272 21.2602 12.977 21.6708 13.0515ZM19.6177 13.325C19.735 13.3499 19.8524 13.3747 19.9697 13.3747C19.9697 13.3499 19.9697 13.3001 19.9697 13.2504C19.8524 13.2753 19.735 13.3001 19.6177 13.325ZM32.0534 12.4798C31.6427 12.5046 31.2321 12.5295 30.7042 12.5543C31.5548 12.9272 31.5548 12.9272 32.0534 12.4798ZM33.4025 12.4549C32.9039 12.256 32.4933 12.2063 32.0827 12.4798C32.4933 12.5046 32.8746 12.8029 33.4025 12.4549ZM38.5351 12.2063C39.0631 12.1317 39.6203 12.082 40.3829 11.9826C39.3857 11.8334 39.3857 11.8334 38.5351 12.2063ZM39.5323 13.4742C39.4737 13.5487 39.3564 13.673 39.239 13.7973C40.2069 14.0957 41.7027 14.0459 42.1426 14.6923C42.6999 14.3194 43.1398 14.0211 43.6971 13.673C43.4918 13.6233 43.2572 13.5736 42.8759 13.4742C43.1985 13.2007 43.5211 12.9272 43.8144 12.6786V13.2007C44.401 13.0515 44.7823 12.9521 45.1636 12.8527H45.1929V13.3747C45.7501 13.2256 46.1314 13.1261 46.542 13.0515C46.3954 13.3747 46.894 13.7725 45.8088 14.0459C46.0141 14.1951 46.2487 14.3443 46.454 14.4686C46.3074 14.6923 46.1901 14.8912 46.0728 15.0901C45.9261 15.1398 45.8088 15.2144 45.5448 15.3138C46.3367 15.463 46.894 15.811 47.8912 15.5127C47.2166 15.3387 46.6594 15.2144 46.1021 15.0901H48.0965C48.2725 14.8166 48.3898 14.6177 48.5364 14.3443C48.8297 14.4188 49.035 14.4686 49.2403 14.5183C49.1523 14.568 49.0644 14.5929 48.9764 14.6177C49.0057 14.6426 49.0057 14.6426 49.0057 14.6426C49.0937 14.5929 49.1817 14.568 49.2697 14.5431C49.7683 14.5183 50.2669 14.4934 50.9414 14.4437C50.8828 14.5929 50.7948 14.7669 50.6775 14.9906C50.9708 15.0155 51.2641 15.0652 51.6747 15.1149C51.6747 14.6674 52.0853 14.2697 51.0588 13.9714C51.8506 13.8222 52.1439 13.5985 51.6747 13.2256C50.7655 13.4244 51.1761 13.7228 51.0588 13.9714C50.0909 13.9465 49.1523 13.8968 48.1258 13.8719C47.9792 13.9216 47.7445 13.9962 47.2166 14.1951C47.1873 13.673 47.8912 13.2007 46.542 13.0515C46.9526 12.8527 46.542 12.7035 46.3954 12.5295C46.7473 12.5046 47.1286 12.4798 47.4806 12.4549C47.5392 12.4052 47.6859 12.3306 47.6272 12.3057C47.0406 11.8583 46.4247 11.4356 45.9261 11.0627C44.8116 10.8639 44.4303 11.3859 43.4331 11.2616C42.9345 11.187 42.084 11.5351 41.2041 11.734C41.1161 11.8583 40.9108 12.082 40.6468 12.3803C41.1748 12.5792 41.7027 12.7781 42.3773 13.0267C42.2013 13.2256 42.0253 13.4742 41.7907 13.7973C41.0281 13.6979 40.3242 13.5985 39.5323 13.4742ZM19.5297 13.8719C19.6471 13.9962 19.735 14.1205 19.8524 14.2697C19.9697 14.2448 20.087 14.2448 20.2043 14.22C20.1163 14.0957 20.0283 13.9465 19.9404 13.8222C19.823 13.8222 19.6764 13.8471 19.5297 13.8719ZM19.5591 15.2144C19.735 15.2641 19.8817 15.3387 20.0577 15.3884C20.1163 15.3635 20.2043 15.3138 20.263 15.289C20.087 15.2392 19.9404 15.1647 19.7644 15.1149C19.7057 15.1398 19.6177 15.1647 19.5591 15.2144ZM18.5032 16.0099C18.4739 16.4077 19.2071 16.4325 19.823 16.5568C20.6443 16.4574 21.3482 16.3331 21.4655 15.811C20.9082 15.9353 20.4976 16.0348 20.087 16.1342C19.7057 16.0348 19.3244 15.9353 18.9432 15.8359C18.5912 15.6121 18.2099 15.3884 17.77 15.1398C17.4767 15.5376 17.5353 15.8607 18.5032 16.0099ZM21.9347 18.8191C22.316 18.7694 22.7853 18.7694 22.8733 18.6948C23.2546 18.3716 22.7853 18.1976 22.1107 18.0733C22.0521 18.297 22.0227 18.5208 21.9347 18.8191ZM17.2127 21.5786C17.33 21.6531 17.3887 21.7029 17.4767 21.7526C17.6233 21.7029 17.7993 21.6531 17.9166 21.6034C17.946 21.6034 17.77 21.4791 17.7407 21.4791C17.5647 21.4791 17.3887 21.5288 17.2127 21.5786ZM20.5269 22.2498C20.7322 22.3492 20.9669 22.4487 21.1722 22.5481C21.2895 22.4984 21.4068 22.4487 21.5241 22.3989C21.2895 22.3244 21.0255 22.2498 20.7616 22.1503C20.6736 22.1752 20.5856 22.2249 20.5269 22.2498ZM19.0018 22.6973C19.1191 22.7718 19.2658 22.8464 19.3831 22.921C19.5004 22.8713 19.5884 22.8216 19.7057 22.7967C19.5591 22.7221 19.3831 22.6724 19.2071 22.5978C19.1485 22.6227 19.0605 22.6475 19.0018 22.6973ZM15.8342 23.3685C16.6261 23.3933 17.1834 23.3933 18.0633 23.4182C17.2714 23.0204 16.6848 23.0204 15.8342 23.3685ZM5.53966 23.4679C5.65698 23.5176 5.83295 23.5674 5.9796 23.6171C6.06759 23.5674 6.12625 23.5176 6.24356 23.4182C6.06759 23.3933 5.89161 23.3436 5.71563 23.3436C5.65698 23.3436 5.51033 23.4679 5.53966 23.4679ZM22.5213 23.5674C21.4948 23.1199 20.9962 23.4431 20.2336 23.6419C21.2015 23.7414 21.2015 23.7414 22.5213 23.5674ZM60.3561 23.7911C60.4148 23.7414 60.4441 23.6917 60.5028 23.6171C60.1802 23.5674 59.8869 23.5176 59.5643 23.4679C59.5056 23.5176 59.4469 23.5922 59.3883 23.6668L60.3561 23.7911ZM22.7853 24.1391C23.0786 24.2137 23.3719 24.2634 23.6652 24.338C23.7532 24.2883 23.8118 24.2137 23.8998 24.164C23.5772 24.1143 23.2252 24.0646 22.9026 24.0148C22.8733 24.0646 22.8146 24.0894 22.7853 24.1391ZM3.33996 24.6861C3.45728 24.7109 3.5746 24.7109 3.69191 24.7358C3.69191 24.6861 3.69191 24.6612 3.69191 24.6115C3.5746 24.6363 3.45728 24.6612 3.33996 24.6861ZM63.4944 24.4375C63.0251 24.2386 62.8491 24.164 62.5265 24.0148C62.2625 24.2386 62.0279 24.4126 61.6173 24.7606C62.4092 24.6115 62.8198 24.5618 63.4944 24.4375ZM50.5895 25.5064C50.4722 25.581 50.2082 25.6805 50.2375 25.7053C50.8828 26.1528 51.2054 26.7246 52.8185 26.9235C52.9065 26.5257 53.0238 26.1279 53.1411 25.6556C52.2613 25.581 51.6747 25.059 50.5895 25.5064ZM48.6831 25.4816C48.8004 25.4567 48.9177 25.4319 49.035 25.407C48.9177 25.407 48.8004 25.3821 48.6831 25.3573C48.6831 25.407 48.6831 25.4319 48.6831 25.4816ZM46.3661 25.6556C46.3367 25.7053 46.3074 25.7799 46.2781 25.8296C46.542 25.8545 46.806 25.8793 47.07 25.8793C47.5686 25.9042 48.0672 25.8793 48.8297 25.8793C47.8912 25.5313 47.1286 25.6059 46.3661 25.6556ZM47.4219 26.824C47.4219 26.8738 47.4219 26.9483 47.4219 26.9981C46.9233 27.0229 46.4247 27.0478 45.8088 27.0726C45.7501 27.0478 45.6328 26.9732 45.4569 26.9235C45.3689 26.8738 45.2222 26.8738 44.9583 26.8489C45.0169 26.9483 44.9876 27.0478 45.1049 27.0975C45.6622 27.3212 46.2487 27.5698 46.9526 27.8433C47.1286 27.5698 47.2753 27.2964 47.4219 26.9981C47.8325 26.9483 47.8325 26.8738 47.4512 26.824C47.3926 26.7246 47.3633 26.65 47.3046 26.5257C46.6594 26.476 45.9848 26.4014 44.9289 26.3268C45.8088 26.6997 46.6594 26.7246 47.4219 26.824ZM52.9945 28.2908C53.933 28.2162 53.9624 27.9427 54.3143 27.545C53.4638 27.7936 52.9065 27.9179 52.9945 28.2908ZM58.743 28.3156C58.5964 28.4399 58.4791 28.5891 58.2738 28.788C58.8603 28.8128 59.3296 28.8377 59.7989 28.8626C59.9455 28.3156 59.9455 28.3156 60.9134 27.7936C60.8547 27.7439 60.8547 27.6693 60.7668 27.6444C60.4735 27.5698 60.1508 27.4953 59.9162 27.4455C58.7137 27.5947 60.0335 28.2162 58.743 28.3156C58.7724 28.3156 58.7724 28.3156 58.8017 28.3405C58.7724 28.3156 58.743 28.3156 58.7137 28.2908C58.7137 28.3156 58.743 28.3156 58.743 28.3156ZM51.3814 28.5394C50.8828 28.6637 50.8828 28.6885 50.7361 29.1609C51.1761 28.9869 51.5573 28.8377 51.9973 28.6637C51.704 28.5891 51.44 28.5145 51.3814 28.5394ZM60.6494 30.0061C61.1774 30.4536 60.9427 31.0502 61.06 31.6469C61.6466 31.5972 62.0572 31.5723 62.4679 31.5474C62.8198 31.4977 63.1424 31.448 63.641 31.3734C62.4972 30.8265 62.0279 30.2547 62.7611 29.5835C62.4972 29.4095 62.2332 29.2603 62.0279 29.136C62.1452 28.8377 62.2625 28.5891 62.3505 28.3156C62.6145 28.0919 62.8785 27.8682 63.2891 27.5201C62.5852 27.5947 62.2625 27.6196 61.8226 27.6693C62.0279 27.9179 62.1746 28.1168 62.3505 28.3156C61.8519 28.3405 61.3533 28.3654 60.7374 28.4151C60.8547 28.962 59.8869 29.4095 60.6494 30.0061ZM48.8591 30.4785C49.5336 30.3542 50.2082 30.2299 50.8828 30.1056C50.7655 29.9813 50.6775 29.8818 50.6188 29.8072L50.6481 29.7824C50.6188 29.8072 50.5895 29.8072 50.5308 29.8321C50.5602 29.8072 50.5602 29.8072 50.5895 29.7824C50.2375 29.6829 49.8562 29.5835 49.4456 29.4841C48.7124 29.7327 47.8325 29.9564 48.8591 30.4785ZM53.1998 30.6525C53.4931 30.4785 53.7864 30.2796 54.0797 30.1056C53.933 30.0558 53.7864 30.031 53.6397 29.9813C53.3758 30.1801 53.1411 30.379 52.8772 30.5779C52.9945 30.6028 53.0825 30.6276 53.1998 30.6525ZM50.0616 31.448C50.8241 31.2988 51.3227 31.1994 52.2319 31.0254C50.8828 30.8514 50.4428 31.0005 50.0616 31.448ZM46.63 30.8762C46.894 31.0751 47.1286 31.2491 47.4806 31.4977C47.7739 31.3983 48.0965 31.2988 48.6537 31.1248C47.8619 30.9508 47.3633 30.8514 46.8647 30.7271C46.7767 30.7768 46.718 30.8265 46.63 30.8762ZM47.5099 31.796C47.5686 31.8458 47.6272 31.8955 47.6566 31.9452C47.7152 31.8955 47.7739 31.8458 47.8032 31.796C47.7152 31.796 47.5979 31.796 47.5099 31.796ZM51.968 32.3927C52.3786 32.4175 52.7892 32.4424 53.4051 32.4921C53.1411 32.3181 52.9652 32.1938 52.7012 32.0198C52.3786 32.1938 52.1733 32.2932 51.968 32.3927ZM49.3577 32.3181C49.4163 32.6662 50.5308 32.6662 51.968 32.3927C51.5867 32.3181 51.2347 32.2187 50.8241 32.0944C50.3548 32.1689 49.8269 32.2435 49.3577 32.3181ZM59.7109 32.7656C60.2095 32.7407 60.5321 32.7407 60.9427 32.7159C60.4735 32.4175 60.4735 32.4175 59.7109 32.7656ZM54.9009 32.8899C55.1355 32.9148 55.3408 32.9396 55.5755 32.9645C55.5755 32.9645 55.6048 32.9645 55.6048 32.9893C55.6048 32.9645 55.5461 32.9645 55.5168 32.9396C55.3702 32.8899 55.1942 32.8402 55.0475 32.7905C54.9889 32.8153 54.9595 32.865 54.9009 32.8899ZM49.2697 33.4617C49.5043 33.7351 49.7389 33.9837 49.9736 34.2572C50.3255 34.2323 50.5895 34.2323 51.1467 34.2075C50.7948 34.0086 50.6188 33.9092 50.3548 33.7849C50.5602 33.586 50.7948 33.3622 51.0588 33.1385C50.7948 33.0391 50.5602 32.9645 50.2082 32.8153C49.8856 33.0391 49.5923 33.2628 49.2697 33.4617ZM58.655 34.0335C58.5671 34.0335 58.4497 34.0335 58.3617 34.0335C58.4204 34.0832 58.4497 34.1329 58.5084 34.1826C58.5671 34.1329 58.6257 34.0832 58.655 34.0335ZM54.6369 33.5611C54.4316 33.4617 54.2263 33.3871 54.021 33.3125C53.1118 33.4865 53.0238 33.7351 52.9652 34.1826C53.6691 33.9092 54.0797 33.76 54.6369 33.5611ZM57.1006 33.8594C56.7193 33.7103 56.3967 33.4368 55.5461 33.8594H57.1006ZM51.4694 33.1136C51.616 33.0888 51.7627 33.0142 51.8213 32.9396C51.8506 32.9148 51.616 32.8153 51.5573 32.8402C51.4107 32.865 51.2347 32.9148 51.1174 32.9645C51.0294 33.0142 51.0588 33.0888 51.0588 33.1385C51.2054 33.1385 51.3814 33.1634 51.4694 33.1136ZM63.4357 32.9148C63.7583 32.9148 64.081 32.9396 64.3743 32.9396V32.4673C63.7583 32.3181 63.4944 32.4424 63.4357 32.9148ZM69.9762 35.3262C70.4748 34.9036 70.7387 34.7047 71.0907 34.4312C71.4133 34.6052 71.6186 34.7047 71.8532 34.829C71.9999 34.7295 72.3225 34.6052 72.2638 34.5307C72.0585 34.2572 71.9705 34.0086 73.0557 33.8594C72.2932 33.6854 71.8826 33.586 71.384 33.4617C71.2373 33.7351 71.1493 33.934 71.0613 34.1578C70.7974 34.1329 70.6214 34.1329 70.5627 34.108C70.2108 33.8097 69.8295 33.5114 69.5362 33.2131C69.3309 32.9893 69.2723 32.7656 69.0963 32.4673H66.3393C66.486 32.5916 66.6326 32.7656 66.7793 32.9396C67.0432 32.9148 67.3365 32.8899 67.6005 32.865C69.2429 33.4617 69.4776 34.3318 69.9762 35.3262ZM66.5446 33.3374C66.6913 33.3871 66.8672 33.4368 67.0139 33.4865C67.0726 33.4368 67.1605 33.3871 67.2779 33.2877C67.1019 33.2628 66.9259 33.2131 66.7499 33.2131C66.6913 33.2131 66.5153 33.3374 66.5446 33.3374ZM71.7066 35.5499C71.7359 35.3013 71.7946 35.0527 71.8532 34.829C71.4426 35.0279 71.032 35.2516 70.5334 35.5251C70.9734 35.5251 71.2373 35.5499 71.7066 35.5499ZM88.2776 33.2131C88.4243 33.3374 88.5416 33.4865 88.7469 33.6606C88.4536 33.8594 88.131 34.0832 87.7497 34.3566C88.2483 34.4561 88.6589 34.5555 89.3628 34.7047C89.2455 34.4064 89.1869 34.2075 89.1282 34.0086C89.3335 33.8843 89.5388 33.76 89.8321 33.586C89.4215 33.4368 89.0109 33.2877 88.6003 33.1385C88.483 33.1634 88.395 33.1882 88.2776 33.2131ZM109.131 35.351C109.395 35.3262 109.629 35.3262 109.659 35.3013C110.011 34.9036 111.712 34.9533 111.506 34.2572C110.597 34.4312 109.835 34.5804 108.867 34.7793C108.984 35.003 109.043 35.177 109.131 35.351ZM86.8405 35.5499C86.9578 35.5996 87.1045 35.6742 87.2511 35.7488C87.3391 35.6991 87.4271 35.6742 87.4858 35.6245C87.3098 35.5748 87.1338 35.5251 86.9578 35.4753C86.9578 35.4753 86.8405 35.5251 86.8405 35.5499ZM119.748 35.7488C119.513 35.8482 119.279 35.9477 118.956 36.1217C119.425 36.1963 119.865 36.2709 120.335 36.3454C120.804 35.9725 120.804 35.7737 119.777 35.7488C120.335 35.2019 120.247 35.1522 118.868 35.003C119.161 35.2516 119.455 35.5002 119.748 35.7488ZM113.97 35.8731C114.058 35.9477 114.117 36.0471 114.175 36.0471C114.351 36.0471 114.527 35.9974 114.674 35.9725C114.645 35.9228 114.586 35.8234 114.527 35.8234C114.351 35.8234 114.175 35.8482 113.97 35.8731ZM106.55 36.5443C107.459 36.7432 107.899 36.6686 108.544 36.246C107.664 36.3703 107.254 36.42 106.55 36.5443ZM90.9759 36.594C91.2399 36.5692 91.5039 36.5443 91.7385 36.4946C91.2986 36.2211 91.0639 36.2957 90.9759 36.594ZM100.097 36.8426C99.1002 37.1658 98.5722 37.3398 98.1323 37.489C98.4256 38.2845 99.3348 38.8315 100.743 39.3038C101.329 39.1298 101.945 38.9558 102.561 38.7817C102.561 37.9862 100.743 37.6879 100.097 36.8426C100.303 36.8426 100.537 36.8178 100.801 36.7929C100.156 36.6686 99.7454 36.594 99.3348 36.4946C99.3348 36.8178 99.6281 36.8675 100.097 36.8426ZM96.6365 39.8756C96.4605 40.3728 96.4899 40.3728 97.9856 40.2982C97.8683 39.9502 97.4577 39.8259 96.6365 39.8756ZM106.169 41.044C107.078 40.8948 106.198 40.5468 106.403 40.3231C105.846 40.2485 105.289 40.1739 104.467 40.0496C104.321 40.0993 104.057 40.1988 103.852 40.2733C104.849 40.5965 105.465 40.8203 106.169 41.044ZM97.2817 41.1186C97.2817 41.0689 97.2524 41.044 97.2524 40.9943L96.9005 41.0689C97.0178 41.0937 97.1644 41.0937 97.2817 41.1186ZM94.4075 40.9446C94.7008 41.0937 94.9354 41.218 95.522 41.5163C95.8153 41.3175 96.0499 41.1683 96.3139 40.9694C95.6686 40.7208 95.1407 40.7208 94.4075 40.9446ZM97.1644 42.2124C97.3697 42.287 97.575 42.3864 97.6924 42.4362C98.9535 42.3864 98.9828 42.0881 98.9828 41.7649C98.9535 41.5163 98.8362 41.3175 97.839 41.3672C97.6044 41.6406 97.3991 41.8892 97.1644 42.2124ZM95.9326 42.4362C95.9033 42.3864 95.9033 42.3367 95.9033 42.287C95.7859 42.3119 95.6686 42.3367 95.5513 42.3616C95.6686 42.3864 95.7859 42.4113 95.9326 42.4362ZM92.5304 41.8147C92.4717 41.8395 92.4131 41.8395 92.3544 41.8395C92.4424 41.939 92.5304 42.0135 92.6477 42.0881C92.7064 42.2621 92.765 42.4362 92.8237 42.635C93.6742 42.287 93.6742 42.287 92.6477 42.0881C92.6184 41.9887 92.5891 41.9141 92.5304 41.8147ZM106.843 44.5493C106.902 44.5741 106.931 44.599 106.99 44.6239L107.459 44.4498C107.4 44.425 107.342 44.4001 107.283 44.3753L106.843 44.5493ZM110.099 37.9862C109.131 38.1602 108.368 38.3094 107.43 38.4586C107.987 38.7569 108.398 38.906 109.16 38.7817C109.923 38.6326 110.392 38.4586 110.099 37.9862ZM117.284 37.5387C117.343 37.489 117.372 37.4393 117.431 37.3896C117.314 37.3896 117.226 37.3896 117.108 37.3896C117.167 37.4393 117.226 37.489 117.284 37.5387ZM112.386 37.1161C112.298 37.1658 112.21 37.1907 112.152 37.2404C112.416 37.2901 112.709 37.3647 112.973 37.4393C112.797 37.315 112.592 37.2155 112.386 37.1161ZM121.596 35.2019H121.566C121.42 35.2516 121.302 35.3262 120.95 35.4753C121.684 35.5002 122.182 35.5251 122.945 35.5499C122.652 35.2019 122.446 34.9284 122.241 34.6798C122.124 34.655 121.977 34.655 121.86 34.655C121.772 34.829 121.684 35.003 121.596 35.2019ZM113.882 34.6301C113.706 34.5804 113.53 34.5058 113.354 34.4561C113.325 34.5058 113.266 34.5307 113.208 34.5804C113.442 34.6052 113.648 34.6052 113.882 34.6301C114.439 34.9284 114.967 35.2019 115.671 35.5499C116.111 35.5499 116.786 35.5748 117.372 35.5748C117.9 35.3759 118.37 35.2019 118.868 35.003C117.372 34.5058 115.759 34.2821 113.882 34.6301ZM117.226 34.0335C117.46 33.8843 117.636 33.7849 117.871 33.6606C118.487 33.8097 118.985 33.934 119.66 34.0832C118.927 33.3125 118.927 33.3125 116.522 33.4368C116.815 33.6854 116.991 33.8346 117.226 34.0335ZM105.377 33.76C105.465 33.76 105.582 33.76 105.67 33.7351C105.611 33.7103 105.582 33.6606 105.523 33.6108C105.465 33.6606 105.406 33.7103 105.377 33.76ZM124.089 34.4064C123.795 34.0335 123.092 34.0832 122.505 34.0583C122.3 34.0086 122.124 33.9589 121.948 33.9092C121.889 33.934 121.86 33.9837 121.801 34.0086C122.006 34.0335 122.241 34.0583 122.446 34.0832C122.769 34.3566 123.238 34.5058 124.089 34.4064ZM104.849 34.0832H104.819C104.761 33.9837 104.673 33.9092 104.497 33.7103C104.027 34.0583 103.852 34.2075 103.617 34.3566C104.262 34.4561 104.79 34.5307 105.318 34.6052C105.465 34.5555 105.641 34.5307 105.67 34.4809C105.846 34.1826 105.523 34.0832 104.849 34.0832ZM113.149 30.4287C112.973 30.4287 112.797 30.4536 112.621 30.4785C112.709 30.553 112.768 30.6276 113.002 30.8762C113.178 30.7022 113.296 30.6276 113.296 30.553C113.325 30.5033 113.178 30.4287 113.149 30.4287ZM64.081 28.1665C63.2304 28.3405 63.0544 28.5394 63.6997 28.9123C64.081 28.7631 64.3449 28.6637 64.6676 28.5394C64.4622 28.3902 64.2569 28.2908 64.081 28.1665ZM105.025 27.6444C104.849 27.6196 104.673 27.6693 104.467 27.6693C104.555 27.7687 104.643 27.8682 104.673 27.8682C104.849 27.8433 105.025 27.8184 105.201 27.7936C105.142 27.7439 105.083 27.6444 105.025 27.6444ZM49.2403 27.371C49.211 27.0726 49.1817 26.7992 49.1523 26.5008C49.035 26.5008 48.9177 26.476 48.7711 26.476C48.6537 26.5754 48.3311 26.6997 48.4191 26.7743C48.5951 26.9981 48.947 27.1721 49.2403 27.371C49.4163 27.4455 49.5923 27.4953 49.7683 27.545C49.8269 27.5201 49.8562 27.4704 49.9149 27.4455C49.6803 27.4207 49.475 27.3958 49.2403 27.371ZM60.4148 22.3989C60.3268 22.4487 60.2095 22.4984 60.1215 22.5232C60.2682 22.5978 60.4441 22.6475 60.5908 22.6973L60.8254 22.6227C60.6788 22.5481 60.5321 22.4735 60.4148 22.3989ZM50.1495 15.5127C50.0029 15.5624 49.9149 15.637 49.7976 15.7116C49.9149 15.7364 50.0616 15.7613 50.2375 15.811C50.3255 15.7364 50.4428 15.6619 50.4722 15.5873C50.4722 15.5624 50.1789 15.5127 50.1495 15.5127ZM53.4344 14.6426C52.7012 14.9658 52.7599 15.1895 53.2584 15.463C53.9917 15.2392 53.8157 15.0155 53.4344 14.6426ZM57.6578 14.6923C57.8632 14.6426 58.0978 14.6177 58.0978 14.5929C58.0685 14.5431 57.9805 14.4686 57.9218 14.394C57.8045 14.4188 57.5699 14.4188 57.5699 14.4686C57.5405 14.5183 57.6285 14.5929 57.6578 14.6923ZM53.9917 13.8471V14.2945C54.1383 14.2945 54.2556 14.2945 54.4023 14.3194C54.461 14.1454 54.4903 13.9962 54.5489 13.8471C54.373 13.8471 54.1677 13.8471 53.9917 13.8471ZM56.0154 13.2753C55.9861 13.2753 55.6928 13.3499 55.6928 13.3499C55.7221 13.4244 55.8394 13.499 55.9274 13.5736C56.1327 13.5239 56.25 13.499 56.3674 13.4742C56.25 13.3996 56.1621 13.325 56.0154 13.2753ZM52.2319 12.3057C52.0559 12.7284 52.0559 12.7284 52.9065 12.7284C52.6719 12.5792 52.4959 12.4549 52.2319 12.3057ZM55.6341 12.5792C56.69 13.0267 56.7193 12.4798 57.2472 12.4798C57.1592 12.4052 57.0713 12.3555 56.9833 12.3057C56.5727 12.3803 56.1621 12.4798 55.6341 12.5792ZM135.791 11.8085C135.762 11.8583 135.703 11.908 135.644 11.9577C135.762 11.9577 135.85 11.9577 135.967 11.9577C135.908 11.908 135.85 11.8583 135.791 11.8085ZM61.2947 8.27841C61.2067 8.32813 61.148 8.37785 61.0307 8.42757C61.236 8.47729 61.3827 8.50215 61.5586 8.52701C61.588 8.47729 61.676 8.42757 61.6173 8.37785C61.5586 8.35299 61.412 8.32813 61.2947 8.27841ZM65.5181 8.20383C65.5474 8.27841 65.5768 8.37785 65.6354 8.52701C65.8994 8.45243 66.0754 8.40271 66.4566 8.27841C66.0167 8.25355 65.7527 8.22869 65.5181 8.20383C65.4301 8.17897 65.3421 8.12925 65.5181 8.20383ZM64.5209 8.92477C64.6382 8.89991 64.7555 8.87505 64.8729 8.85019C64.7555 8.82533 64.6382 8.80047 64.5209 8.80047C64.5209 8.82533 64.5209 8.87505 64.5209 8.92477ZM61.0014 9.12365C60.8254 9.07393 60.6494 9.02421 60.4735 8.94963C60.4148 8.99935 60.3855 9.02421 60.3268 9.07393C60.5614 9.09879 60.7668 9.12365 61.0014 9.12365ZM56.6606 9.29767C57.1006 8.89991 57.1006 8.60159 56.0154 8.37785V7.90551C55.3702 8.12925 55.5461 8.27841 56.0154 8.37785C55.6635 8.50215 55.3115 8.60159 55.1062 8.65131C55.1649 9.17337 55.6635 9.32253 56.6606 9.29767ZM106.726 10.0435C106.843 10.0932 106.99 10.1678 107.136 10.2424C107.224 10.1926 107.312 10.1678 107.4 10.1181C107.195 10.0683 107.019 10.0186 106.843 9.96889C106.843 9.96889 106.726 10.0186 106.726 10.0435ZM66.486 9.81973C66.486 9.89431 66.6619 9.96889 66.8966 10.0932C67.0726 9.94403 67.2485 9.86945 67.2779 9.77001C67.3072 9.72029 67.1605 9.62085 66.8672 9.34739C66.6326 9.64571 66.486 9.72029 66.486 9.81973ZM62.1159 9.42197C62.2332 9.42197 62.3505 9.44683 62.4679 9.47169C62.4679 9.42197 62.4679 9.39711 62.4385 9.34739C62.3505 9.37225 62.2332 9.39711 62.1159 9.42197ZM61.4413 9.34739C61.2947 9.27281 61.148 9.19823 61.0014 9.12365C61.0307 9.22309 61.0894 9.32253 61.148 9.39711C61.236 9.39711 61.324 9.37225 61.4413 9.34739ZM59.0363 10.5655C58.9777 10.5407 58.8897 10.491 58.831 10.4412C58.5377 10.5158 58.2738 10.5904 57.9805 10.665C58.0391 10.7147 58.1271 10.7644 58.1858 10.7893L59.0363 10.5655ZM102.473 11.0627C102.913 10.9136 103.118 10.839 103.441 10.7147C102.913 10.6153 102.473 10.5158 101.652 10.3667C102.004 10.665 102.18 10.8141 102.473 11.0627ZM111.8 11.734C112.738 11.6345 113.12 11.4605 112.856 11.0876C112.592 11.0627 112.269 11.0379 111.8 10.9882V11.734ZM55.1942 11.187C55.0182 11.2368 54.8422 11.3113 54.6663 11.3611C54.461 11.3859 54.2556 11.3859 54.0503 11.4108C54.0797 11.4356 54.0797 11.4605 54.109 11.4854C54.285 11.4356 54.4903 11.4108 54.6663 11.3611C54.9009 11.3362 55.1355 11.3362 55.3408 11.3113C55.3115 11.2616 55.2528 11.2368 55.1942 11.187ZM56.4847 11.5351C57.5992 11.3362 57.5992 11.3362 57.3939 10.9384C57.0713 11.1622 56.866 11.3113 56.4847 11.5351ZM29.0618 11.187C29.2377 11.4356 29.3844 11.6594 29.531 11.8831C30.2349 11.4854 30.2349 11.4854 29.0618 11.187ZM30.9682 11.734C31.7894 11.6842 32.288 11.6345 33.2559 11.5848C32.5226 11.2865 32.2 11.1622 31.7307 10.9882C31.4961 11.2119 31.2908 11.3859 30.9682 11.734ZM51.2934 9.39711C50.9121 9.49655 50.5602 9.59599 50.1789 9.69543C50.2962 9.74515 50.4428 9.81973 50.5602 9.86945C50.8828 9.77001 51.2054 9.64571 51.528 9.52141C51.44 9.47169 51.352 9.42197 51.2934 9.39711ZM52.1439 10.6153C52.6425 10.5407 53.0825 10.4661 53.4344 10.4164C53.7864 9.99375 54.1383 9.62085 54.4903 9.19823H52.9652C52.8185 9.24795 52.7012 9.29767 52.7305 9.29767C53.3171 9.77001 51.616 10.0683 52.1439 10.6153ZM49.3283 8.99935C49.4163 8.99935 49.5336 8.99935 49.6216 8.97449C49.563 8.94963 49.5043 8.89991 49.475 8.85019C49.4163 8.89991 49.3577 8.94963 49.3283 8.99935ZM46.8647 8.97449C46.894 9.02421 46.894 9.04907 46.894 9.09879C47.0113 9.07393 47.1286 9.04907 47.2459 9.04907C47.1286 9.02421 47.0113 8.99935 46.8647 8.97449ZM35.5729 8.47729H33.7251C34.341 8.87505 34.7517 9.14851 35.9542 9.12365C35.8075 8.87505 35.6902 8.67617 35.5729 8.47729ZM37.8312 8.17897C37.4793 8.35299 37.274 8.47729 36.834 8.67617C37.5086 8.70103 37.8899 8.70103 38.4765 8.72589C38.2125 8.50215 38.0952 8.40271 37.8312 8.17897ZM46.5714 8.72589H48.1845C48.2138 8.57673 48.2431 8.45243 48.2725 8.30327C46.894 8.22869 46.894 8.22869 46.5714 8.72589ZM55.4581 7.48289C56.0447 7.60719 56.5727 7.70663 57.0713 7.80607C57.1592 7.75635 57.2472 7.73149 57.3059 7.68177C56.8953 7.48289 56.4847 7.284 55.9274 7.0354C55.7221 7.20942 55.6341 7.30886 55.4581 7.48289ZM55.0475 6.88624C54.7249 6.83652 54.373 6.7868 54.0503 6.73708C53.9917 6.7868 53.9624 6.81166 53.9037 6.86138C54.197 6.93596 54.461 7.01054 54.7542 7.08512C54.8422 7.01054 54.9595 6.93596 55.0475 6.88624ZM67.0139 5.39464C67.1899 5.71782 67.3072 5.89184 67.4245 6.11558C67.9231 6.01614 68.2751 5.94156 68.8616 5.7924C68.2164 5.64324 67.8058 5.56866 67.0139 5.39464ZM51.352 2.43629C52.0266 2.31199 52.3786 2.23741 52.7892 2.16283C51.9973 1.78993 51.792 2.01367 51.352 2.43629ZM34.8103 0.447482C34.3704 0.497202 34.1357 0.522062 33.8718 0.571782C33.7545 0.696082 33.6078 0.845243 33.4025 1.01926C33.8131 1.06898 34.1357 1.09384 34.5757 1.1187C34.6637 0.894963 34.7223 0.696082 34.8103 0.447482ZM40.2949 0.770663C40.1776 0.795523 40.0603 0.820383 39.9429 0.845243C40.0603 0.870103 40.1776 0.894963 40.3242 0.919823C40.2949 0.870103 40.2949 0.820383 40.2949 0.770663ZM33.3732 0.248601C33.3145 0.248601 33.0799 0.348041 33.1092 0.348041C33.1972 0.422621 33.3145 0.497202 33.4612 0.546922C33.5492 0.571782 33.7251 0.571782 33.8718 0.571782C33.8718 0.522062 33.8718 0.447482 33.8131 0.397761C33.6958 0.323181 33.5198 0.273461 33.3732 0.248601ZM18.8845 0.820383C19.2951 0.621502 19.5884 0.497202 20.1163 0.248601C18.5325 0.198881 18.3859 0.372901 18.8845 0.820383ZM22.1107 0.372901C21.8761 0.348041 21.6415 0.323181 21.2602 0.248601C21.3775 0.372901 21.4361 0.447482 21.4948 0.522062L22.1107 0.372901ZM19.0605 7.30886L18.7085 7.35858C18.8258 7.38344 18.9432 7.40831 19.0605 7.43317C19.0605 7.38344 19.0605 7.33372 19.0605 7.30886ZM23.5772 25.3821C23.7238 25.407 23.8411 25.4319 24.0171 25.4816C24.1051 25.407 24.2224 25.3573 24.2518 25.2827C24.2518 25.2578 23.9585 25.1833 23.9291 25.2081C23.7825 25.2578 23.6945 25.3324 23.5772 25.3821ZM13.1066 25.2081C13.7812 25.5313 13.7812 25.5313 14.3971 25.2081H13.1066ZM23.6652 26.4014C24.3984 26.6003 24.8677 26.6997 25.6596 26.8986C25.3956 26.5506 25.249 26.3268 24.9263 25.8545C24.3104 26.1279 24.0758 26.2274 23.6652 26.4014ZM93.4103 44.8476C94.2022 44.8476 94.6128 44.8476 95.1114 44.8725C94.7594 44.6239 94.4661 44.425 94.0555 44.1266C93.8209 44.3753 93.6742 44.5493 93.4103 44.8476ZM360.19 46.6375C360.63 46.5878 360.864 46.5629 361.128 46.5132C361.246 46.3889 361.392 46.2646 361.597 46.0657C361.187 46.016 360.864 45.9912 360.424 45.9663C360.336 46.19 360.278 46.3889 360.19 46.6375ZM354.705 46.3143C354.822 46.2895 354.94 46.2646 355.057 46.2398C354.94 46.2149 354.822 46.19 354.676 46.1652C354.676 46.2149 354.705 46.2646 354.705 46.3143ZM361.627 46.8364C361.685 46.8364 361.92 46.737 361.891 46.737C361.803 46.6624 361.685 46.5878 361.539 46.5381C361.451 46.5132 361.275 46.5381 361.128 46.5132C361.128 46.5878 361.099 46.6624 361.187 46.6872C361.304 46.7618 361.451 46.8115 361.627 46.8364ZM376.116 46.2646C375.705 46.4635 375.412 46.5878 374.884 46.8364C376.467 46.8861 376.585 46.7121 376.116 46.2646ZM372.86 46.7121C373.124 46.737 373.359 46.7618 373.74 46.8364C373.623 46.7121 373.564 46.6375 373.505 46.5629L372.86 46.7121ZM375.94 39.7761L376.291 39.7264C376.174 39.7016 376.057 39.6767 375.94 39.6518C375.94 39.7016 375.94 39.7513 375.94 39.7761ZM371.393 21.7029C371.276 21.678 371.159 21.6531 370.983 21.6034C370.895 21.678 370.778 21.7277 370.748 21.8023C370.748 21.8272 371.042 21.9017 371.071 21.9017C371.218 21.8272 371.305 21.7774 371.393 21.7029ZM381.893 21.8769C381.219 21.5537 381.219 21.5537 380.603 21.8769H381.893ZM371.335 20.6836C370.602 20.4847 370.132 20.3853 369.34 20.1864C369.604 20.5344 369.751 20.7582 370.074 21.2305C370.69 20.9571 370.924 20.8576 371.335 20.6836ZM302.352 0.174021C301.736 0.248601 301.414 0.447482 301.472 0.720942C301.502 0.944683 301.443 1.21814 301.707 1.41702C301.883 1.54133 302.528 1.61591 302.998 1.64077C303.555 1.66563 303.701 1.49161 303.701 1.29272C303.467 1.06898 303.203 0.820383 302.91 0.546922C303.467 0.546922 303.76 0.546922 304.053 0.546922C304.141 0.546922 304.259 0.621502 304.112 0.571782C303.965 0.845243 303.848 1.06898 303.731 1.26786C304.523 2.08825 304.288 2.28713 302.352 2.63517C302 3.03293 301.736 3.35611 301.502 3.65443C300.769 3.62957 300.27 3.62957 299.771 3.60471C299.771 3.67929 299.771 3.75387 299.742 3.82845C300.71 3.90303 301.648 3.92789 302.675 3.82845C302.91 3.53013 303.115 3.25667 303.349 2.98321C304.464 3.23181 304.083 3.53013 303.907 3.80359C304.288 4.02733 304.699 4.25107 305.139 4.49968C304.757 4.62398 304.464 4.72342 304.171 4.798C303.995 4.74828 303.819 4.69856 303.613 4.64884C303.584 4.6737 303.525 4.72342 303.496 4.74828C303.701 4.77314 303.907 4.798 304.141 4.82286C304.141 4.94716 304.171 5.07146 304.171 5.19576C304.787 5.1709 305.08 5.2952 305.08 5.56866C304.757 5.56866 304.464 5.56866 304.171 5.56866C304.171 5.44436 304.171 5.32006 304.171 5.19576C303.907 5.24548 303.643 5.32006 303.379 5.36978C303.643 5.44436 303.907 5.49408 304.171 5.56866C304.083 5.6681 304.024 5.7924 303.907 5.96642C302.792 5.69296 301.854 5.4195 300.856 5.1709C300.593 5.12118 300.153 5.1709 299.859 5.19576C300.475 5.6681 300.974 6.09072 301.443 6.48848C300.387 7.0354 300.387 7.06026 300.798 7.43317C301.032 7.63205 301.472 7.88065 301.384 8.07953C301.003 8.77561 301.619 9.32253 302.323 9.64571C303.819 9.96889 304.787 10.1926 306.106 10.491C306.4 10.4661 307.074 10.4412 307.778 10.3915C307.837 10.5904 307.808 10.7644 308.511 10.7396C308.834 10.7147 309.215 10.7893 309.685 10.8639C309.333 11.0379 309.127 11.1622 308.805 11.3362C309.567 11.2865 310.154 11.2368 310.682 11.2119C310.74 11.7588 308.658 11.4356 308.922 12.082C309.098 12.1317 309.362 12.2063 309.597 12.256C309.567 12.6289 309.567 13.0018 309.567 13.3747C309.274 13.4244 308.951 13.499 308.658 13.5487C307.984 13.7725 307.309 13.9714 306.517 14.22C306.957 14.394 307.338 14.5431 307.778 14.7172C308.805 14.394 309.098 14.0459 308.717 13.5736C309.01 13.5239 309.303 13.4493 309.597 13.3996C309.949 13.499 310.301 13.6233 310.682 13.6979C311.034 13.7476 311.444 13.6979 311.914 13.6979C311.767 14.0459 311.62 14.2945 311.503 14.568C312.178 14.7669 312.794 14.9906 313.263 15.1398C313.967 15.1149 314.465 15.0901 314.964 15.0652C315.081 15.463 315.58 15.6619 316.665 15.5873C316.313 15.2392 315.844 15.0652 315.052 15.0404C315.081 14.5183 314.612 14.1454 313.321 14.0211C313.527 13.5736 313.351 13.2256 312.295 13.0018C311.914 12.6289 311.151 12.977 310.652 12.9024C309.773 12.2809 311.972 12.1069 311.62 11.5848C311.562 11.5102 311.914 11.3859 312.148 11.3113C312.442 11.2368 312.823 11.1622 313.145 11.1622C313.732 11.1373 314.289 11.187 314.847 11.187C314.935 11.3362 314.964 11.4356 315.023 11.5102C315.873 11.5599 316.812 11.4108 317.604 11.6345C317.78 11.9826 317.78 12.2809 316.724 12.43C316.108 12.1566 314.788 12.1069 314.993 11.5351C314.319 11.5102 313.556 11.4605 313.673 11.8583C314.055 11.9826 314.465 12.0571 314.641 12.1814C315.14 12.5295 315.58 12.8775 316.548 13.0515C316.841 13.1013 317.134 13.2753 317.193 13.3996C317.398 13.7973 318.131 13.8719 318.865 13.9216C319.627 13.9962 320.419 14.0211 321.358 14.0708V15.6619C322.062 15.7613 322.56 15.811 322.853 15.8607C323.176 15.5376 323.587 15.2641 323.675 14.9658C323.763 14.6177 323.557 14.2697 323.499 13.9714C321.592 13.5487 321.27 13.5239 320.507 13.6979C320.038 13.4742 319.539 13.2504 318.982 13.0018C319.569 12.7532 320.067 12.5295 320.654 12.2809C320.918 12.5046 321.123 12.6538 321.328 12.8278C321.358 12.8029 321.387 12.8029 321.416 12.7781C321.211 12.9024 321.27 12.8775 321.358 12.8278C322.326 12.8029 322.472 12.5543 322.003 12.3057C321.592 12.0571 320.976 11.908 320.448 11.7091C320.683 11.5599 320.918 11.4108 321.211 11.2119C320.742 11.1373 320.302 11.0627 319.569 10.9136C319.745 11.2616 319.862 11.4854 319.979 11.7091C320.126 11.7091 320.272 11.7091 320.448 11.7091C320.272 11.8583 320.126 11.8583 319.979 11.7091C319.363 11.4356 318.747 11.1373 318.102 10.8639C317.867 10.9136 317.486 11.013 317.105 11.1125C317.017 11.0876 316.958 11.0379 316.87 11.013C317.076 10.839 317.281 10.665 317.486 10.491C315.902 10.0435 316.606 9.34739 316.46 8.70103C317.78 9.29767 319.099 9.86945 320.419 10.4412C320.771 10.3169 320.947 10.2424 321.182 10.1678C320.976 9.94403 320.742 9.74515 320.536 9.49655C320.507 9.47169 320.654 9.39711 320.712 9.34739C321.182 9.37225 321.651 9.37225 322.355 9.42197C322.003 9.57113 321.768 9.67057 321.475 9.79487C322.824 10.3418 323.851 11.0627 326.138 11.1125C326.314 10.7893 325.434 10.3667 326.872 10.2424C327.341 10.3667 327.869 10.5407 328.367 10.6898C328.279 10.839 328.191 10.9882 328.133 11.1373C327.869 11.1125 327.634 11.0876 327.253 11.0379C327.37 11.1373 327.429 11.2119 327.488 11.2865C327.693 11.2368 327.898 11.187 328.133 11.1373C328.25 11.2616 328.543 11.4108 328.485 11.5102C328.367 11.8085 328.074 12.082 327.957 12.2312C328.338 12.6041 328.602 12.8775 328.866 13.151C329.98 13.2753 331.066 13.4244 332.18 13.5736C333.148 13.9714 334.087 13.9962 334.703 13.6482C334.468 13.3996 333.647 13.2504 334.263 12.8775C334.644 12.8527 335.084 12.8029 335.67 12.7284C335.23 12.6538 334.966 12.6041 334.585 12.5543C335.054 12.2312 335.289 11.8831 334.908 11.5102C335.054 11.5102 335.201 11.5102 335.348 11.5102C335.318 11.5102 335.318 11.5102 335.289 11.4854C335.318 11.5102 335.348 11.5102 335.348 11.5102C335.993 10.9384 335.993 10.9384 334.908 10.7644C334.849 10.8639 334.82 10.9633 334.761 11.0627C334.673 11.0379 334.585 11.013 334.468 10.9882C334.615 10.9136 334.761 10.839 334.908 10.7644C335.377 10.491 335.817 10.2175 336.374 9.86945C336.814 9.81973 337.459 9.77001 338.105 9.69543C338.633 9.79487 339.131 9.86945 339.718 9.96889V8.89991C338.897 8.97449 338.281 9.04907 337.635 9.09879C337.518 9.22309 337.401 9.34739 337.166 9.54627C336.668 9.14851 337.078 9.12365 337.606 9.09879C337.547 8.85019 337.518 8.62645 337.489 8.42757C338.281 8.30327 339.014 8.17897 339.747 8.02981C340.07 8.20383 340.334 8.32813 340.568 8.42757C340.774 8.37785 340.92 8.32813 341.214 8.22869V10.2175C340.627 10.3169 340.187 10.4661 340.51 10.7893C340.598 10.839 340.48 10.9384 340.392 11.0876H338.867C338.75 10.8887 338.691 10.7396 338.603 10.6153C338.457 10.5904 338.31 10.5904 338.193 10.5904C337.723 10.9136 337.283 11.2616 336.844 11.5848C338.251 11.9328 339.571 12.2809 340.92 12.6041C340.95 12.43 340.979 12.2809 341.038 12.0323C341.624 12.1566 342.035 12.2312 342.533 12.3555C342.797 12.2312 343.12 12.0571 343.501 11.8831C344.528 12.1814 345.466 12.4549 346.434 12.7284C346.141 13.1758 346.64 13.5487 347.285 13.9465C347.695 13.7476 347.989 13.6233 348.458 13.3996C348.575 13.7725 348.634 14.0211 348.722 14.2945C349.191 14.3443 349.69 14.394 350.159 14.4686C350.247 14.7172 350.364 14.9906 350.423 15.2144C351.391 15.4878 352.212 15.7364 353.121 16.0099C352.505 16.4325 351.977 16.8303 351.391 17.228C350.804 16.6811 349.983 16.3828 349.25 16.4822C349.191 16.5817 349.162 16.7308 349.103 16.8551C348.487 17.0292 347.901 17.2032 347.167 17.4269C347.578 17.5264 347.959 17.6009 348.253 17.6755C348.81 17.5264 349.279 17.3772 349.748 17.2529C350.012 17.5761 350.042 18.0236 350.452 18.0981C351.772 18.3219 351.802 18.8439 352.388 19.2417C352.447 19.2914 352.183 19.4406 352.095 19.5152C351.919 19.4654 351.743 19.4157 351.567 19.3411C351.508 19.3909 351.45 19.4157 351.42 19.4654C351.626 19.4903 351.86 19.5152 352.095 19.5152C352.153 19.6146 352.241 19.6892 352.329 19.7886C352.095 19.8881 351.889 19.9875 351.626 20.1118C351.831 20.2112 352.007 20.3107 352.212 20.4101C352.857 20.2112 353.415 20.0372 354.148 19.8383C354.529 19.9875 354.881 20.1367 355.233 20.261C354.001 20.2858 354.441 20.6339 354.324 21.0316C354.91 20.8328 355.204 20.7333 355.526 20.6339C355.438 20.4847 355.35 20.3853 355.262 20.2858H356.875C355.966 21.0814 356.758 21.6531 357.961 22.2995C358.225 22.0012 358.401 21.7526 358.665 21.4294C359.31 21.4294 359.603 20.9322 360.688 21.1559C360.776 21.1559 361.304 20.8576 361.627 20.6836C361.891 20.7085 362.243 20.7582 362.624 20.8079C363.299 20.2112 364.296 19.8135 365.909 19.6892C366.847 19.6395 367.727 19.4903 368.343 19.1423C368.343 19.54 368.461 19.8881 369.516 20.1118C369.956 19.9378 370.426 19.7638 370.836 19.5897C372.772 19.9875 373.886 19.1671 375.529 19.1174V19.5649C375.03 19.6892 374.121 19.7638 374.092 19.9129C373.886 20.4101 372.743 20.435 371.98 20.7333C372.655 21.0316 373.271 21.3051 373.798 21.5537C375.001 21.4543 375.91 21.3797 376.907 21.3051C376.878 21.1559 376.849 21.0316 376.849 20.9322C376.467 21.0068 376.145 21.0814 375.676 21.1808C376.057 20.7085 376.291 20.3355 376.643 19.9875C376.849 19.7638 377.025 19.4903 377.846 19.5152C377.758 19.4157 377.67 19.3163 377.582 19.192C378.433 19.192 379.166 19.192 379.928 19.192C380.075 19.366 380.222 19.5152 380.427 19.7389C379.371 19.6643 378.608 19.5897 377.846 19.54C378.257 19.8881 378.667 20.2361 379.136 20.6339H380.544C380.72 20.8079 380.867 20.8079 381.014 20.6339C381.629 20.6587 381.952 20.5344 381.923 20.261C382.363 20.3604 382.832 20.435 383.272 20.5344C383.653 20.6339 383.976 20.6587 384.181 20.4598C384.885 20.435 385.618 20.4101 386.469 20.3853C386.557 20.435 386.733 20.5344 386.879 20.6339C386.791 20.6836 386.703 20.7085 386.967 20.609C386.938 20.6339 386.909 20.6339 386.879 20.6339C387.789 20.6587 388.756 20.5344 389.724 21.1062V19.5649C390.076 19.4903 390.516 19.4157 390.956 19.3411C391.631 19.4406 392.276 19.5152 392.921 19.6146C392.804 19.6892 392.657 19.7638 392.511 19.8383C392.716 19.9875 392.892 20.0869 393.068 20.1864C392.833 20.3107 392.628 20.435 392.423 20.5593C392.745 21.1311 392.745 21.1311 392.1 21.504C392.247 21.8272 392.217 22.1503 392.481 22.4238C392.716 22.6724 393.449 22.8216 393.684 23.0453C393.948 23.3188 395.414 23.1696 394.886 23.6917H393.127C393.478 23.9651 393.713 24.1391 393.948 24.2883C393.537 24.512 393.156 24.6861 392.892 24.8352C393.361 25.233 393.742 25.5562 394.182 25.9291C392.833 26.0285 391.601 26.0036 390.722 26.2274C389.754 26.4511 389.108 26.8986 388.346 27.2467C387.906 27.1969 387.495 27.1472 387.466 27.1224C387.026 26.7495 386.703 26.476 386.381 26.1777C387.202 26.0036 387.906 25.8545 388.815 25.6805C387.759 25.5064 386.879 25.3821 385.941 25.233C385.56 25.5064 385.296 25.7302 384.973 25.9539C385.266 26.1031 385.53 26.2522 385.794 26.4014C385.589 26.5257 385.384 26.65 385.09 26.824C383.976 26.0782 382.245 26.6003 380.896 26.3517C380.515 26.2025 380.134 26.0285 379.782 25.8793C378.872 25.9788 378.139 26.0782 377.054 26.2274C377.699 26.4511 378.081 26.5754 378.462 26.7246C377.993 26.7743 377.523 26.824 377.025 26.8738C377.142 27.1224 377.259 27.3212 377.406 27.5201C377.025 27.6196 376.643 27.719 376.203 27.8433C375.881 27.5698 375.588 27.2964 375.294 27.0229H374.15C374.385 27.3958 374.59 27.719 374.796 28.067C374.678 28.067 374.561 28.067 374.414 28.067C374.062 28.3654 373.681 28.6885 373.329 29.0117C373.183 29.0117 373.036 29.0117 372.86 29.0117C373.036 29.1857 373.183 29.1857 373.329 29.0117C373.681 29.1609 374.473 29.0863 374.444 29.4841C374.414 29.7327 375.03 29.7824 375.617 29.6829C375.94 30.0061 376.174 30.2299 376.379 30.4536C377.465 30.3293 378.374 30.205 378.696 30.7768C378.374 30.8514 378.081 30.9259 377.758 31.0005C378.315 31.4231 378.726 31.7215 379.136 32.0198C378.843 32.1441 378.579 32.2435 378.286 32.3678C378.843 32.5419 379.283 32.6662 379.811 32.8153C379.312 33.0391 378.931 33.2131 378.579 33.3871C377.934 33.1634 377.289 32.9148 376.673 32.691C375.529 33.0391 376.526 33.3374 376.379 33.6108C377.318 33.6854 378.257 33.7849 379.195 33.8594C379.811 34.2323 380.398 33.934 381.014 33.8594C380.779 34.0832 380.574 34.3069 380.31 34.5555C380.75 35.0527 380.75 35.6494 381.453 36.1714C381.747 36.3952 381.952 36.6189 382.157 36.8675C382.451 37.1658 382.157 37.9365 381.571 38.2845C381.277 37.9365 381.043 37.6133 380.75 37.2653C380.163 37.2155 379.547 37.1658 379.048 37.141C378.726 37.2404 378.521 37.315 378.286 37.3896C377.729 37.663 377.142 37.9116 376.555 38.1851C376.819 38.384 377.054 38.5331 377.259 38.6823C378.051 38.6326 378.755 38.5829 379.635 38.5331C379.371 39.2789 377.113 39.4032 377.23 40.1739C378.843 40.0993 379.987 40.4722 380.984 40.9197C381.277 41.0689 381.6 41.1932 381.923 41.3175C381.307 41.4418 380.72 41.5661 380.104 41.6904C379.664 41.4169 379.195 41.4169 378.755 41.6904C379.195 41.6904 379.664 41.6904 380.104 41.6904C379.958 41.8395 379.84 41.9887 379.635 42.2124C379.166 42.113 378.814 42.0384 378.462 41.9638C378.579 41.8395 378.667 41.7649 378.755 41.6904C378.315 41.5661 377.875 41.4418 377.553 41.3423C377.758 40.9694 377.905 40.696 378.11 40.3479C376.849 40.4474 375.852 40.5219 374.473 40.6214C374.385 40.5468 374.092 40.3728 373.798 40.1988C375.089 39.975 375.089 39.975 374.737 39.4778C373.74 39.5524 373.769 39.8756 373.769 40.1988C372.919 40.149 372.068 40.0993 371.012 40.0745C370.895 40.2485 370.778 40.4474 370.543 40.8203C371.276 40.696 371.628 40.6214 371.98 40.5717C373.124 40.5219 372.684 41.044 373.564 41.2429C373.857 41.2677 374.414 41.3423 374.972 41.392C375.148 41.5412 375.294 41.6655 375.558 41.8892C374.59 41.7152 373.974 41.5909 373.153 41.4418C373.065 41.6655 373.007 41.8147 372.948 41.9887C374.473 42.1627 375.94 41.9141 377.494 42.1876C376.907 42.4113 376.467 42.5853 376.028 42.7842C375.676 42.6599 375.412 42.5605 375.206 42.4859C374.473 42.7593 373.769 43.0079 373.065 43.2814C374.708 43.2068 376.028 43.6792 377.611 43.6792C377.025 43.704 376.467 43.7289 375.881 43.7537C375.47 44.1018 374.356 44.3007 374.972 44.8227C374.414 45.0216 373.886 45.2205 373.271 45.4442C373.007 45.2702 372.86 45.1956 372.684 45.0962C372.244 45.3448 371.892 45.5437 371.481 45.8171C371.305 45.5437 371.218 45.3945 371.071 45.2205C370.895 45.0465 370.66 44.8973 370.426 44.7233C370.22 44.8476 370.044 44.9222 369.839 45.0465C369.223 44.8973 368.754 44.773 368.138 44.599C367.61 44.7482 367.082 44.8725 366.261 45.0962C366.906 45.1459 367.17 45.1956 367.463 45.2205C367.903 45.5934 368.607 45.2702 369.164 45.3199C370.836 46.2646 370.836 46.2646 370.602 46.8861C370.631 46.8861 370.631 46.8861 370.631 46.8861C370.455 46.9607 370.543 46.9358 370.602 46.8861C371.071 46.9607 371.54 47.0353 372.009 47.0601C372.625 47.1099 372.889 46.9607 372.86 46.7121C372.185 46.5629 371.833 46.3889 372.097 46.0657C373.271 45.8917 374.532 46.2646 375.558 45.8669C375.94 45.9414 376.35 46.016 376.819 46.0906C377.113 45.9414 377.377 45.8171 377.729 45.668C377.905 46.1652 378.051 46.6375 378.227 47.085H356.377C356.758 46.8861 357.11 46.6872 357.462 46.4635C357.286 46.3641 357.139 46.3143 356.875 46.19C356.465 46.4884 355.996 46.737 356.054 47.085H353.444C353.444 47.085 353.415 47.0601 353.385 47.0601C353.415 47.0601 353.415 47.0601 353.444 47.085C353.385 46.5381 354.412 46.0409 353.532 45.4194C352.74 45.6928 351.948 45.9663 351.068 46.2646C351.479 46.4635 351.831 46.5629 352.007 46.7121C352.124 46.8115 352.183 46.9607 352.241 47.085H345.994C345.936 46.9856 345.848 46.8861 345.789 46.7618C345.613 46.8115 345.437 46.8364 345.261 46.8613C345.349 46.9358 345.408 47.0104 345.466 47.085H101.622C101.71 46.8115 101.798 46.4635 101.886 46.1155C102.18 46.0409 102.59 45.9414 103.206 45.7923C102.238 45.5934 101.153 45.5685 101.241 45.0713C101.388 45.0713 101.534 45.0713 101.681 45.0713C101.593 44.947 101.476 44.8227 101.388 44.6984C101.271 44.7233 101.153 44.7233 101.036 44.7482C101.095 44.8476 101.153 44.947 101.212 45.0713C100.332 45.0465 100.127 44.7979 100.097 44.4996C100.097 44.2509 99.8921 44.0272 99.2761 43.9278C98.015 43.7289 97.6044 43.3808 98.015 42.8339C98.0443 42.8091 97.8683 42.7593 97.7803 42.7096C96.8418 43.0825 96.8418 43.0825 97.3404 44.0272C97.8097 44.1266 98.2496 44.2012 98.4842 44.2509C98.7189 44.7979 98.9242 45.2702 99.1295 45.7426C98.8655 45.7923 98.5429 45.842 98.1323 45.9166V46.5629C98.6309 46.737 99.1002 46.911 99.5988 47.085H96.6365L96.6658 47.0601C96.9005 46.5381 95.9326 46.2149 95.434 45.842C95.5513 45.668 95.6393 45.5188 95.7859 45.3199C95.2874 45.2951 94.8767 45.2702 94.4368 45.2454C94.9941 45.5188 94.4955 45.6928 94.1435 45.8917C94.3781 46.0409 94.6128 46.19 94.8474 46.3641C94.5834 46.6127 94.3195 46.8613 94.0555 47.085H92.0611C92.2664 47.0601 92.4717 47.0104 92.6477 46.9358C93.2636 46.8364 93.5863 46.6375 93.5276 46.3641C93.4983 46.1403 93.5569 45.8669 93.293 45.668C93.0877 45.5437 92.4717 45.4691 92.0025 45.4442C91.4452 45.4194 91.2986 45.5934 91.2986 45.7923L91.2692 45.8171C90.4773 44.9968 90.712 44.7979 92.6477 44.4498C92.9703 44.0521 93.2343 43.7289 93.4983 43.4306C94.2315 43.4554 94.7301 43.4803 95.2287 43.4803C95.2287 43.4057 95.2287 43.3311 95.258 43.2565C94.2902 43.182 93.3223 43.1571 92.3251 43.2814C92.0905 43.5549 91.8558 43.8283 91.6505 44.1018C90.536 43.878 90.9173 43.5549 91.0933 43.2814C90.6826 43.0577 90.3014 42.8339 89.8614 42.5853C90.2427 42.461 90.536 42.3616 90.8 42.287C91.0053 42.3367 91.1812 42.3864 91.3572 42.461C91.4159 42.4113 91.4745 42.3616 91.5039 42.3367C91.2986 42.3119 91.0933 42.287 90.8586 42.2621C90.8586 42.1378 90.8293 42.0135 90.8293 41.8892C90.2134 41.9141 89.8908 41.7898 89.9201 41.5163C90.2427 41.5163 90.536 41.5163 90.8293 41.5163C90.8293 41.6406 90.8293 41.7649 90.8293 41.8892C91.0933 41.8395 91.3572 41.7649 91.6212 41.7152C91.3572 41.6406 91.0933 41.5909 90.8293 41.5163C90.9173 41.4169 90.9759 41.2926 91.0933 41.1186C92.2078 41.392 93.1463 41.6655 94.1435 41.9141C94.4075 41.9638 94.8474 41.9141 95.1114 41.9141C94.5248 41.4169 94.0262 40.9943 93.5569 40.5965C94.5834 40.0745 94.6128 40.0247 94.2022 39.6518C93.9382 39.453 93.4983 39.2044 93.6156 39.0055C93.9969 38.3094 93.3516 37.7625 92.677 37.4393C91.1812 37.1161 90.1841 36.8924 88.8936 36.594C88.6003 36.6189 87.9257 36.6438 87.2218 36.6935C87.1631 36.4946 87.1925 36.3206 86.4886 36.3703C86.1659 36.3703 85.7847 36.2957 85.3154 36.2211C85.6673 36.0471 85.8433 35.9228 86.1953 35.7488C85.4327 35.7985 84.8461 35.8482 84.3182 35.898C84.2595 35.3262 86.3419 35.6494 86.0779 35.003C85.8726 34.9533 85.638 34.8787 85.4034 34.829C85.4034 34.4561 85.4034 34.0832 85.4327 33.7103C85.726 33.6606 86.0193 33.586 86.3419 33.5363C87.0165 33.3125 87.6617 33.1136 88.4536 32.865C88.043 32.691 87.6617 32.5419 87.2218 32.3927C86.1659 32.691 85.8726 33.0639 86.2833 33.5114C85.99 33.5611 85.6967 33.6357 85.4034 33.7103C85.0221 33.586 84.6995 33.4617 84.2889 33.412C83.9662 33.3374 83.5556 33.3871 83.0864 33.3871C83.233 33.0391 83.3503 32.7905 83.4676 32.517C82.8224 32.3181 82.2065 32.0944 81.7372 31.9452C81.0333 31.9701 80.5347 31.9949 80.0361 32.0198C79.9188 31.622 79.4202 31.448 78.335 31.4977C78.6576 31.8458 79.1562 32.0198 79.9481 32.0446C79.9188 32.5667 80.3881 32.9396 81.6786 33.0639C81.4732 33.5114 81.6492 33.8843 82.7051 34.0832C83.0864 34.4561 83.8489 34.108 84.3182 34.2075C85.2274 34.8041 83.0277 34.9781 83.3797 35.5002C83.4383 35.5748 83.0864 35.6991 82.8517 35.7737C82.5291 35.8482 82.1771 35.9228 81.8545 35.9228C81.2679 35.9477 80.6814 35.898 80.1241 35.898C80.0654 35.7488 80.0068 35.6494 79.9775 35.5748C79.0976 35.5251 78.1884 35.6742 77.3965 35.4505C77.2205 35.1024 77.1912 34.8041 78.2764 34.655C78.8629 34.9284 80.2121 34.9781 80.0068 35.5499C80.6814 35.5748 81.4439 35.6245 81.2973 35.2267C80.9453 35.1024 80.5347 35.0279 80.3587 34.9036C79.8601 34.5555 79.4202 34.2075 78.4523 34.0335C78.159 33.9837 77.8657 33.8097 77.7778 33.6854C77.6018 33.2877 76.8685 33.2131 76.1353 33.1634C75.3727 33.0888 74.5515 33.0639 73.6423 33.0142V31.4231C72.9384 31.3486 72.4398 31.274 72.1465 31.2243C71.8239 31.5474 71.4133 31.8458 71.3253 32.1192C71.2373 32.4673 71.4426 32.8402 71.5013 33.1136C73.4077 33.5363 73.7303 33.5611 74.4635 33.3871C74.9621 33.6108 75.4314 33.8346 76.018 34.0832C75.4314 34.3318 74.9328 34.5555 74.3462 34.8041C74.0823 34.6052 73.877 34.4312 73.6716 34.2572C73.6423 34.2821 73.613 34.2821 73.5837 34.3069C73.789 34.1826 73.701 34.2323 73.6423 34.2572C72.6745 34.2821 72.5278 34.5307 72.9971 34.8041C73.4077 35.0279 74.0236 35.177 74.5515 35.3759C74.3169 35.5251 74.0823 35.6991 73.789 35.8731C74.2582 35.9477 74.6982 36.0471 75.4314 36.1714C75.2554 35.8234 75.1381 35.5996 75.0208 35.3759C74.8742 35.3759 74.6982 35.3759 74.5515 35.3759C74.6982 35.2267 74.8742 35.2267 75.0208 35.3759C75.6367 35.6742 76.2526 35.9477 76.8979 36.2211C77.1325 36.1714 77.5138 36.072 77.8951 35.9725C77.9537 36.0223 78.0417 36.0471 78.1297 36.072C77.9244 36.246 77.7191 36.42 77.5138 36.594C79.0976 37.0415 78.3643 37.7376 78.5403 38.384C77.2205 37.8122 75.9007 37.2155 74.5809 36.6438C74.1996 36.7681 74.0529 36.8426 73.8183 36.9172C74.0236 37.141 74.2582 37.3647 74.4635 37.5884C74.4929 37.6133 74.3462 37.6879 74.2876 37.7376C73.8183 37.7376 73.349 37.7127 72.6451 37.663C72.9971 37.5139 73.2317 37.4144 73.525 37.2901C72.1465 36.7432 71.12 36.0223 68.8616 35.9725C68.6857 36.2957 69.5655 36.7183 68.1284 36.8426C67.6591 36.7183 67.1312 36.5443 66.6326 36.42C66.7206 36.246 66.8086 36.0968 66.8672 35.9477C67.1312 35.9725 67.3658 35.9974 67.7471 36.072C67.6298 35.9477 67.5712 35.8731 67.5125 35.7985C67.3072 35.8482 67.0726 35.898 66.8672 35.9477C66.7499 35.8234 66.4566 35.6742 66.5153 35.5748C66.6326 35.2765 66.9259 35.003 67.0432 34.8538C66.6619 34.4809 66.398 34.2075 66.134 33.9589C65.0195 33.8097 63.905 33.6606 62.8198 33.5114C61.8519 33.1136 60.8841 33.0888 60.2975 33.4368C60.5321 33.6854 61.3533 33.8594 60.7374 34.2075C60.3561 34.2323 59.8869 34.2821 59.3003 34.3566C59.7696 34.4312 60.0335 34.4809 60.3855 34.5307C59.9455 34.8538 59.7109 35.2019 60.0922 35.5748C59.9455 35.5748 59.7989 35.5748 59.6522 35.5748C59.007 36.1466 59.007 36.1466 60.0922 36.3206C59.6229 36.594 59.183 36.8924 58.6257 37.2155C58.1858 37.2653 57.5405 37.315 56.8953 37.3896C56.3674 37.315 55.8394 37.2155 55.2822 37.1161V38.1851C56.1034 38.1105 56.7193 38.0359 57.3646 37.9862H57.3939C57.4525 38.2348 57.4819 38.4586 57.5112 38.6574C56.7193 38.8066 55.9861 38.9309 55.2528 39.0552C54.9302 38.8812 54.6663 38.7569 54.4316 38.6574C54.2263 38.7072 54.0797 38.7569 53.757 38.8812V36.8675C54.373 36.7681 54.8129 36.6189 54.461 36.2957C54.4023 36.246 54.5196 36.1466 54.5783 35.9974H56.1327C56.2207 36.1963 56.3087 36.3454 56.3967 36.4697C56.5433 36.4946 56.6606 36.4946 56.8073 36.5195C57.2766 36.1714 57.7165 35.8234 58.1564 35.5002C56.7486 35.1522 55.4288 34.829 54.0797 34.4809C54.0503 34.655 54.021 34.8041 53.9624 35.0527C53.3758 34.9284 52.9652 34.8538 52.4372 34.7295C52.2026 34.8538 51.88 35.0279 51.4987 35.2267C50.4722 34.9036 49.5336 34.6301 48.5658 34.3566C48.8591 33.9092 48.3605 33.5363 47.7152 33.1634C47.3046 33.3374 47.0113 33.4617 46.542 33.6854C46.4247 33.3125 46.3661 33.0639 46.2781 32.7905C45.7795 32.7407 45.3102 32.691 44.8409 32.6164C44.7529 32.3678 44.6356 32.0944 44.577 31.8706C43.6091 31.5972 42.7879 31.3486 41.8787 31.0751C42.4946 30.6525 43.0225 30.2796 43.6091 29.857C44.1957 30.4287 45.0169 30.7271 45.7501 30.6028C45.7795 30.5033 45.8381 30.3542 45.8968 30.2299C46.5127 30.0558 47.0993 29.8818 47.8325 29.6581C47.3926 29.5586 47.0406 29.4841 46.7473 29.4095C46.1901 29.5586 45.7208 29.7078 45.2515 29.8321C44.9876 29.5089 44.9583 29.0614 44.5476 29.0117C43.2278 28.7631 43.1985 28.2411 42.6119 27.8433C42.5533 27.7936 42.8172 27.6693 42.9052 27.5698C43.0812 27.6196 43.2572 27.6693 43.4331 27.7439C43.4918 27.6941 43.5504 27.6693 43.5798 27.6196C43.3745 27.5947 43.1398 27.5947 42.9052 27.5698C42.8465 27.4704 42.7586 27.3958 42.6706 27.3212C42.8759 27.1969 43.1105 27.0975 43.3451 26.9732C43.1692 26.8738 42.9932 26.7743 42.7879 26.6749C42.1426 26.8738 41.5561 27.0478 40.8522 27.2467C40.4415 27.0975 40.1189 26.9732 39.767 26.824C40.9695 26.7992 40.5589 26.4511 40.6468 26.0534C40.0896 26.2522 39.7963 26.3517 39.4737 26.476C39.5617 26.6003 39.6496 26.6997 39.7376 26.7992H38.1245C39.0337 26.0036 38.2418 25.4319 37.0393 24.7855C36.7754 25.0838 36.5701 25.3324 36.3354 25.6556C35.6902 25.6556 35.3969 26.1528 34.3117 25.9291C34.1944 25.9291 33.6958 26.2274 33.3732 26.4014C33.1092 26.3765 32.7573 26.3268 32.376 26.2771C31.6721 26.8738 30.7042 27.2715 29.0618 27.3958C28.1232 27.4455 27.2433 27.5947 26.6568 27.9427H26.6274C26.6568 27.545 26.5394 27.1969 25.4836 26.9732C25.0143 27.1472 24.5744 27.3212 24.1638 27.4953C22.228 27.0975 21.1135 27.9179 19.4711 27.9676V27.5201C19.9697 27.4207 20.8496 27.3212 20.9082 27.1721C21.0842 26.6749 22.228 26.65 23.0199 26.3517C22.3454 26.0534 21.7001 25.7799 21.2015 25.5313C19.999 25.6307 19.0605 25.7053 18.0926 25.7799C18.1219 25.9291 18.1219 26.0534 18.1513 26.1528C18.5325 26.0782 18.8552 26.0036 19.3244 25.9042C18.9432 26.3765 18.7085 26.7495 18.3566 27.0975C18.1513 27.3212 17.946 27.5947 17.1541 27.5698C17.2421 27.6693 17.33 27.7687 17.418 27.893C16.5675 27.893 15.8342 27.893 15.0717 27.893C14.8957 27.719 14.7784 27.5698 14.5731 27.3461C15.6289 27.4455 16.3915 27.4953 17.1541 27.5698C16.7435 27.1969 16.3328 26.8489 15.8636 26.4511H14.4264C14.2798 26.2771 14.1331 26.2771 13.9865 26.4511C13.3706 26.4263 13.048 26.5506 13.0773 26.824C12.6374 26.7246 12.1681 26.65 11.7281 26.5506C11.3175 26.4511 11.0242 26.4511 10.8189 26.6252C10.0857 26.65 9.3818 26.6749 8.53125 26.6997C8.44326 26.65 8.26729 26.5506 8.12064 26.4511C8.20863 26.4263 8.26729 26.3765 8.03265 26.476C8.06198 26.4511 8.09131 26.4511 8.12064 26.4511C7.21143 26.4263 6.24356 26.5506 5.2757 25.9788V27.545C4.92374 27.5947 4.4838 27.6693 4.04386 27.7439C3.36929 27.6444 2.72405 27.5698 2.04947 27.4704C2.19612 27.3958 2.34276 27.3212 2.48941 27.2467C2.25478 27.1224 2.10813 27.0229 1.93215 26.8986C2.16679 26.7743 2.37209 26.65 2.5774 26.5257C2.25478 25.9539 2.25478 25.9539 2.87069 25.581C2.75337 25.2578 2.7827 24.9347 2.48941 24.6612C2.28411 24.4126 1.55087 24.2634 1.31624 24.0397C1.05227 23.7662 -0.414191 23.9403 0.113737 23.3933H1.8735C1.52154 23.1447 1.28691 22.9707 1.05227 22.7967C1.46288 22.573 1.84417 22.3989 2.10813 22.2498C1.63886 21.8769 1.25758 21.5288 0.81764 21.1559C2.16679 21.0565 3.36929 21.0814 4.2785 20.8576C5.24637 20.6339 5.89161 20.1864 6.65417 19.8383C7.09411 19.8881 7.50472 19.9626 7.53405 19.9626C7.97399 20.3355 8.26729 20.609 8.61924 20.9073C7.79802 21.0814 7.09411 21.2305 6.1849 21.4045C7.24076 21.5786 8.12064 21.7029 9.05918 21.852C9.44046 21.5786 9.70442 21.3548 9.99771 21.1311C9.70442 20.9819 9.46979 20.8328 9.20582 20.7085C9.41113 20.5593 9.61643 20.4598 9.90973 20.261C11.0242 21.0068 12.7547 20.5096 14.1038 20.7333C14.4851 20.8825 14.8664 21.0565 15.2183 21.2305C16.1275 21.1062 16.8608 21.0068 17.946 20.8576C17.3007 20.6339 16.9194 20.5096 16.5382 20.3604C16.9781 20.3107 17.4767 20.261 17.9753 20.2112C17.8286 19.9626 17.7113 19.7638 17.594 19.5649C17.9753 19.4654 18.3566 19.366 18.7965 19.2417C19.1191 19.5152 19.4124 19.8135 19.7057 20.0621H20.8496C20.6149 19.6892 20.4096 19.366 20.175 19.018C20.3216 19.018 20.4389 19.018 20.5856 19.0428C20.9375 18.7196 21.3188 18.3965 21.6708 18.0733C21.8174 18.0733 21.9641 18.0733 22.1107 18.0733C21.9641 17.8993 21.8174 17.8993 21.6708 18.0733C21.2895 17.9241 20.5269 17.9987 20.5563 17.6009C20.5563 17.3523 19.9697 17.3026 19.3831 17.4021C19.0605 17.0789 18.8258 16.8551 18.6205 16.6314C17.5353 16.7557 16.6261 16.88 16.2742 16.3082C16.5968 16.2336 16.9194 16.1591 17.2421 16.0845C16.6848 15.6867 16.2742 15.3635 15.8342 15.0652C16.1569 14.9409 16.4208 14.8415 16.7141 14.7172C16.1569 14.568 15.7169 14.4188 15.189 14.2697C15.6876 14.0459 16.0689 13.8719 16.4208 13.6979C17.0661 13.9465 17.7113 14.1702 18.3272 14.394C19.4711 14.0459 18.4739 13.7476 18.6205 13.4742C17.682 13.3996 16.7435 13.3001 15.8049 13.2256C15.189 12.8527 14.6024 13.151 13.9865 13.2256C14.2211 13.0018 14.4264 12.7781 14.6611 12.5543C14.2211 12.0323 14.2211 11.4356 13.5466 10.9136C13.2533 10.6898 13.048 10.4661 12.8427 10.2424C12.5494 9.91917 12.8427 9.17337 13.4292 8.80047C13.7225 9.14851 13.9572 9.47169 14.2211 9.81973C14.8371 9.86945 15.453 9.91917 15.9516 9.94403C16.2449 9.84459 16.4795 9.77001 16.6848 9.69543C17.2714 9.42197 17.858 9.17337 18.4446 8.89991C18.1513 8.70103 17.946 8.55187 17.7407 8.40271C16.9488 8.45243 16.2449 8.50215 15.365 8.55187C15.6289 7.80607 17.8873 7.68177 17.77 6.9111C16.1569 7.01054 15.013 6.61278 14.0158 6.1653C13.7225 6.01614 13.3999 5.9167 13.0773 5.7924C13.6932 5.6681 14.2798 5.5438 14.8957 5.4195C15.3356 5.6681 15.8049 5.6681 16.2449 5.4195C15.8049 5.4195 15.3356 5.4195 14.8957 5.4195C15.0424 5.24548 15.1597 5.09632 15.365 4.87258C15.8342 4.97202 16.1862 5.0466 16.5382 5.12118C16.4208 5.24548 16.3328 5.32006 16.2449 5.4195C16.6848 5.5438 17.1247 5.64324 17.4474 5.74268C17.2421 6.14044 17.0661 6.4139 16.8901 6.73708C18.1513 6.6625 19.1485 6.58792 20.5269 6.48848C20.6149 6.5382 20.9082 6.71222 21.2015 6.88624C19.911 7.13484 19.911 7.13484 20.263 7.60719C21.2602 7.53261 21.2308 7.20942 21.2308 6.9111C22.0814 6.93596 22.9319 6.98568 23.9878 7.0354C24.1051 6.83652 24.2224 6.63764 24.4571 6.26474C23.6945 6.38904 23.3719 6.46362 23.0199 6.51334C21.8761 6.58792 22.316 6.041 21.4361 5.84212C21.1429 5.81726 20.5856 5.74268 20.0283 5.69296C19.8524 5.56866 19.7057 5.44436 19.4418 5.19576C20.3803 5.36978 21.0255 5.49408 21.8468 5.6681C21.9347 5.4195 21.9934 5.27034 22.0521 5.09632C20.5269 4.9223 19.0605 5.1709 17.506 4.89744C18.0633 4.6737 18.5325 4.49968 18.9725 4.32565C19.3244 4.42509 19.5884 4.52454 19.7937 4.59912C20.5269 4.32565 21.2308 4.07705 21.9347 3.80359C20.263 3.87817 18.9432 3.43069 17.3887 3.40583C17.946 3.38097 18.5325 3.35611 19.1191 3.33125C19.5297 2.98321 20.6443 2.78433 20.0283 2.26227C20.5563 2.06339 21.1135 1.86451 21.7294 1.66563C21.9641 1.81479 22.14 1.91423 22.316 1.98881C22.7266 1.74021 23.0786 1.54133 23.5185 1.26786C23.6945 1.54133 23.7825 1.71535 23.9291 1.86451C24.1051 2.03853 24.3397 2.18769 24.5744 2.36171C24.7797 2.26227 24.9557 2.16283 25.161 2.03853C25.7476 2.18769 26.2462 2.31199 26.8621 2.48601C27.39 2.33685 27.9179 2.21255 28.7391 2.01367C28.0939 1.93909 27.8299 1.91423 27.5366 1.86451C27.0967 1.49161 26.3928 1.81479 25.8355 1.76507C24.1344 0.820383 24.1344 0.820383 24.3984 0.198881C24.3691 0.198881 24.3691 0.198881 24.3691 0.198881C24.5451 0.1243 24.4571 0.149161 24.3691 0.198881C23.9291 0.1243 23.4599 0.0497202 22.9906 0.0248601C22.3747 -0.0248601 22.1107 0.1243 22.1107 0.372901C22.8146 0.522062 23.1666 0.720942 22.9026 1.01926C21.7294 1.19328 20.4683 0.820383 19.4418 1.21814C19.0311 1.14356 18.6499 1.06898 18.1806 0.994403C17.8873 1.14356 17.594 1.26786 17.2714 1.41702C17.0954 0.919823 16.9488 0.447482 16.7728 0H38.6231C38.2418 0.198881 37.8899 0.422621 37.5379 0.621502C37.7139 0.720942 37.8606 0.770663 38.1245 0.919823C38.5351 0.596642 39.0044 0.348041 38.9457 0H41.5561C41.5561 0 41.5854 0.0248601 41.6147 0.0248601C41.5854 0.0248601 41.5854 0.0248601 41.5561 0C41.6147 0.546922 40.5882 1.04412 41.4387 1.66563C42.26 1.39216 43.0518 1.1187 43.9317 0.820383C43.5211 0.646362 43.1692 0.522062 42.9932 0.372901C42.8759 0.273461 42.8172 0.1243 42.7586 0H48.9764C49.0644 0.0994403 49.123 0.198881 49.211 0.323181C49.387 0.273461 49.563 0.248601 49.7389 0.223741C49.6509 0.149161 49.5923 0.0745803 49.5043 0H293.348C293.29 0.273461 293.202 0.621502 293.114 0.969543C292.82 1.04412 292.41 1.14356 291.764 1.29272C292.732 1.51647 293.847 1.51647 293.759 2.01367C293.612 2.01367 293.466 2.01367 293.319 2.01367C293.319 2.03853 293.319 2.03853 293.319 2.03853C293.29 2.01367 293.29 2.01367 293.29 2.01367C293.29 2.01367 293.29 2.01367 293.319 2.01367C293.407 2.13797 293.524 2.26227 293.612 2.38657C293.729 2.36171 293.847 2.36171 293.964 2.33685C293.905 2.23741 293.847 2.13797 293.759 2.03853C294.668 2.03853 294.873 2.28713 294.873 2.58545C294.903 2.83405 295.079 3.05779 295.724 3.15723C296.985 3.35611 297.396 3.72901 296.985 4.25107C296.956 4.27593 297.132 4.35051 297.22 4.40023C298.158 4.00247 298.158 4.00247 297.66 3.05779C297.19 2.95835 296.721 2.88377 296.486 2.83405C296.252 2.28713 296.076 1.81479 295.871 1.34244C296.134 1.29272 296.457 1.243 296.868 1.16842V0.546922C296.369 0.348041 295.9 0.174021 295.401 0H298.364L298.334 0.0248601C298.1 0.546922 299.067 0.870103 299.566 1.243C299.449 1.41702 299.361 1.56619 299.214 1.76507C299.713 1.78993 300.123 1.81479 300.534 1.83965C300.006 1.56619 300.505 1.39216 300.827 1.19328C300.622 1.04412 300.387 0.894963 300.123 0.720942C300.417 0.472342 300.681 0.223741 300.944 0H302.91C302.734 0.0248601 302.528 0.0745803 302.352 0.174021Z" fill="#42591C"/>
</svg>
