<svg width="500" height="60" viewBox="0 0 500 60" fill="none" xmlns="http://www.w3.org/2000/svg">
<path d="M380.942 3.74475C381.239 3.43006 381.425 3.20978 381.759 2.86363C380.757 2.83216 380.237 2.83216 379.606 2.80069C380.051 3.11538 380.423 3.36713 380.942 3.74475ZM364.756 3.20978C364.681 3.17831 364.644 3.14685 364.57 3.11538L363.976 3.33566C364.05 3.36713 364.124 3.39859 364.199 3.43006L364.756 3.20978ZM434.997 56.5174C434.144 56.6747 433.698 56.7691 433.178 56.8635C434.181 57.3355 434.441 57.0523 434.997 56.5174ZM444.576 57.3355C444.242 57.1467 443.87 56.9579 443.499 56.7376C444.316 56.4229 444.836 55.9509 446.247 56.0768L446.915 56.2971C446.952 56.2341 447.026 56.1712 447.1 56.1397C446.803 56.1083 446.544 56.0768 446.247 56.0453C446.432 55.888 446.581 55.6992 446.878 55.416C444.242 55.6677 441.866 55.888 439.193 56.1083C439.675 56.4229 440.047 56.6118 440.195 56.832C440.306 56.9894 440.158 57.1782 440.047 57.5243C440.826 57.3041 441.309 57.1782 441.754 57.0523C443.462 57.2097 441.569 57.839 442.72 58.1537C443.685 58.0593 444.205 57.7761 444.576 57.3355ZM454.266 56.7691C454.377 56.7376 454.488 56.6747 454.563 56.6432C454.451 56.6747 454.34 56.7062 454.266 56.7691C454.08 56.8635 453.894 56.9579 453.709 57.0523C453.82 57.0523 453.932 57.0838 454.08 57.1153L454.266 56.7691ZM449.811 56.6118C449.773 56.7691 449.736 56.9264 449.736 57.0523C451.667 57.1153 451.667 57.1153 452.669 56.6118H449.811ZM445.578 56.5488C445.504 56.5803 445.467 56.6432 445.393 56.6747C445.652 56.7062 445.95 56.7376 446.209 56.7691C446.432 56.8635 446.692 56.9264 446.915 56.9894C446.989 56.9579 447.063 56.895 447.1 56.832C446.841 56.8006 446.544 56.7691 446.284 56.7376C446.024 56.6747 445.801 56.6118 445.578 56.5488ZM473.163 56.4544C472.791 55.9509 472.309 55.7621 471.084 55.888C471.046 56.0139 470.972 56.2027 470.861 56.4544H473.163ZM449.514 55.3845C449.402 55.2901 449.254 55.1957 449.068 55.1327C448.957 55.1013 448.697 55.1327 448.548 55.1013C448.548 55.1327 448.585 55.1327 448.585 55.1327C448.548 55.1327 448.548 55.1327 448.511 55.1013C448.548 55.1957 448.511 55.2901 448.623 55.3215C448.734 55.416 448.957 55.4789 449.179 55.5104C449.217 55.5418 449.551 55.416 449.514 55.3845ZM453.635 54.7866C453.523 54.7866 453.412 54.7866 453.263 54.7866C453.226 54.9125 453.189 55.0698 453.152 55.1957C453.263 55.2271 453.412 55.2271 453.523 55.2271C453.56 55.0698 453.597 54.9439 453.635 54.7866ZM422.152 52.9929C421.261 53.3705 420.853 53.5593 420.11 53.8425C421.224 54.0313 421.781 54.0943 422.82 54.2516C422.597 53.8111 422.449 53.5593 422.152 52.9929ZM422.932 52.2062C422.449 52.4894 422.152 52.6782 421.818 52.8355C422.894 52.867 423.414 52.7097 422.932 52.2062ZM470.824 51.9544C469.71 52.2691 469.71 52.2691 470.749 52.7097C470.787 52.4265 470.787 52.2062 470.824 51.9544ZM414.653 51.86C414.021 51.9859 413.576 52.1118 412.796 52.2691C413.613 52.4579 414.17 52.5838 415.172 52.7726C414.912 52.3635 414.801 52.1432 414.653 51.86ZM430.32 50.916C430.728 50.9474 431.173 51.0104 431.582 51.0733C431.656 51.0418 431.693 50.9789 431.767 50.916C431.396 50.8216 431.062 50.7272 430.691 50.6327C430.579 50.7272 430.431 50.8216 430.32 50.916ZM429.8 50.1293C429.057 49.9719 428.389 49.846 427.758 49.7202C427.647 49.7831 427.535 49.8146 427.424 49.8775C427.981 50.1293 428.5 50.381 429.206 50.6957C429.429 50.4754 429.577 50.3495 429.8 50.1293ZM438.599 50.0978C437.893 50.0348 437.188 49.9719 436.52 49.9404C436.52 49.7831 436.52 49.6258 436.52 49.4684C437.299 49.5628 438.042 49.6258 438.784 49.7202C438.858 49.7516 438.97 49.8146 439.044 49.846C438.97 49.8146 438.896 49.7516 438.821 49.6887C438.376 49.2796 437.93 48.8705 436.52 48.9964C436.037 48.7132 435.591 48.43 435.109 48.1467C434.515 48.3356 433.958 48.5244 433.327 48.7446C433.512 49.0279 433.735 49.374 434.106 49.909C434.7 49.909 435.629 49.909 436.52 49.9404C436.891 50.5383 437.262 51.1677 437.596 51.7971C437.076 51.8286 436.557 51.8915 435.666 51.9544C436.297 52.2062 436.594 52.3635 437.039 52.4579C437.225 52.4894 437.67 52.3635 438.005 52.3006C437.893 52.1118 437.819 51.9859 437.708 51.8286C439.415 51.4195 438.747 50.7901 438.599 50.0978ZM468.596 50.6013C467.965 50.4439 467.408 50.2866 466.851 50.1607C465.552 50.4754 464.698 50.8216 465.403 51.5139C466.963 51.5139 467.594 51.0104 468.596 50.6013ZM472.494 50.1607C472.42 50.1293 472.346 50.0663 472.235 50.0348C472.049 50.0978 471.826 50.1607 471.603 50.2551C471.678 50.2866 471.752 50.3495 471.826 50.381C472.049 50.3181 472.272 50.2237 472.494 50.1607ZM475.427 49.2167C474.908 49.3111 474.388 49.4055 473.571 49.5314C474.982 49.7831 475.39 49.6258 475.427 49.2167ZM473.051 48.4929C472.457 48.1782 471.715 48.0523 470.861 48.2726C471.158 48.6502 471.455 48.9964 471.752 49.374C473.051 49.3111 473.051 49.3111 473.051 48.4929ZM470.193 47.8635C470.155 47.8635 469.858 47.9894 469.858 48.0209C469.97 48.1153 470.118 48.1782 470.304 48.2411C470.452 48.2726 470.675 48.2726 470.861 48.2726C470.824 48.2097 470.861 48.1153 470.749 48.0523C470.638 47.9894 470.415 47.9265 470.193 47.8635ZM452.149 47.6747C451.964 47.8321 451.778 47.9894 451.593 48.1467C451.778 48.1782 451.927 48.2097 452.112 48.2726C452.224 48.0838 452.372 47.895 452.484 47.7377C452.372 47.7062 452.261 47.6747 452.149 47.6747ZM442.237 46.8565C442.831 46.9195 443.462 46.9824 444.316 47.0768C444.353 46.7936 444.39 46.5104 444.427 46.1957C443.128 46.2272 442.682 46.5419 442.237 46.8565C441.977 46.888 441.717 46.888 441.235 46.9195C441.457 47.0768 441.643 47.1712 441.977 47.36C442.088 47.1083 442.163 46.9824 442.237 46.8565ZM472.012 45.9125C471.937 45.8495 471.826 45.8181 471.752 45.7551C471.343 45.8181 470.935 45.9125 470.564 45.9754C470.675 46.1013 470.824 46.2272 471.084 46.416C471.492 46.1957 471.752 46.0698 472.012 45.9125ZM482.37 46.2272C482.073 46.0384 481.813 45.9125 481.479 45.6922C481.256 46.2586 481.256 46.2586 482.37 46.2272ZM477.284 45.6922C477.284 45.6922 477.506 45.881 477.543 45.8495C477.766 45.8495 477.989 45.7866 478.212 45.7237C478.063 45.6293 477.952 45.5663 477.878 45.5034C477.692 45.5663 477.469 45.6293 477.284 45.6922ZM468.559 45.2202C468.559 44.9684 468.373 44.7167 467.631 44.7796C467.26 44.8111 467.037 45.0628 466.517 45.346C467.52 45.2831 468.039 45.2516 468.559 45.2202C468.596 45.7551 469.264 45.7237 470.193 45.3775C469.673 45.3146 469.116 45.2831 468.559 45.2202ZM473.868 44.4649C473.237 44.3705 472.829 44.2761 472.383 44.2132C472.457 43.93 472.494 43.6153 472.569 43.3321C471.566 43.6153 470.564 43.867 469.264 44.2132C470.527 44.5279 471.492 44.7481 472.94 45.0943C473.163 44.937 473.46 44.7481 473.868 44.4649ZM480.402 44.3391C480.365 44.2447 480.217 44.1502 480.105 44.0558C479.882 44.1188 479.734 44.1817 479.585 44.2132C479.697 44.2761 479.845 44.3705 479.994 44.4335C480.031 44.4649 480.439 44.3705 480.402 44.3391ZM472.569 43.1118C472.68 42.9859 472.791 42.8915 472.977 42.6712C472.42 42.7342 472.012 42.7971 471.046 42.9544C471.937 43.0489 472.272 43.0803 472.569 43.1118C472.569 43.1747 472.569 43.2691 472.569 43.3321C473.051 43.2691 473.051 43.1747 472.569 43.1118ZM475.167 42.7342C475.019 42.7027 474.87 42.7027 474.722 42.6712C474.722 42.7027 474.722 42.7656 474.722 42.8286C474.87 42.7971 475.019 42.7656 475.167 42.7342ZM459.389 43.8041C459.946 43.7726 460.466 43.7412 461.134 43.7097C460.02 43.2691 460.02 43.2691 459.389 43.8041ZM457.718 43.8356C458.312 44.0873 458.869 44.1502 459.389 43.8041C458.869 43.7726 458.387 43.4265 457.718 43.8356ZM451.221 44.1502C450.553 44.2447 449.848 44.3391 448.882 44.4649C450.108 44.6223 450.108 44.6223 451.221 44.1502ZM358.481 44.7481C357.293 44.874 356.811 45.0943 357.145 45.5978C357.479 45.5978 357.887 45.6293 358.481 45.6922V44.7481ZM430.134 45.4405C430.357 45.3775 430.579 45.2831 430.802 45.2202C431.062 45.1887 431.322 45.1887 431.582 45.1572C431.545 45.1258 431.545 45.0943 431.508 45.0628C431.248 45.1258 431.025 45.1572 430.802 45.2202C430.505 45.2516 430.208 45.2516 429.948 45.2831C429.985 45.346 430.06 45.3775 430.134 45.4405ZM428.5 44.9999C427.09 45.2831 427.09 45.2831 427.35 45.7551C427.758 45.5034 428.018 45.3146 428.5 44.9999ZM463.213 45.4405C462.99 45.1258 462.805 44.874 462.582 44.5593C461.728 45.0943 461.728 45.0943 463.213 45.4405ZM460.8 44.7481C459.76 44.8426 459.129 44.874 457.867 44.937C458.832 45.3146 459.241 45.4719 459.835 45.6922C460.132 45.409 460.354 45.1887 460.8 44.7481ZM370.287 45.5978C369.73 45.7866 369.471 45.881 369.025 46.0384C369.73 46.1642 370.287 46.2901 371.327 46.4789C370.881 46.1013 370.659 45.9125 370.287 45.5978ZM426.607 46.1013C426.496 46.0384 426.421 45.9754 426.347 45.9439L425.27 46.2272C425.345 46.2901 425.419 46.3216 425.53 46.3845C425.864 46.2901 426.236 46.1957 426.607 46.1013ZM435.072 47.7062C435.554 47.5803 436 47.4544 436.482 47.3286C436.297 47.2656 436.148 47.1712 435.963 47.1083C435.591 47.2656 435.183 47.3915 434.775 47.5488C434.886 47.6118 434.96 47.6747 435.072 47.7062ZM431.025 47.9579H432.956C433.141 47.895 433.29 47.8321 433.253 47.8321C432.473 47.2342 434.663 46.8565 433.995 46.1957C433.364 46.2901 432.807 46.353 432.361 46.416C431.879 46.9509 431.47 47.423 431.025 47.9579ZM364.904 46.9195C364.718 46.8251 364.533 46.7307 364.384 46.6363C364.273 46.6992 364.162 46.7307 364.05 46.7936C364.273 46.8565 364.496 46.9195 364.756 46.9824L364.904 46.9195ZM415.841 47.1712C415.841 47.0768 415.618 47.0139 415.321 46.8251C415.098 47.0139 414.875 47.1083 414.838 47.2342C414.801 47.2971 414.987 47.423 415.358 47.7691C415.655 47.423 415.841 47.2971 415.841 47.1712ZM421.372 47.6747C421.224 47.6747 421.075 47.6432 420.927 47.6118C420.927 47.6747 420.927 47.7062 420.927 47.7691C421.075 47.7377 421.224 47.7062 421.372 47.6747ZM422.597 47.7062C422.486 47.7062 422.375 47.7377 422.226 47.7691C422.412 47.8635 422.597 47.9579 422.783 48.0523C422.709 47.9265 422.672 47.8006 422.597 47.7062ZM437.559 48.2097C437.448 48.2411 437.299 48.2411 437.188 48.2411C437.262 48.3041 437.299 48.3356 437.373 48.3985C437.448 48.3356 437.522 48.2726 437.559 48.2097ZM440.641 48.2411C440.641 48.1782 440.641 48.1467 440.641 48.0838C440.492 48.1153 440.344 48.1467 440.195 48.1782C440.344 48.1782 440.492 48.2097 440.641 48.2411ZM454.971 48.902H457.31C456.53 48.367 456.011 48.0209 454.488 48.0523C454.674 48.367 454.823 48.6188 454.971 48.902ZM452.112 49.2481C452.558 49.0279 452.818 48.8705 453.338 48.6188C452.521 48.5873 452.038 48.5873 451.296 48.5873C451.593 48.839 451.778 48.9964 452.112 49.2481ZM441.049 48.5558H439.007C438.97 48.7446 438.933 48.902 438.896 49.0908C440.641 49.1852 440.641 49.1852 441.049 48.5558ZM422.412 49.1223C422.486 49.0593 422.597 48.9964 422.709 48.9335C422.486 48.8705 422.3 48.839 422.078 48.8076C422.041 48.8705 421.929 48.9335 422.003 48.9964C422.078 49.0593 422.263 49.0593 422.412 49.1223ZM417.066 49.2167C417.029 49.1223 416.991 48.9964 416.917 48.8076C416.583 48.902 416.323 48.9649 415.878 49.1223C416.435 49.1537 416.769 49.1852 417.066 49.2167C417.288 49.3111 417.177 49.2481 417.066 49.2167ZM418.328 48.3041C418.179 48.3356 418.031 48.367 417.882 48.3985C418.031 48.43 418.179 48.4614 418.328 48.4929C418.328 48.43 418.328 48.367 418.328 48.3041ZM422.783 48.0523C423.006 48.1153 423.229 48.2097 423.451 48.2726C423.526 48.2097 423.563 48.1782 423.637 48.1153C423.34 48.0838 423.08 48.0838 422.783 48.0523ZM429.057 48.9964V49.5943C429.911 49.3111 429.688 49.1537 429.094 48.9964C429.54 48.8705 429.985 48.7132 430.245 48.6502C430.171 47.9894 429.54 47.8006 428.278 47.8321C427.721 48.3356 427.721 48.7132 429.057 48.9964ZM328.261 44.4649C328.15 44.4649 328.001 44.4649 327.89 44.4649C327.964 44.5279 328.038 44.5908 328.075 44.6537C328.15 44.5908 328.224 44.5279 328.261 44.4649ZM433.884 44.0244C434.106 43.4894 434.106 43.4894 433.03 43.4894C433.327 43.6782 433.55 43.8356 433.884 44.0244ZM429.577 43.6782C428.241 43.1118 428.166 43.8041 427.535 43.8041C427.647 43.8985 427.758 43.9614 427.869 44.0244C428.389 43.93 428.909 43.8041 429.577 43.6782ZM429.206 42.4195C428.946 42.4824 428.797 42.5139 428.649 42.5454C428.797 42.6398 428.909 42.7342 429.094 42.7971C429.132 42.7971 429.503 42.7027 429.503 42.7027C429.466 42.6083 429.317 42.5139 429.206 42.4195ZM431.136 41.5069C431.062 41.6957 430.988 41.8845 430.951 42.0733C431.173 42.0733 431.396 42.0733 431.656 42.0733V41.5069C431.47 41.5069 431.322 41.5069 431.136 41.5069ZM427.015 41.0034C426.756 41.0663 426.459 41.0978 426.459 41.1293C426.496 41.2237 426.607 41.2866 426.681 41.381C426.83 41.3496 427.127 41.3496 427.127 41.3181C427.164 41.2237 427.053 41.1293 427.015 41.0034ZM432.324 41.0663C433.29 40.6572 433.215 40.374 432.584 40.0279C431.656 40.3111 431.879 40.5943 432.324 41.0663ZM449.959 42.5454C450.033 42.451 450.145 42.3251 450.293 42.1363C449.105 41.7586 447.212 41.8216 446.618 41.0034C445.95 41.4754 445.393 41.853 444.687 42.3251C444.91 42.3565 445.244 42.451 445.727 42.5454C445.318 42.923 444.91 43.2377 444.539 43.5838V43.5523V42.8915C443.796 43.0803 443.314 43.2062 442.831 43.3321C442.757 43.4579 442.682 43.5838 442.608 43.6782C442.497 43.6468 442.385 43.6468 442.274 43.6153C442.46 43.5209 442.608 43.4265 442.794 43.3321V42.6712C442.088 42.86 441.606 42.9859 441.086 43.0803C441.272 42.6712 440.641 42.1677 441.977 41.8216C441.717 41.6328 441.457 41.444 441.197 41.2866C441.346 41.0034 441.532 40.7517 441.68 40.4999C441.829 40.437 442.014 40.3426 442.348 40.2167C441.309 40.0279 440.641 39.5873 439.378 39.9964C440.232 40.1852 440.938 40.3426 441.643 40.4999H439.118C438.896 40.8461 438.747 41.0978 438.524 41.444C438.19 41.3496 437.93 41.2866 437.67 41.2237C437.782 41.1607 437.893 41.1293 437.967 41.0978C437.967 41.0978 437.967 41.0978 437.967 41.0663C437.856 41.1293 437.745 41.1607 437.633 41.1922C437.002 41.2237 436.334 41.2551 435.517 41.3181C435.591 41.1293 435.703 40.909 435.851 40.6572C435.48 40.5943 435.109 40.5314 434.589 40.4684C434.589 41.0349 434.069 41.5384 435.369 41.916C434.366 42.1048 433.995 42.388 434.589 42.86C435.74 42.6083 435.22 42.2307 435.369 41.916C436.594 41.9789 437.782 42.0104 439.081 42.0419C439.267 41.9789 439.564 41.8845 440.232 41.6328C440.232 42.2936 439.378 42.8915 441.086 43.1118C440.566 43.3321 441.086 43.5209 441.272 43.7412C440.789 43.7726 440.344 43.8041 439.898 43.8356C439.824 43.8985 439.638 43.9929 439.712 44.0244C440.455 44.5908 441.235 45.1258 441.866 45.5978C443.276 45.881 443.759 45.1887 445.021 45.3775C445.652 45.4405 446.692 45.0314 447.806 44.7481C447.954 44.5908 448.214 44.3076 448.548 43.93C447.88 43.7097 447.212 43.4265 446.358 43.1433C446.581 42.86 446.803 42.5454 447.1 42.1363C448.066 42.2936 448.957 42.388 449.959 42.5454ZM475.242 42.0733C475.13 41.8845 474.982 41.7272 474.87 41.5384C474.722 41.5698 474.573 41.5698 474.388 41.6013C474.499 41.7586 474.648 41.9475 474.759 42.1363C474.908 42.1048 475.093 42.0733 475.242 42.0733ZM475.242 40.374C475.019 40.2796 474.833 40.2167 474.611 40.1223C474.536 40.1538 474.425 40.2167 474.351 40.2482C474.536 40.3111 474.759 40.4055 474.982 40.4684C475.056 40.437 475.13 40.4055 475.242 40.374ZM436.408 39.5873C436.297 39.6817 436.148 39.7761 436.111 39.8705C436.111 39.902 436.482 39.9964 436.52 39.9649C436.705 39.902 436.817 39.8076 436.928 39.7132C436.779 39.6817 436.631 39.6503 436.408 39.5873ZM476.578 39.3356C476.615 38.8321 475.65 38.8006 474.908 38.6433C473.831 38.7691 472.977 38.958 472.829 39.5873C473.534 39.43 474.054 39.3041 474.573 39.1782C475.056 39.3041 475.539 39.43 475.984 39.5559C476.467 39.8391 476.949 40.1223 477.506 40.437C477.878 39.9335 477.803 39.5244 476.578 39.3356ZM472.235 35.7796C471.752 35.8426 471.158 35.8426 471.046 35.9684C470.564 36.3461 471.158 36.5663 471.975 36.7237C472.049 36.4405 472.123 36.1573 472.235 35.7796ZM478.212 32.3181C478.063 32.1922 477.952 32.1608 477.878 32.0978C477.692 32.1293 477.469 32.1922 477.321 32.2552C477.284 32.2866 477.506 32.444 477.543 32.4125C477.766 32.4125 477.989 32.3496 478.212 32.3181ZM474.017 31.437C473.757 31.3111 473.46 31.1852 473.163 31.0594C473.014 31.1223 472.903 31.1852 472.754 31.2482C473.051 31.3426 473.385 31.4685 473.72 31.5629C473.831 31.5314 473.905 31.4685 474.017 31.437ZM423.303 30.8706L423.006 30.965C423.191 31.0594 423.34 31.1538 423.526 31.2482C423.637 31.1852 423.785 31.1223 423.897 31.0908C423.711 30.9964 423.488 30.9335 423.303 30.8706ZM475.947 30.902C475.799 30.8076 475.613 30.7132 475.464 30.6188C475.316 30.6503 475.167 30.7132 475.056 30.7447C475.242 30.8391 475.464 30.902 475.687 30.9964C475.761 30.965 475.836 30.9335 475.947 30.902ZM479.957 30.0209C478.954 29.9894 478.249 29.9894 477.135 29.958C478.137 30.4615 478.88 30.4615 479.957 30.0209ZM492.988 29.895C492.839 29.8321 492.617 29.7692 492.431 29.7377C492.32 29.8006 492.245 29.8636 492.097 29.958C492.32 29.9894 492.542 30.0524 492.765 30.0524C492.802 30.0524 493.025 29.895 492.988 29.895ZM471.492 29.8006C472.791 30.3356 473.423 29.9265 474.351 29.6748C473.163 29.5804 473.163 29.5804 471.492 29.8006ZM423.6 29.4859C423.526 29.5489 423.451 29.6433 423.414 29.7062C423.823 29.7692 424.194 29.8321 424.602 29.9265C424.676 29.8321 424.751 29.7377 424.825 29.6433L423.6 29.4859ZM471.158 29.0454C470.787 28.9825 470.415 28.888 470.044 28.7936C469.933 28.8566 469.858 28.951 469.747 29.0139C470.155 29.0769 470.564 29.1398 471.009 29.2027C471.046 29.1398 471.121 29.1083 471.158 29.0454ZM422.003 28.2901C420.964 28.4475 420.481 28.5419 419.627 28.6678C420.221 28.9195 420.444 29.0139 420.853 29.2027C421.187 28.9195 421.447 28.6992 422.003 28.2901ZM495.772 28.3531C495.624 28.3531 495.475 28.3216 495.327 28.2901C495.327 28.3531 495.327 28.3845 495.327 28.4475C495.475 28.416 495.624 28.3845 495.772 28.3531ZM435.926 27.3146C436.111 27.2202 436.445 27.0943 436.408 27.0629C435.591 26.4964 435.183 25.7727 433.141 25.5209C432.993 26.0244 432.881 26.5594 432.733 27.1258C433.847 27.2202 434.589 27.8811 435.926 27.3146ZM438.339 27.3461C438.19 27.3776 438.079 27.409 437.93 27.4405C438.079 27.4405 438.227 27.472 438.376 27.5034C438.376 27.4405 438.376 27.409 438.339 27.3461ZM441.309 27.1258C441.346 27.0629 441.383 26.9685 441.42 26.9055C441.086 26.8741 440.752 26.8426 440.418 26.8426C439.787 26.8426 439.155 26.8426 438.153 26.8426C439.378 27.2832 440.344 27.1887 441.309 27.1258ZM439.972 25.6468C439.935 25.5839 439.935 25.4895 439.935 25.4265C440.603 25.395 441.235 25.3636 442.014 25.3321C442.088 25.3636 442.237 25.458 442.46 25.5209C442.571 25.5839 442.757 25.5839 443.054 25.6153C443.017 25.4895 443.054 25.3636 442.905 25.3006C442.2 25.0174 441.457 24.7342 440.566 24.3566C440.344 24.7027 440.158 25.0489 439.935 25.4265C439.453 25.4895 439.453 25.5839 439.935 25.6468C439.972 25.7727 440.047 25.8671 440.121 26.0559C440.938 26.1188 441.791 26.1818 443.128 26.2762C442.014 25.8041 440.938 25.7727 439.972 25.6468ZM432.918 23.7902C431.73 23.916 431.693 24.2622 431.248 24.7342C432.324 24.4195 433.03 24.2622 432.918 23.7902ZM436.817 24.8601C437.076 24.8916 437.373 24.923 437.633 24.9545C437.708 25.3321 437.745 25.6783 437.782 26.0559C437.93 26.0874 438.079 26.0874 438.264 26.0874C438.413 25.9615 438.784 25.8041 438.71 25.7097C438.487 25.4265 438.042 25.2062 437.67 24.9545C437.448 24.8601 437.225 24.7971 437.002 24.7342C436.928 24.7657 436.854 24.8286 436.817 24.8601ZM425.642 23.7587C425.827 23.6013 425.976 23.4125 426.236 23.1608C425.493 23.1293 424.899 23.0978 424.305 23.0978C424.12 23.7587 424.12 23.7587 422.894 24.4195C422.969 24.4825 422.969 24.5769 423.08 24.6083C423.451 24.7342 423.86 24.7971 424.12 24.8601C425.679 24.6713 424.008 23.8846 425.642 23.7587C425.605 23.7587 425.605 23.7587 425.53 23.7272C425.605 23.7587 425.642 23.7587 425.679 23.7902C425.642 23.7902 425.642 23.7587 425.642 23.7587ZM434.96 23.4755C435.591 23.3181 435.591 23.3181 435.777 22.6888C435.22 22.909 434.738 23.0978 434.144 23.3496C434.552 23.4125 434.849 23.5069 434.96 23.4755ZM367.503 24.3566C367.28 24.3566 367.057 24.3881 366.835 24.451C366.909 24.5139 366.983 24.6083 367.057 24.6083C367.28 24.6398 367.503 24.5769 367.763 24.5769C367.651 24.451 367.54 24.3251 367.503 24.3566ZM419.367 23.0034C418.885 23.1923 418.551 23.3181 418.142 23.4755C418.402 23.6643 418.662 23.7902 418.885 23.9475C419.924 23.7272 420.184 23.4755 419.367 23.0034ZM356.922 20.5174C356.736 20.7377 356.588 20.8321 356.551 20.9265C356.551 20.9895 356.699 21.0839 356.774 21.0839C356.996 21.0839 357.219 21.0524 357.442 21.0209C357.33 20.9265 357.256 20.8321 356.922 20.5174ZM423.229 21.6188C422.523 21.0524 422.857 20.2972 422.709 19.5419C421.966 19.6048 421.447 19.6363 420.927 19.6678C420.481 19.7307 420.036 19.7937 419.442 19.8881C420.89 20.5804 421.484 21.3356 420.556 22.1853C420.89 22.3741 421.187 22.5629 421.484 22.7202C421.335 23.0978 421.187 23.444 421.075 23.7587C420.741 24.0419 420.407 24.3251 419.887 24.7657C420.778 24.6713 421.187 24.6398 421.744 24.5769C421.484 24.2622 421.261 24.0104 421.075 23.7587C421.706 23.7272 422.338 23.6957 423.117 23.6328C422.969 22.9405 424.157 22.3741 423.229 21.6188ZM438.153 21.0209C437.299 21.1783 436.445 21.3356 435.554 21.493C435.74 21.6818 435.814 21.7762 435.926 21.8706C435.926 21.902 435.888 21.902 435.888 21.902C435.926 21.902 435.963 21.8706 436.037 21.8391C436 21.8706 435.963 21.8706 435.963 21.902C436.408 22.0279 436.891 22.1538 437.411 22.2797C438.339 21.965 439.453 21.6818 438.153 21.0209ZM432.658 20.8007C432.287 21.0209 431.916 21.2727 431.545 21.493C431.73 21.5559 431.916 21.5874 432.102 21.6503C432.436 21.3986 432.733 21.1468 433.067 20.8951C432.918 20.8636 432.77 20.8321 432.658 20.8007ZM436.631 19.8251C435.666 19.9825 435.035 20.1083 433.884 20.3286C435.591 20.5489 436.148 20.3601 436.631 19.8251ZM440.975 20.5174C440.641 20.2972 440.344 20.0454 439.898 19.7307C439.49 19.8566 439.118 19.9825 438.413 20.2028C439.378 20.423 440.047 20.5489 440.678 20.7062C440.789 20.6433 440.863 20.5804 440.975 20.5174ZM439.861 19.3531C439.787 19.2902 439.712 19.2272 439.638 19.1643C439.601 19.2272 439.527 19.2902 439.453 19.3531C439.601 19.3531 439.712 19.3531 439.861 19.3531ZM434.218 18.5979C433.698 18.5664 433.178 18.5349 432.361 18.472C432.733 18.7237 432.956 18.8496 433.29 19.0699C433.698 18.8811 433.958 18.7237 434.218 18.5979ZM437.522 18.6923C437.411 18.2517 436.037 18.2517 434.218 18.5979C434.7 18.7237 435.146 18.8496 435.666 18.9755C436.26 18.8811 436.928 18.7867 437.522 18.6923ZM424.417 18.1258C423.785 18.1573 423.377 18.1573 422.857 18.1888C423.451 18.5664 423.451 18.5664 424.417 18.1258ZM430.505 17.9685C430.208 17.937 429.948 17.9056 429.651 17.8741C429.651 17.8741 429.614 17.8741 429.614 17.8426C429.614 17.8741 429.651 17.8741 429.726 17.9056C429.911 17.9685 430.134 18.0314 430.32 18.0944C430.357 18.0629 430.431 18 430.505 17.9685ZM437.633 17.2447C437.336 16.8986 437.039 16.5839 436.742 16.2377C436.297 16.2692 435.963 16.2692 435.257 16.3321C435.703 16.5524 435.926 16.6783 436.26 16.8356C436 17.0874 435.666 17.3706 435.369 17.6538C435.703 17.7797 436 17.9056 436.445 18.0629C436.854 17.7797 437.225 17.5279 437.633 17.2447ZM425.716 16.5209C425.864 16.5209 426.013 16.5209 426.124 16.5209C426.05 16.458 425.976 16.3951 425.939 16.3321C425.864 16.3951 425.79 16.458 425.716 16.5209ZM430.839 17.1503C431.099 17.2447 431.359 17.3391 431.619 17.4335C432.77 17.2132 432.881 16.8986 432.956 16.3321C432.064 16.6783 431.545 16.8671 430.839 17.1503ZM427.721 16.7412C428.203 16.93 428.612 17.2762 429.651 16.7412H427.721ZM434.849 17.6853C434.663 17.7482 434.478 17.8111 434.403 17.9056C434.366 17.937 434.663 18.0629 434.738 18.0629C434.923 18 435.146 17.937 435.294 17.8741C435.369 17.8111 435.332 17.7167 435.369 17.6538C435.183 17.6538 434.96 17.6538 434.849 17.6853ZM419.702 17.937C419.293 17.937 418.885 17.9056 418.514 17.9056V18.5035C419.293 18.6923 419.627 18.5349 419.702 17.937ZM411.385 14.8846C410.754 15.4195 410.457 15.6713 410.012 16.0174C409.603 15.7972 409.306 15.6713 409.047 15.514C408.861 15.6398 408.453 15.7972 408.527 15.8916C408.787 16.2377 408.898 16.5524 407.524 16.7412C408.49 16.9615 409.009 17.0874 409.641 17.2447C409.826 16.8986 409.938 16.6468 410.049 16.3636C410.383 16.3951 410.606 16.3951 410.68 16.4265C411.126 16.8042 411.608 17.1818 411.979 17.5909C412.239 17.8426 412.314 18.1258 412.499 18.5349H416.026C415.841 18.3461 415.655 18.1258 415.469 17.9056C415.135 17.937 414.764 17.9685 414.43 18C412.351 17.2447 412.054 16.1748 411.385 14.8846ZM415.766 17.4021C415.581 17.3391 415.358 17.2762 415.172 17.2132C415.061 17.2762 414.987 17.3391 414.838 17.465C415.061 17.4965 415.284 17.5594 415.506 17.5594C415.581 17.5594 415.803 17.4021 415.766 17.4021ZM409.232 14.6014C409.158 14.916 409.121 15.2307 409.047 15.514C409.566 15.2622 410.086 14.979 410.717 14.6328C410.16 14.6328 409.826 14.6014 409.232 14.6014ZM388.256 17.5594C388.071 17.4021 387.922 17.2447 387.662 16.993C388.033 16.7412 388.405 16.458 388.924 16.1433C388.293 15.986 387.774 15.8916 386.882 15.6713C387.031 16.0804 387.105 16.3007 387.18 16.5524C386.92 16.7098 386.66 16.8671 386.288 17.0874C386.808 17.2762 387.328 17.465 387.848 17.6538C387.996 17.6223 388.108 17.5909 388.256 17.5594ZM345.821 16.5524C345.524 16.5209 345.265 16.4895 345.005 16.458C344.559 16.1119 344.002 15.923 342.889 16.0489C343.26 16.5209 344.151 16.458 344.93 16.4895C345.153 16.5524 345.413 16.6153 345.636 16.6783C345.71 16.6468 345.747 16.5839 345.821 16.5524ZM351.613 16.5524C351.316 16.7098 351.093 16.8356 350.796 16.993C350.017 16.8042 349.386 16.6783 348.532 16.458C349.46 17.4335 349.46 17.4335 352.504 17.2762C352.133 16.9615 351.91 16.7727 351.613 16.5524ZM367.726 16.93C368.283 16.5209 368.542 16.3007 368.839 16.1119C368.023 15.986 367.317 15.8916 366.649 15.7972C366.5 15.8601 366.278 15.923 366.241 15.9545C366.018 16.3321 366.426 16.4895 367.28 16.458C367.391 16.5839 367.503 16.6783 367.726 16.93ZM366.612 16.8671C366.463 16.8986 366.352 16.8986 366.241 16.8986C366.278 16.9615 366.352 17.0244 366.426 17.0559C366.5 16.993 366.538 16.93 366.612 16.8671ZM361.86 14.8846C361.526 14.8846 361.192 14.8846 361.192 14.916C360.746 15.4195 358.593 15.3881 358.815 16.2377C360.003 16.0174 360.932 15.8286 362.194 15.5769C362.045 15.2937 361.971 15.0734 361.86 14.8846ZM390.075 14.6014C389.89 14.5384 389.704 14.444 389.556 14.3496C389.444 14.4126 389.333 14.444 389.221 14.507C389.444 14.5699 389.667 14.6328 389.927 14.6958C389.927 14.6958 390.075 14.6328 390.075 14.6014ZM346.081 15.0734L346.118 15.0419C346.304 14.979 346.453 14.8846 346.898 14.6958C345.97 14.6643 345.302 14.6328 344.374 14.6014C344.745 15.0419 345.005 15.3881 345.265 15.7342C345.413 15.7342 345.599 15.7342 345.747 15.7342C345.859 15.514 345.97 15.2937 346.081 15.0734ZM356.514 15.986C356.551 15.923 356.625 15.8916 356.699 15.8286C356.402 15.7972 356.105 15.7972 355.845 15.7657C355.14 15.4195 354.472 15.0419 353.581 14.6014C352.987 14.6014 352.17 14.5699 351.427 14.5699C350.759 14.8216 350.128 15.0734 349.534 15.2937C351.427 15.923 353.469 16.2063 355.845 15.7657C356.068 15.8286 356.291 15.923 356.514 15.986ZM348.383 14.3496C348.68 14.2237 348.977 14.0979 349.423 13.9091C348.792 13.7832 348.272 13.7202 347.678 13.6258C347.084 14.0664 347.084 14.3181 348.383 14.3496C347.678 15.0419 347.752 15.1049 349.534 15.2937C349.163 14.979 348.792 14.6643 348.383 14.3496ZM355.734 14.1923C355.623 14.0979 355.548 13.972 355.474 13.972C355.251 13.972 355.029 14.0349 354.806 14.0664C354.88 14.1293 354.954 14.2552 355.029 14.2552C355.251 14.2552 355.474 14.2237 355.734 14.1923ZM365.127 13.3426C363.976 13.0909 363.419 13.1853 362.602 13.7202C363.679 13.5629 364.236 13.5 365.127 13.3426ZM384.841 13.2797C384.469 13.3112 384.172 13.3741 383.875 13.4056C383.912 13.4056 383.912 13.4056 383.95 13.437C383.912 13.4056 383.875 13.4056 383.875 13.4056C384.432 13.7517 384.729 13.6888 384.841 13.2797ZM357.739 12.6189C357.85 12.5874 357.962 12.5244 358.036 12.4615C357.702 12.3986 357.33 12.3042 356.996 12.2412C357.219 12.3671 357.479 12.493 357.739 12.6189ZM351.724 12.2727C351.65 12.2098 351.613 12.1468 351.539 12.0839C351.465 12.1468 351.427 12.2098 351.353 12.2727C351.465 12.2727 351.613 12.2727 351.724 12.2727ZM361.786 10.5419C360.857 10.6993 360.263 10.9196 360.597 11.5489C361.823 11.2972 362.825 11.1398 364.013 10.9196C363.308 10.5419 362.788 10.3531 361.786 10.5419ZM373.294 12.965C374.52 12.5559 375.225 12.3356 375.782 12.1468C375.411 11.1398 374.26 10.4475 372.478 9.84963C371.735 10.0699 370.956 10.2902 370.176 10.5105C370.176 11.5175 372.441 11.8951 373.294 12.965C373.035 12.965 372.738 12.9965 372.403 13.0279C373.22 13.1853 373.74 13.2797 374.26 13.4056C374.223 12.9965 373.851 12.9335 373.294 12.965ZM377.675 9.12585C377.898 8.49648 377.861 8.49648 375.968 8.62236C376.116 9.03145 376.636 9.22026 377.675 9.12585ZM365.609 7.64684C364.459 7.83565 365.572 8.2762 365.312 8.55942C366.018 8.65383 366.723 8.74823 367.763 8.90557C367.911 8.84264 368.245 8.71676 368.542 8.62236C367.28 8.21327 366.5 7.93005 365.609 7.64684ZM376.859 7.55243C376.859 7.61537 376.859 7.64684 376.896 7.70977L377.341 7.61537C377.156 7.61537 377.007 7.5839 376.859 7.55243ZM380.497 7.77271C380.126 7.5839 379.791 7.42656 379.049 7.0804C378.678 7.33215 378.418 7.48949 378.084 7.74124C378.9 8.05593 379.569 8.05593 380.497 7.77271ZM377.007 6.16782C376.747 6.07341 376.487 5.94754 376.302 5.8846C374.742 5.94754 374.705 6.35663 374.705 6.76572C374.742 7.04893 374.891 7.30068 376.153 7.23775C376.45 6.89159 376.71 6.57691 377.007 6.16782ZM378.566 5.91607C378.566 5.94754 378.603 6.01048 378.603 6.07341C378.752 6.04194 378.9 6.01048 379.049 5.97901C378.9 5.94754 378.715 5.91607 378.566 5.91607ZM382.836 6.67131C382.947 6.63984 383.021 6.63984 383.096 6.63984C382.984 6.51397 382.836 6.41957 382.724 6.32516C382.65 6.10488 382.576 5.8846 382.502 5.63285C381.388 6.07341 381.388 6.07341 382.724 6.32516C382.762 6.45103 382.799 6.54544 382.836 6.67131ZM55.387 2.26573C55.7583 2.45454 56.1295 2.67482 56.5008 2.86363C55.684 3.17831 55.1643 3.65034 53.7535 3.55594L53.0852 3.33566C53.011 3.36713 52.9739 3.43006 52.8996 3.46153C53.1595 3.493 53.4565 3.52447 53.7535 3.55594C53.5679 3.71328 53.3822 3.90209 53.1224 4.1853C55.7583 3.93356 58.1343 3.71328 60.8074 3.493C60.3247 3.17831 59.9535 2.9895 59.805 2.76922C59.6565 2.61188 59.8421 2.42307 59.9535 2.07692C59.1739 2.2972 58.6912 2.42307 58.2457 2.54895C56.5379 2.3916 58.4313 1.76223 57.2433 1.47902C56.3152 1.54195 55.7954 1.82517 55.387 2.26573ZM45.7343 2.83216C45.623 2.8951 45.5116 2.92657 45.4002 2.95804C45.4373 2.95804 45.4373 2.95804 45.4373 2.9895C45.5487 2.92657 45.6601 2.8951 45.7343 2.83216C45.92 2.73776 46.1056 2.64335 46.2912 2.54895C46.1799 2.54895 46.0685 2.51748 45.92 2.48601L45.7343 2.83216ZM50.1894 2.9895C50.2266 2.83216 50.2266 2.67482 50.2637 2.54895C48.3331 2.48601 48.3331 2.48601 47.3307 2.9895H50.1894ZM54.4218 3.08391C54.496 3.02097 54.5331 2.95804 54.6074 2.92657C54.3475 2.8951 54.0505 2.86363 53.7906 2.83216C53.5307 2.76922 53.308 2.67482 53.0852 2.61188C53.011 2.67482 52.9367 2.70629 52.8996 2.76922C53.1595 2.80069 53.4565 2.83216 53.7164 2.86363C53.9763 2.92657 54.199 2.9895 54.4218 3.08391ZM26.8374 3.17831C27.2086 3.65034 27.6912 3.83915 28.9164 3.71328C28.9535 3.5874 29.0278 3.39859 29.1392 3.17831H26.8374ZM50.4864 4.21677C50.5978 4.31118 50.7463 4.40558 50.9319 4.46852C51.0433 4.49999 51.2661 4.46852 51.4517 4.49999C51.4517 4.40558 51.4888 4.31118 51.3775 4.27971C51.2661 4.1853 51.0433 4.12237 50.8206 4.0909C50.7463 4.0909 50.4493 4.1853 50.4864 4.21677ZM46.3284 4.81467C46.4769 4.81467 46.5882 4.81467 46.7367 4.81467C46.7739 4.6888 46.811 4.53146 46.8481 4.40558C46.7367 4.40558 46.5882 4.37412 46.4769 4.37412C46.4397 4.53146 46.4026 4.65733 46.3284 4.81467ZM77.8481 6.60838C78.7391 6.23075 79.1475 6.07341 79.89 5.75873C78.7762 5.60139 78.2193 5.50698 77.1798 5.34964C77.4026 5.7902 77.5511 6.04194 77.8481 6.60838ZM77.0684 7.39509C77.5511 7.11187 77.8481 6.95453 78.1822 6.76572C77.1056 6.73425 76.5858 6.89159 77.0684 7.39509ZM29.1763 7.64684C30.29 7.36362 30.29 7.36362 29.2505 6.89159C29.2134 7.17481 29.2134 7.39509 29.1763 7.64684ZM61.4014 9.53494C62.1068 9.56641 62.775 9.62935 63.4804 9.66082C63.4804 9.81816 63.4804 9.9755 63.4433 10.1328C62.7008 10.0699 61.9583 9.9755 61.2158 9.91256C61.1415 9.84963 61.0301 9.78669 60.9559 9.75522C61.0301 9.81816 61.1044 9.84963 61.1415 9.91256C61.6241 10.3217 62.0697 10.7307 63.4804 10.6363C63.9259 10.8881 64.4086 11.1713 64.8912 11.4545C65.4852 11.2657 66.0421 11.0769 66.6732 10.8566C66.4876 10.5734 66.2649 10.2272 65.8936 9.69229C65.2625 9.69229 64.3714 9.69229 63.4804 9.66082C63.1092 9.06292 62.7379 8.43355 62.3667 7.80418C62.8864 7.77271 63.4062 7.74124 64.3343 7.64684C63.7032 7.39509 63.3691 7.23775 62.9607 7.14334C62.7379 7.11187 62.3295 7.23775 61.9583 7.30068C62.1068 7.48949 62.181 7.64684 62.2924 7.77271C60.5475 8.1818 61.2529 8.81117 61.4014 9.53494ZM31.4038 8.99998C32.035 9.18879 32.5918 9.31466 33.1487 9.44054C34.4481 9.12585 35.302 8.7797 34.5966 8.08739C33.0374 8.08739 32.4062 8.59089 31.4038 8.99998ZM27.4685 9.44054C27.5799 9.47201 27.6541 9.53494 27.7284 9.56641C27.9511 9.50347 28.1739 9.44054 28.3966 9.34613C28.3224 9.31466 28.2481 9.2832 28.1739 9.22026C27.9511 9.2832 27.7284 9.3776 27.4685 9.44054ZM24.5727 10.3846C25.0924 10.2902 25.5751 10.1958 26.429 10.0699C25.0182 9.81816 24.6098 9.9755 24.5727 10.3846ZM26.9487 11.1398C27.5427 11.4545 28.2481 11.5489 29.1392 11.3286C28.8421 10.951 28.5451 10.6049 28.2481 10.2272C26.9487 10.2902 26.9487 10.2902 26.9487 11.1398ZM29.8074 11.7377C29.8445 11.7377 30.1415 11.6119 30.1415 11.5804C30.0302 11.5175 29.8817 11.4231 29.696 11.3601C29.5475 11.3286 29.3248 11.3286 29.1392 11.3286C29.1763 11.3916 29.1392 11.486 29.2134 11.5489C29.3619 11.6119 29.5847 11.6748 29.8074 11.7377ZM47.8505 11.9265C48.0361 11.7692 48.2218 11.6119 48.4074 11.4545C48.2218 11.4231 48.0733 11.3916 47.8876 11.3601C47.7763 11.5175 47.6278 11.7063 47.5164 11.8951C47.6278 11.8951 47.7391 11.9265 47.8505 11.9265ZM57.7631 12.7447C57.1319 12.6818 56.5379 12.6189 55.684 12.5244C55.6469 12.8077 55.6098 13.0909 55.5355 13.4056C56.8721 13.3741 57.3176 13.0594 57.7631 12.7447C58.023 12.7133 58.2828 12.7133 58.7655 12.6818C58.5056 12.5244 58.3571 12.43 58.023 12.2412C57.8745 12.493 57.8373 12.6189 57.7631 12.7447ZM27.9883 13.6888C28.0625 13.7517 28.1739 13.7832 28.2481 13.8461C28.6565 13.7832 29.0649 13.6888 29.4362 13.6258C29.2877 13.5 29.1392 13.3741 28.9164 13.1853C28.508 13.4056 28.2481 13.5629 27.9883 13.6888ZM17.6302 13.3741C17.9272 13.5629 18.1499 13.6888 18.5212 13.9091C18.744 13.3741 18.744 13.3741 17.6302 13.3741ZM22.6793 13.9091C22.7164 13.9091 22.4936 13.7517 22.4565 13.7517C22.2338 13.7517 22.011 13.8147 21.7883 13.8776C21.9368 13.972 22.0481 14.0349 22.1224 14.0979C22.308 14.0349 22.5308 13.972 22.6793 13.9091ZM31.4409 14.3811C31.4409 14.6328 31.6266 14.8846 32.3691 14.8216C32.7032 14.7902 32.926 14.5384 33.4829 14.2552C32.4805 14.3181 31.9607 14.3496 31.4409 14.3811C31.4038 13.8461 30.7356 13.8776 29.7703 14.2237C30.3272 14.2867 30.8841 14.3496 31.4409 14.3811ZM26.132 15.1363C26.7631 15.2622 27.1344 15.3251 27.617 15.3881C27.5427 15.6713 27.5056 15.986 27.4314 16.2692C28.4338 16.0174 29.399 15.7342 30.7356 15.3881C29.4362 15.0734 28.508 14.8531 27.0601 14.507C26.8374 14.6643 26.5404 14.8531 26.132 15.1363ZM19.5607 15.2622C19.635 15.3566 19.7463 15.451 19.8948 15.5454C20.1176 15.4825 20.2661 15.4195 20.4146 15.3881C20.2661 15.3251 20.1547 15.2307 20.0062 15.1678C19.9691 15.1363 19.5607 15.2307 19.5607 15.2622ZM27.4314 16.5209C27.32 16.6153 27.2086 16.7098 26.9859 16.93C27.5799 16.8671 27.9883 16.8042 28.9535 16.6468C28.0625 16.5839 27.7284 16.5524 27.4314 16.5209C27.4314 16.4265 27.4314 16.3636 27.4314 16.2692C26.9116 16.3636 26.9116 16.4265 27.4314 16.5209ZM24.8326 16.8671C24.9811 16.8986 25.1296 16.93 25.2781 16.93C25.2781 16.8986 25.2781 16.8356 25.2781 16.7727C25.1296 16.8042 24.9811 16.8356 24.8326 16.8671ZM40.5739 15.7972C40.0541 15.8286 39.5343 15.8601 38.8661 15.8916C39.9427 16.3636 39.9427 16.3636 40.5739 15.7972ZM42.2817 15.7657C41.6505 15.514 41.1308 15.451 40.611 15.7972C41.1308 15.8286 41.6134 16.2063 42.2817 15.7657ZM48.7787 15.451C49.4469 15.3566 50.1523 15.2937 51.1176 15.1678C49.8553 14.979 49.8553 14.979 48.7787 15.451ZM50.0409 17.0559C49.9667 17.1503 49.8182 17.3077 49.6697 17.465C50.8948 17.8426 52.7882 17.7797 53.3451 18.5979C54.0505 18.1258 54.6074 17.7482 55.3128 17.3077C55.0529 17.2447 54.7559 17.1818 54.2733 17.0559C54.6816 16.7098 55.09 16.3636 55.4613 16.0489V16.7098C56.2038 16.5209 56.6864 16.3951 57.1691 16.2692H57.2062V16.93C57.9116 16.7412 58.3942 16.6153 58.914 16.5209C58.7283 16.93 59.3595 17.4335 57.9858 17.7797C58.2457 17.9685 58.5427 18.1573 58.8026 18.3146C58.617 18.5979 58.4685 18.8496 58.32 19.1014C58.1343 19.1643 57.9858 19.2587 57.6517 19.3846C58.6541 19.5734 59.3595 20.0139 60.6218 19.6363C59.7679 19.416 59.0625 19.2587 58.3571 19.1014H60.8816C61.1044 18.7552 61.2529 18.5035 61.4385 18.1573C61.8098 18.2517 62.0697 18.3146 62.3295 18.3776C62.2182 18.4405 62.1068 18.472 61.9954 18.5035C62.0325 18.5349 62.0325 18.5349 62.0325 18.5349C62.1439 18.472 62.2553 18.4405 62.3667 18.409C62.9978 18.3776 63.6289 18.3461 64.4828 18.2832C64.4086 18.472 64.2972 18.6923 64.1487 18.9755C64.52 19.0069 64.8912 19.0699 65.411 19.1328C65.411 18.5664 65.9307 18.0629 64.6313 17.6853C65.6337 17.4965 66.005 17.2132 65.411 16.7412C64.2601 16.993 64.7798 17.3706 64.6313 17.6853C63.4062 17.6538 62.2182 17.5909 60.9188 17.5594C60.7331 17.6223 60.4361 17.7167 59.7679 17.9685C59.7307 17.3077 60.6218 16.7098 58.914 16.5209C59.4337 16.2692 58.914 16.0804 58.7283 15.8601C59.1739 15.8286 59.6565 15.7972 60.102 15.7657C60.1762 15.7028 60.3619 15.6084 60.2876 15.5769C59.5451 15.0105 58.7655 14.4755 58.1343 14.0035C56.7236 13.7517 56.2409 14.4126 54.9786 14.2552C54.3475 14.1608 53.2709 14.6014 52.1571 14.8531C52.0457 15.0105 51.7858 15.2937 51.4517 15.6713C52.12 15.923 52.7882 16.1748 53.6421 16.4895C53.4194 16.7412 53.1966 17.0559 52.8996 17.465C51.9343 17.3391 51.0433 17.2132 50.0409 17.0559ZM24.7212 17.5594C24.8697 17.7167 24.9811 17.8741 25.1296 18.0629C25.2781 18.0314 25.4266 18.0314 25.5751 18C25.4637 17.8426 25.3523 17.6538 25.241 17.4965C25.0924 17.4965 24.9068 17.5279 24.7212 17.5594ZM24.7583 19.2587C24.9811 19.3216 25.1667 19.416 25.3895 19.479C25.4637 19.4475 25.5751 19.3846 25.6493 19.3531C25.4266 19.2902 25.241 19.1958 25.0182 19.1328C24.9439 19.1643 24.8326 19.1958 24.7583 19.2587ZM23.4218 20.2657C23.3847 20.7692 24.3128 20.8007 25.0924 20.958C26.132 20.8321 27.023 20.6748 27.1715 20.0139C26.4661 20.1713 25.9463 20.2972 25.4266 20.423C24.9439 20.2972 24.4613 20.1713 23.9787 20.0454C23.5332 19.7622 23.0505 19.479 22.4936 19.1643C22.1224 19.6678 22.1966 20.0769 23.4218 20.2657ZM27.7655 23.8216C28.2481 23.7587 28.8421 23.7587 28.9535 23.6643C29.4362 23.2552 28.8421 23.0349 27.9883 22.8776C27.914 23.1608 27.8769 23.444 27.7655 23.8216ZM21.7883 27.3146C21.9368 27.409 22.011 27.472 22.1224 27.5349C22.308 27.472 22.5308 27.409 22.6793 27.3461C22.7164 27.3461 22.4936 27.1887 22.4565 27.1887C22.2338 27.1887 22.011 27.2517 21.7883 27.3146ZM25.9835 28.1643C26.2433 28.2901 26.5404 28.416 26.8002 28.5419C26.9487 28.479 27.0972 28.416 27.2457 28.3531C26.9487 28.2587 26.6146 28.1643 26.2805 28.0384C26.1691 28.0699 26.0577 28.1328 25.9835 28.1643ZM24.0529 28.7307C24.2014 28.8251 24.3871 28.9195 24.5356 29.0139C24.6841 28.951 24.7954 28.888 24.9439 28.8566C24.7583 28.7622 24.5356 28.6992 24.3128 28.6048C24.2386 28.6363 24.1272 28.6678 24.0529 28.7307ZM20.0434 29.5804C21.0457 29.6118 21.7511 29.6118 22.8649 29.6433C21.8625 29.1398 21.12 29.1398 20.0434 29.5804ZM7.01223 29.7062C7.16073 29.7692 7.38348 29.8321 7.56911 29.895C7.68049 29.8321 7.75474 29.7692 7.90324 29.6433C7.68049 29.6118 7.45774 29.5489 7.23498 29.5489C7.16073 29.5489 6.9751 29.7062 7.01223 29.7062ZM28.508 29.8321C27.2086 29.2657 26.5775 29.6748 25.6122 29.9265C26.8374 30.0524 26.8374 30.0524 28.508 29.8321ZM76.4002 30.1153C76.4744 30.0524 76.5116 29.9894 76.5858 29.895C76.1774 29.8321 75.8062 29.7692 75.3978 29.7062C75.3235 29.7692 75.2493 29.8636 75.175 29.958L76.4002 30.1153ZM28.8421 30.5559C29.2134 30.6503 29.5847 30.7132 29.9559 30.8076C30.0673 30.7447 30.1415 30.6503 30.2529 30.5873C29.8445 30.5244 29.399 30.4615 28.9906 30.3985C28.9535 30.4615 28.8793 30.4929 28.8421 30.5559ZM4.2278 31.2482C4.3763 31.2796 4.5248 31.2796 4.67331 31.3111C4.67331 31.2482 4.67331 31.2167 4.67331 31.1538C4.5248 31.1852 4.3763 31.2167 4.2278 31.2482ZM80.3726 30.9335C79.7786 30.6817 79.5559 30.5873 79.1475 30.3985C78.8134 30.6817 78.5163 30.902 77.9966 31.3426C78.999 31.1538 79.5187 31.0908 80.3726 30.9335ZM64.0373 32.2866C63.8888 32.381 63.5547 32.5069 63.5918 32.5384C64.4086 33.1048 64.817 33.8286 66.8589 34.0803C66.9702 33.5768 67.1188 33.0733 67.2673 32.4754C66.1535 32.381 65.411 31.7202 64.0373 32.2866ZM61.6241 32.2552C61.7727 32.2237 61.9212 32.1922 62.0697 32.1608C61.9212 32.1608 61.7727 32.1293 61.6241 32.0978C61.6241 32.1608 61.6241 32.1922 61.6241 32.2552ZM58.6912 32.4754C58.6541 32.5384 58.617 32.6328 58.5798 32.6957C58.914 32.7272 59.2481 32.7587 59.5822 32.7587C60.2134 32.7901 60.8445 32.7587 61.8098 32.7587C60.6218 32.3181 59.6565 32.4125 58.6912 32.4754ZM60.0277 33.9545C60.0277 34.0174 60.0277 34.1118 60.0277 34.1747C59.3966 34.2062 58.7655 34.2377 57.9858 34.2692C57.9116 34.2377 57.7631 34.1433 57.5403 34.0803C57.4289 34.0174 57.2433 34.0174 56.9092 33.9859C56.9834 34.1118 56.9463 34.2377 57.0948 34.3006C57.8002 34.5838 58.5427 34.8985 59.4337 35.2447C59.6565 34.8985 59.8421 34.5524 60.0277 34.1747C60.5475 34.1118 60.5475 34.0174 60.0649 33.9545C59.9906 33.8286 59.9535 33.7342 59.8792 33.5768C59.0625 33.5139 58.2086 33.4195 56.8721 33.3251C57.9858 33.7971 59.0625 33.8286 60.0277 33.9545ZM67.0816 35.8111C68.2696 35.7167 68.3068 35.3705 68.7523 34.8671C67.6756 35.1817 66.9702 35.3391 67.0816 35.8111ZM74.3583 35.8426C74.1726 35.9999 74.0241 36.1887 73.7643 36.4405C74.5068 36.4719 75.1008 36.5034 75.6948 36.5349C75.8804 35.8426 75.8804 35.8426 77.1056 35.1817C77.0313 35.1188 77.0313 35.0244 76.9199 34.9929C76.5487 34.8985 76.1403 34.8041 75.8433 34.7412C74.3211 34.93 75.9918 35.7167 74.3583 35.8426C74.3954 35.8426 74.3954 35.8426 74.4325 35.874C74.3954 35.8426 74.3583 35.8426 74.3211 35.8111C74.3211 35.8426 74.3583 35.8426 74.3583 35.8426ZM65.0397 36.1258C64.4086 36.2831 64.4086 36.3146 64.2229 36.9125C64.7798 36.6922 65.2625 36.5034 65.8194 36.2831C65.4481 36.1887 65.114 36.0943 65.0397 36.1258ZM76.7714 37.9824C77.4397 38.5489 77.1427 39.3041 77.2912 40.0593C78.0337 39.9964 78.5535 39.9649 79.0732 39.9335C79.5187 39.8705 79.9271 39.8076 80.5583 39.7132C79.1104 39.0209 78.5163 38.2971 79.4445 37.4475C79.1104 37.2272 78.7762 37.0384 78.5163 36.881C78.6648 36.5034 78.8134 36.1887 78.9247 35.8426C79.2589 35.5594 79.593 35.2761 80.1128 34.8356C79.2217 34.93 78.8134 34.9615 78.2565 35.0244C78.5163 35.3391 78.702 35.5908 78.9247 35.8426C78.2936 35.874 77.6625 35.9055 76.8828 35.9684C77.0313 36.6608 75.8062 37.2272 76.7714 37.9824ZM61.8469 38.5803C62.7008 38.423 63.5547 38.2656 64.4086 38.1083C64.2601 37.951 64.1487 37.8251 64.0744 37.7307L64.1116 37.6992C64.0744 37.7307 64.0373 37.7307 63.9631 37.7622C64.0002 37.7307 64.0002 37.7307 64.0373 37.6992C63.5918 37.5733 63.1092 37.4475 62.5894 37.3216C61.6613 37.6363 60.5475 37.9195 61.8469 38.5803ZM67.3415 38.8006C67.7128 38.5803 68.084 38.3286 68.4553 38.1083C68.2696 38.0454 68.084 38.0139 67.8984 37.951C67.5643 38.2027 67.2673 38.4545 66.9331 38.7062C67.0816 38.7377 67.193 38.7691 67.3415 38.8006ZM63.3691 39.8076C64.3343 39.6188 64.9655 39.4929 66.1164 39.2726C64.4086 39.0524 63.8517 39.2412 63.3691 39.8076ZM59.0253 39.0838C59.3595 39.3356 59.6565 39.5559 60.102 39.8705C60.4733 39.7447 60.8816 39.6188 61.587 39.3985C60.5846 39.1782 59.9535 39.0524 59.3224 38.895C59.211 38.958 59.1367 39.0209 59.0253 39.0838ZM60.1391 40.2482C60.2134 40.3111 60.2876 40.374 60.3247 40.437C60.399 40.374 60.4733 40.3111 60.5104 40.2482C60.399 40.2482 60.2505 40.2482 60.1391 40.2482ZM65.7822 41.0034C66.302 41.0349 66.8217 41.0663 67.6014 41.1293C67.2673 40.909 67.0445 40.7517 66.7104 40.5314C66.302 40.7517 66.0421 40.8775 65.7822 41.0034ZM62.478 40.909C62.5523 41.3496 63.9631 41.3496 65.7822 41.0034C65.2996 40.909 64.8541 40.7831 64.3343 40.6258C63.7403 40.7202 63.0721 40.8146 62.478 40.909ZM75.5834 41.4754C76.2146 41.444 76.6229 41.444 77.1427 41.4125C76.5487 41.0349 76.5487 41.0349 75.5834 41.4754ZM69.4948 41.6328C69.7918 41.6642 70.0517 41.6957 70.3487 41.7272C70.3487 41.7272 70.3858 41.7272 70.3858 41.7586C70.3858 41.7272 70.3116 41.7272 70.2744 41.6957C70.0888 41.6328 69.8661 41.5698 69.6804 41.5069C69.6062 41.5384 69.569 41.6013 69.4948 41.6328ZM62.3667 42.3565C62.6637 42.7027 62.9607 43.0174 63.2577 43.3635C63.7032 43.3321 64.0373 43.3321 64.7427 43.3006C64.2972 43.0489 64.0744 42.923 63.7403 42.7656C64.0002 42.5139 64.2972 42.2307 64.6313 41.9475C64.2972 41.8216 64.0002 41.7272 63.5547 41.5384C63.1463 41.8216 62.775 42.1048 62.3667 42.3565ZM74.2469 43.0803C74.1355 43.0803 73.987 43.0803 73.8756 43.0803C73.9499 43.1433 73.987 43.2062 74.0613 43.2691C74.1355 43.2062 74.2098 43.1433 74.2469 43.0803ZM69.1607 42.4824C68.9008 42.3565 68.6409 42.2621 68.381 42.1677C67.2301 42.388 67.1188 42.7027 67.0445 43.2691C67.9355 42.923 68.4553 42.7342 69.1607 42.4824ZM72.2792 42.86C71.7966 42.6712 71.3882 42.3251 70.3116 42.86H72.2792ZM65.1511 41.916C65.3367 41.8845 65.5223 41.7901 65.5966 41.6957C65.6337 41.6642 65.3367 41.5384 65.2625 41.5698C65.0768 41.6013 64.8541 41.6642 64.7056 41.7272C64.5942 41.7901 64.6313 41.8845 64.6313 41.9475C64.817 41.9475 65.0397 41.9789 65.1511 41.916ZM80.2984 41.6642C80.7068 41.6642 81.1151 41.6957 81.4864 41.6957V41.0978C80.7068 40.909 80.3726 41.0663 80.2984 41.6642ZM88.5774 44.7167C89.2086 44.1817 89.5427 43.93 89.9882 43.5838C90.3966 43.8041 90.6565 43.93 90.9535 44.0873C91.1391 43.9614 91.5475 43.8041 91.4732 43.7097C91.2133 43.3635 91.102 43.0489 92.4756 42.86C91.5103 42.6398 90.9906 42.5139 90.3594 42.3565C90.1738 42.7027 90.0624 42.9544 89.9511 43.2377C89.6169 43.2062 89.3942 43.2062 89.3199 43.1747C88.8744 42.7971 88.3918 42.4195 88.0205 42.0419C87.7606 41.7586 87.6864 41.4754 87.4636 41.0978H83.9738C84.1595 41.2551 84.3451 41.4754 84.5307 41.6957C84.8648 41.6642 85.2361 41.6328 85.5702 41.6013C87.6493 42.3565 87.9463 43.4579 88.5774 44.7167ZM84.2337 42.1992C84.4193 42.2621 84.6421 42.3251 84.8277 42.388C84.902 42.3251 85.0133 42.2621 85.1618 42.1363C84.9391 42.1048 84.7163 42.0419 84.4936 42.0419C84.4193 42.0419 84.1966 42.1992 84.2337 42.1992ZM90.7678 44.9999C90.805 44.6852 90.8792 44.3705 90.9535 44.0873C90.4337 44.3391 89.9139 44.6223 89.2828 44.9684C89.8397 44.9684 90.1738 44.9999 90.7678 44.9999ZM111.744 42.0419C111.929 42.1992 112.078 42.388 112.338 42.6083C111.967 42.86 111.558 43.1433 111.076 43.4894C111.707 43.6153 112.226 43.7412 113.118 43.93C112.969 43.5523 112.895 43.3006 112.821 43.0489C113.08 42.8915 113.34 42.7342 113.712 42.5139C113.192 42.3251 112.672 42.1363 112.152 41.9475C112.004 41.9789 111.892 42.0104 111.744 42.0419ZM138.14 44.7481C138.474 44.7167 138.771 44.7167 138.808 44.6852C139.254 44.1817 141.407 44.2447 141.147 43.3635C139.997 43.5838 139.031 43.7726 137.806 44.0244C137.955 44.3076 138.029 44.5279 138.14 44.7481ZM109.925 44.9999C110.073 45.0628 110.259 45.1572 110.444 45.2516C110.556 45.1887 110.667 45.1572 110.741 45.0943C110.519 45.0314 110.296 44.9684 110.073 44.9055C110.073 44.9055 109.925 44.9684 109.925 44.9999ZM151.58 45.2516C151.283 45.3775 150.986 45.5034 150.577 45.7237C151.171 45.8181 151.728 45.9125 152.322 46.0069C152.916 45.5349 152.916 45.2831 151.617 45.2516C152.322 44.5593 152.211 44.4964 150.466 44.3076C150.837 44.6223 151.208 44.937 151.58 45.2516ZM144.266 45.409C144.377 45.5034 144.452 45.6293 144.526 45.6293C144.749 45.6293 144.971 45.5663 145.157 45.5349C145.12 45.4719 145.046 45.346 144.971 45.346C144.749 45.346 144.526 45.3775 144.266 45.409ZM134.873 46.2586C136.024 46.5104 136.581 46.416 137.398 45.881C136.284 46.0384 135.764 46.1013 134.873 46.2586ZM115.159 46.3216C115.494 46.2901 115.828 46.2586 116.125 46.1957C115.568 45.8495 115.271 45.9439 115.159 46.3216ZM126.706 46.6363C125.443 47.0453 124.775 47.2656 124.218 47.4544C124.589 48.4614 125.74 49.1537 127.522 49.7516C128.265 49.5314 129.044 49.3111 129.824 49.0908C129.824 48.0838 127.522 47.7062 126.706 46.6363C126.965 46.6363 127.262 46.6048 127.597 46.5733C126.78 46.416 126.26 46.3216 125.74 46.1957C125.74 46.6048 126.112 46.6677 126.706 46.6363ZM122.325 50.4754C122.102 51.1048 122.139 51.1048 124.032 51.0104C123.884 50.5698 123.364 50.4125 122.325 50.4754ZM134.391 51.9544C135.541 51.7656 134.428 51.3251 134.688 51.0418C133.982 50.9474 133.277 50.853 132.237 50.6957C132.052 50.7586 131.717 50.8845 131.458 50.9789C132.72 51.388 133.5 51.6712 134.391 51.9544ZM123.141 52.0488C123.141 51.9859 123.104 51.9544 123.104 51.8915L122.659 51.9859C122.807 52.0174 122.993 52.0174 123.141 52.0488ZM119.503 51.8286C119.874 52.0174 120.171 52.1747 120.914 52.5523C121.285 52.3006 121.582 52.1118 121.916 51.86C121.1 51.5453 120.431 51.5453 119.503 51.8286ZM122.993 53.4334C123.253 53.5278 123.513 53.6537 123.661 53.7167C125.258 53.6537 125.295 53.2761 125.295 52.867C125.258 52.5523 125.109 52.3006 123.847 52.3635C123.55 52.7097 123.29 53.0244 122.993 53.4334ZM121.434 53.7167C121.397 53.6537 121.397 53.5908 121.397 53.5278C121.248 53.5593 121.1 53.5908 120.951 53.6223C121.1 53.6537 121.248 53.6852 121.434 53.7167ZM117.127 52.9299C117.053 52.9614 116.979 52.9614 116.904 52.9614C117.016 53.0873 117.127 53.1817 117.276 53.2761C117.35 53.4964 117.424 53.7167 117.498 53.9684C118.575 53.5278 118.575 53.5278 117.276 53.2761C117.238 53.1502 117.201 53.0558 117.127 52.9299ZM135.244 56.3915C135.319 56.4229 135.356 56.4544 135.43 56.4859L136.024 56.2656C135.95 56.2341 135.876 56.2027 135.801 56.1712L135.244 56.3915ZM139.365 48.0838C138.14 48.3041 137.175 48.4929 135.987 48.6817C136.692 49.0593 137.212 49.2481 138.177 49.0908C139.143 48.902 139.737 48.6817 139.365 48.0838ZM148.461 47.5174C148.535 47.4544 148.573 47.3915 148.647 47.3286C148.498 47.3286 148.387 47.3286 148.238 47.3286C148.313 47.3915 148.387 47.4544 148.461 47.5174ZM142.261 46.9824C142.15 47.0453 142.038 47.0768 141.964 47.1398C142.298 47.2027 142.67 47.2971 143.004 47.3915C142.781 47.2342 142.521 47.1083 142.261 46.9824ZM153.919 44.5593H153.882C153.696 44.6223 153.547 44.7167 153.102 44.9055C154.03 44.937 154.661 44.9684 155.626 44.9999C155.255 44.5593 154.995 44.2132 154.735 43.8985C154.587 43.867 154.401 43.867 154.253 43.867C154.141 44.0873 154.03 44.3076 153.919 44.5593ZM144.155 43.8356C143.932 43.7726 143.709 43.6782 143.486 43.6153C143.449 43.6782 143.375 43.7097 143.301 43.7726C143.598 43.8041 143.858 43.8041 144.155 43.8356C144.86 44.2132 145.528 44.5593 146.419 44.9999C146.976 44.9999 147.83 45.0314 148.573 45.0314C149.241 44.7796 149.835 44.5593 150.466 44.3076C148.573 43.6782 146.531 43.395 144.155 43.8356ZM148.387 43.0803C148.684 42.8915 148.907 42.7656 149.204 42.6083C149.983 42.7971 150.614 42.9544 151.468 43.1433C150.54 42.1677 150.54 42.1677 147.496 42.3251C147.867 42.6398 148.09 42.8286 148.387 43.0803ZM133.388 42.7342C133.5 42.7342 133.648 42.7342 133.759 42.7027C133.685 42.6712 133.648 42.6083 133.574 42.5454C133.5 42.6083 133.425 42.6712 133.388 42.7342ZM157.074 43.5523C156.703 43.0803 155.812 43.1433 155.07 43.1118C154.81 43.0489 154.587 42.9859 154.364 42.923C154.29 42.9544 154.253 43.0174 154.179 43.0489C154.438 43.0803 154.735 43.1118 154.995 43.1433C155.404 43.4894 155.998 43.6782 157.074 43.5523ZM132.72 43.1433H132.683C132.609 43.0174 132.497 42.923 132.274 42.6712C131.68 43.1118 131.458 43.3006 131.161 43.4894C131.977 43.6153 132.646 43.7097 133.314 43.8041C133.5 43.7412 133.722 43.7097 133.759 43.6468C133.982 43.2691 133.574 43.1433 132.72 43.1433ZM143.226 38.5174C143.004 38.5174 142.781 38.5489 142.558 38.5803C142.67 38.6747 142.744 38.7691 143.041 39.0838C143.264 38.8635 143.412 38.7691 143.412 38.6747C143.449 38.6118 143.264 38.5174 143.226 38.5174ZM81.1151 35.6538C80.0385 35.874 79.8157 36.1258 80.6325 36.5978C81.1151 36.409 81.4493 36.2831 81.8577 36.1258C81.5978 35.937 81.3379 35.8111 81.1151 35.6538ZM132.943 34.9929C132.72 34.9615 132.497 35.0244 132.237 35.0244C132.349 35.1503 132.46 35.2761 132.497 35.2761C132.72 35.2447 132.943 35.2132 133.165 35.1817C133.091 35.1188 133.017 34.9929 132.943 34.9929ZM62.3295 34.6468C62.2924 34.2692 62.2553 33.923 62.2182 33.5454C62.0697 33.5454 61.9212 33.5139 61.7355 33.5139C61.587 33.6398 61.1786 33.7971 61.29 33.8915C61.5128 34.1747 61.9583 34.395 62.3295 34.6468C62.5523 34.7412 62.775 34.8041 62.9978 34.8671C63.0721 34.8356 63.1092 34.7726 63.1834 34.7412C62.8864 34.7097 62.6265 34.6782 62.3295 34.6468ZM76.4744 28.3531C76.3631 28.416 76.2146 28.479 76.1032 28.5104C76.2888 28.6048 76.5116 28.6678 76.6972 28.7307L76.9942 28.6363C76.8086 28.5419 76.6229 28.4475 76.4744 28.3531ZM63.4804 19.6363C63.2948 19.6993 63.1834 19.7937 63.0349 19.8881C63.1834 19.9195 63.3691 19.951 63.5918 20.0139C63.7032 19.9195 63.8517 19.8251 63.8888 19.7307C63.8888 19.6993 63.5176 19.6363 63.4804 19.6363ZM67.6385 18.5349C66.7104 18.944 66.7846 19.2272 67.4158 19.5734C68.3439 19.2902 68.1211 19.0069 67.6385 18.5349ZM72.9846 18.5979C73.2445 18.5349 73.5415 18.5035 73.5415 18.472C73.5044 18.409 73.393 18.3146 73.3187 18.2202C73.1702 18.2517 72.8732 18.2517 72.8732 18.3146C72.8361 18.3776 72.9475 18.472 72.9846 18.5979ZM68.3439 17.5279V18.0944C68.5295 18.0944 68.678 18.0944 68.8637 18.1258C68.9379 17.9056 68.975 17.7167 69.0493 17.5279C68.8265 17.5279 68.5667 17.5279 68.3439 17.5279ZM70.9056 16.8042C70.8684 16.8042 70.4972 16.8986 70.4972 16.8986C70.5343 16.993 70.6828 17.0874 70.7942 17.1818C71.0541 17.1188 71.2026 17.0874 71.3511 17.0559C71.2026 16.9615 71.0912 16.8671 70.9056 16.8042ZM66.1164 15.5769C65.8936 16.1119 65.8936 16.1119 66.9702 16.1119C66.6732 15.923 66.4505 15.7657 66.1164 15.5769ZM70.4229 15.923C71.7595 16.4895 71.7966 15.7972 72.4649 15.7972C72.3535 15.7028 72.2421 15.6398 72.1307 15.5769C71.611 15.6713 71.0912 15.7972 70.4229 15.923ZM171.888 14.9475C171.85 15.0105 171.776 15.0734 171.702 15.1363C171.85 15.1363 171.962 15.1363 172.11 15.1363C172.036 15.0734 171.962 15.0105 171.888 14.9475ZM77.5882 10.479C77.4768 10.5419 77.4026 10.6049 77.2541 10.6678C77.514 10.7307 77.6996 10.7622 77.9223 10.7937C77.9595 10.7307 78.0708 10.6678 77.9966 10.6049C77.9223 10.5734 77.7367 10.5419 77.5882 10.479ZM82.9343 10.3846C82.9714 10.479 83.0086 10.6049 83.0828 10.7937C83.4169 10.6993 83.6397 10.6363 84.1223 10.479C83.5654 10.4475 83.2313 10.4161 82.9343 10.3846C82.8229 10.3531 82.7116 10.2902 82.9343 10.3846ZM81.672 11.2972C81.8205 11.2657 81.969 11.2342 82.1175 11.2028C81.969 11.1713 81.8205 11.1398 81.672 11.1398C81.672 11.1713 81.672 11.2342 81.672 11.2972ZM77.2169 11.5489C76.9942 11.486 76.7714 11.4231 76.5487 11.3286C76.4744 11.3916 76.4373 11.4231 76.3631 11.486C76.6601 11.5175 76.9199 11.5489 77.2169 11.5489ZM71.7223 11.7692C72.2792 11.2657 72.2792 10.8881 70.9056 10.6049V10.007C70.0888 10.2902 70.3116 10.479 70.9056 10.6049C70.4601 10.7622 70.0146 10.8881 69.7547 10.951C69.8289 11.6119 70.4601 11.8007 71.7223 11.7692ZM135.096 12.7133C135.244 12.7762 135.43 12.8706 135.616 12.965C135.727 12.9021 135.838 12.8706 135.95 12.8077C135.69 12.7447 135.467 12.6818 135.244 12.6189C135.244 12.6189 135.096 12.6818 135.096 12.7133ZM84.1595 12.43C84.1595 12.5244 84.3822 12.6189 84.6792 12.7762C84.902 12.5874 85.1247 12.493 85.1618 12.3671C85.199 12.3042 85.0133 12.1783 84.6421 11.8321C84.3451 12.2098 84.1595 12.3042 84.1595 12.43ZM78.6277 11.9265C78.7762 11.9265 78.9247 11.958 79.0732 11.9895C79.0732 11.9265 79.0732 11.8951 79.0361 11.8321C78.9247 11.8636 78.7762 11.8951 78.6277 11.9265ZM77.7738 11.8321C77.5882 11.7377 77.4026 11.6433 77.2169 11.5489C77.2541 11.6748 77.3283 11.8007 77.4026 11.8951C77.514 11.8951 77.6253 11.8636 77.7738 11.8321ZM74.7295 13.3741C74.6553 13.3426 74.5439 13.2797 74.4696 13.2168C74.0984 13.3112 73.7643 13.4056 73.393 13.5C73.4672 13.5629 73.5786 13.6258 73.6529 13.6573L74.7295 13.3741ZM129.713 14.0035C130.27 13.8147 130.529 13.7202 130.938 13.5629C130.27 13.437 129.713 13.3112 128.673 13.1223C129.119 13.5 129.341 13.6888 129.713 14.0035ZM141.519 14.8531C142.707 14.7272 143.189 14.507 142.855 14.0349C142.521 14.0035 142.113 13.972 141.519 13.9091V14.8531ZM69.8661 14.1608C69.6433 14.2237 69.4205 14.3181 69.1978 14.3811C68.9379 14.4126 68.678 14.4126 68.4182 14.444C68.4553 14.4755 68.4553 14.507 68.4924 14.5384C68.7152 14.4755 68.975 14.444 69.1978 14.3811C69.4948 14.3496 69.7918 14.3496 70.0517 14.3181C70.0146 14.2552 69.9403 14.2237 69.8661 14.1608ZM71.4996 14.6014C72.9104 14.3496 72.9104 14.3496 72.6505 13.8461C72.2421 14.1293 71.9822 14.3181 71.4996 14.6014ZM36.787 14.1608C37.0098 14.4755 37.1954 14.7587 37.3811 15.0419C38.2721 14.5384 38.2721 14.5384 36.787 14.1608ZM39.2002 14.8531C40.2397 14.7902 40.8709 14.7272 42.096 14.6643C41.1679 14.2867 40.7595 14.1293 40.1655 13.9091C39.8685 14.1923 39.6086 14.4126 39.2002 14.8531ZM64.9283 11.8951C64.4457 12.021 64.0002 12.1468 63.5176 12.2727C63.6661 12.3356 63.8517 12.43 64.0002 12.493C64.4086 12.3671 64.817 12.2098 65.2253 12.0524C65.114 11.9895 65.0026 11.9265 64.9283 11.8951ZM66.005 13.437C66.6361 13.3426 67.193 13.2482 67.6385 13.1853C68.084 12.6503 68.5295 12.1783 68.975 11.6433H67.0445C66.8589 11.7063 66.7104 11.7692 66.7475 11.7692C67.49 12.3671 65.3367 12.7447 66.005 13.437ZM62.4409 11.3916C62.5523 11.3916 62.7008 11.3916 62.8122 11.3601C62.7379 11.3286 62.6637 11.2657 62.6265 11.2028C62.5523 11.2657 62.478 11.3286 62.4409 11.3916ZM59.3224 11.3601C59.3595 11.4231 59.3595 11.4545 59.3595 11.5175C59.508 11.486 59.6565 11.4545 59.805 11.4545C59.6565 11.4231 59.508 11.3916 59.3224 11.3601ZM45.029 10.7307H42.69C43.4697 11.2342 43.9894 11.5804 45.5116 11.5489C45.326 11.2342 45.1775 10.9825 45.029 10.7307ZM47.8876 10.3531C47.4421 10.5734 47.1822 10.7307 46.6254 10.9825C47.4793 11.014 47.9619 11.014 48.7044 11.0454C48.3703 10.7622 48.2218 10.6363 47.8876 10.3531ZM58.9511 11.0454H60.993C61.0301 10.8566 61.0673 10.6993 61.1044 10.5105C59.3595 10.4161 59.3595 10.4161 58.9511 11.0454ZM70.2002 9.47201C70.9427 9.62935 71.611 9.75522 72.2421 9.8811C72.3535 9.81816 72.4649 9.78669 72.5391 9.72375C72.0193 9.47201 71.4996 9.22026 70.7942 8.90557C70.5343 9.12585 70.4229 9.25173 70.2002 9.47201ZM69.6804 8.71676C69.272 8.65383 68.8265 8.59089 68.4182 8.52795C68.3439 8.59089 68.3068 8.62236 68.2325 8.68529C68.6038 8.7797 68.9379 8.87411 69.3092 8.96851C69.4205 8.87411 69.569 8.7797 69.6804 8.71676ZM84.8277 6.82866C85.0505 7.23775 85.199 7.45802 85.3475 7.74124C85.9786 7.61537 86.4241 7.52096 87.1666 7.33215C86.3499 7.14334 85.8301 7.04893 84.8277 6.82866ZM65.0026 3.08391C65.8565 2.92657 66.302 2.83216 66.8217 2.73776C65.8194 2.26573 65.5595 2.54895 65.0026 3.08391ZM44.0637 0.566432C43.5068 0.629369 43.2098 0.660838 42.8757 0.723775C42.7272 0.881117 42.5415 1.06993 42.2817 1.29021C42.8014 1.35314 43.2098 1.38461 43.7667 1.41608C43.8781 1.13286 43.9523 0.881117 44.0637 0.566432ZM51.0062 0.975522C50.8577 1.00699 50.7092 1.03846 50.5607 1.06993C50.7092 1.1014 50.8577 1.13286 51.0433 1.16433C51.0062 1.1014 51.0062 1.03846 51.0062 0.975522ZM42.2445 0.314685C42.1703 0.314685 41.8733 0.440558 41.9104 0.440558C42.0218 0.534964 42.1703 0.629369 42.3559 0.692306C42.4673 0.723775 42.69 0.723775 42.8757 0.723775C42.8757 0.660838 42.8757 0.566432 42.8014 0.503495C42.6529 0.40909 42.4302 0.346153 42.2445 0.314685ZM23.9044 1.03846C24.4242 0.786711 24.7954 0.629369 25.4637 0.314685C23.4589 0.251748 23.2733 0.472027 23.9044 1.03846ZM27.9883 0.472027C27.6912 0.440558 27.3942 0.40909 26.9116 0.314685C27.0601 0.472027 27.1344 0.566432 27.2086 0.660838L27.9883 0.472027ZM24.1272 9.25173L23.6817 9.31466C23.8302 9.34613 23.9787 9.3776 24.1272 9.40907C24.1272 9.34613 24.1272 9.2832 24.1272 9.25173ZM29.8445 32.1293C30.0302 32.1608 30.1787 32.1922 30.4014 32.2552C30.5128 32.1608 30.6613 32.0978 30.6984 32.0034C30.6984 31.972 30.3272 31.8775 30.29 31.909C30.1044 31.972 29.993 32.0664 29.8445 32.1293ZM16.5907 31.909C17.4446 32.3181 17.4446 32.3181 18.2242 31.909H16.5907ZM29.9559 33.4195C30.8841 33.6713 31.4781 33.7971 32.4805 34.0489C32.1463 33.6083 31.9607 33.3251 31.5523 32.7272C30.7727 33.0733 30.4757 33.1992 29.9559 33.4195ZM118.241 56.7691C119.243 56.7691 119.763 56.7691 120.394 56.8006C119.949 56.4859 119.577 56.2341 119.058 55.8565C118.761 56.1712 118.575 56.3915 118.241 56.7691ZM455.936 59.0348C456.493 58.9719 456.79 58.9404 457.124 58.8775C457.273 58.7201 457.458 58.5628 457.718 58.3111C457.199 58.2481 456.79 58.2166 456.233 58.1852C456.122 58.4684 456.048 58.7201 455.936 59.0348ZM448.994 58.6257C449.142 58.5943 449.291 58.5628 449.439 58.5313C449.291 58.4999 449.142 58.4684 448.957 58.4369C448.957 58.4999 448.994 58.5628 448.994 58.6257ZM457.755 59.2866C457.83 59.2866 458.127 59.1607 458.09 59.1607C457.978 59.0663 457.83 58.9719 457.644 58.909C457.533 58.8775 457.31 58.909 457.124 58.8775C457.124 58.9719 457.087 59.0663 457.199 59.0978C457.347 59.1922 457.533 59.2551 457.755 59.2866ZM476.096 58.5628C475.576 58.8145 475.205 58.9719 474.536 59.2866C476.541 59.3495 476.69 59.1292 476.096 58.5628ZM471.975 59.1292C472.309 59.1607 472.606 59.1922 473.088 59.2866C472.94 59.1292 472.866 59.0348 472.791 58.9404L471.975 59.1292ZM475.873 50.3495L476.318 50.2866C476.17 50.2551 476.021 50.2237 475.873 50.1922C475.873 50.2551 475.873 50.3181 475.873 50.3495ZM470.118 27.472C469.97 27.4405 469.821 27.409 469.599 27.3461C469.487 27.4405 469.339 27.5034 469.302 27.5978C469.302 27.6293 469.673 27.7237 469.71 27.7237C469.896 27.6293 470.007 27.5664 470.118 27.472ZM483.409 27.6922C482.555 27.2832 482.555 27.2832 481.776 27.6922H483.409ZM470.044 26.1818C469.116 25.93 468.522 25.8041 467.52 25.5524C467.854 25.9929 468.039 26.2762 468.448 26.8741C469.227 26.5279 469.524 26.402 470.044 26.1818ZM382.724 0.220279C381.945 0.314685 381.536 0.566432 381.611 0.912585C381.648 1.1958 381.574 1.54195 381.908 1.7937C382.13 1.95104 382.947 2.04545 383.541 2.07692C384.247 2.10839 384.432 1.88811 384.432 1.63636C384.135 1.35314 383.801 1.03846 383.43 0.692306C384.135 0.692306 384.506 0.692306 384.878 0.692306C384.989 0.692306 385.138 0.786711 384.952 0.723775C384.766 1.06993 384.618 1.35314 384.469 1.60489C385.472 2.64335 385.175 2.8951 382.724 3.33566C382.279 3.83915 381.945 4.24824 381.648 4.62586C380.72 4.59439 380.088 4.59439 379.457 4.56293C379.457 4.65733 379.457 4.75174 379.42 4.84614C380.645 4.94055 381.833 4.97202 383.133 4.84614C383.43 4.46852 383.69 4.12237 383.987 3.77622C385.397 4.0909 384.915 4.46852 384.692 4.81467C385.175 5.09789 385.694 5.38111 386.251 5.69579C385.769 5.85313 385.397 5.97901 385.026 6.07341C384.803 6.01048 384.581 5.94754 384.321 5.8846C384.284 5.91607 384.209 5.97901 384.172 6.01048C384.432 6.04194 384.692 6.07341 384.989 6.10488C384.989 6.26222 385.026 6.41957 385.026 6.57691C385.806 6.54544 386.177 6.70278 386.177 7.04893C385.769 7.04893 385.397 7.04893 385.026 7.04893C385.026 6.89159 385.026 6.73425 385.026 6.57691C384.692 6.63984 384.358 6.73425 384.024 6.79719C384.358 6.89159 384.692 6.95453 385.026 7.04893C384.915 7.17481 384.841 7.33215 384.692 7.55243C383.281 7.20628 382.093 6.86012 380.831 6.54544C380.497 6.4825 379.94 6.54544 379.569 6.57691C380.348 7.17481 380.98 7.70977 381.574 8.21327C380.237 8.90557 380.237 8.93704 380.757 9.40907C381.054 9.66082 381.611 9.9755 381.499 10.2272C381.017 11.1084 381.796 11.8007 382.687 12.2098C384.581 12.6189 385.806 12.9021 387.477 13.2797C387.848 13.2482 388.702 13.2168 389.593 13.1538C389.667 13.4056 389.63 13.6258 390.521 13.5944C390.929 13.5629 391.412 13.6573 392.006 13.7517C391.56 13.972 391.3 14.1293 390.892 14.3496C391.857 14.2867 392.6 14.2237 393.268 14.1923C393.342 14.8846 390.706 14.4755 391.041 15.2937C391.263 15.3566 391.597 15.451 391.894 15.514C391.857 15.986 391.857 16.458 391.857 16.93C391.486 16.993 391.078 17.0874 390.706 17.1503C389.853 17.4335 388.999 17.6853 387.996 18C388.553 18.2202 389.036 18.409 389.593 18.6293C390.892 18.2202 391.263 17.7797 390.781 17.1818C391.152 17.1188 391.523 17.0244 391.894 16.9615C392.34 17.0874 392.785 17.2447 393.268 17.3391C393.714 17.4021 394.233 17.3391 394.827 17.3391C394.642 17.7797 394.456 18.0944 394.308 18.4405C395.162 18.6923 395.941 18.9755 396.535 19.1643C397.426 19.1328 398.057 19.1014 398.688 19.0699C398.837 19.5734 399.468 19.8251 400.842 19.7307C400.396 19.2902 399.802 19.0699 398.8 19.0384C398.837 18.3776 398.243 17.9056 396.609 17.7482C396.869 17.1818 396.647 16.7412 395.31 16.458C394.827 15.986 393.862 16.4265 393.231 16.3321C392.117 15.5454 394.902 15.3251 394.456 14.6643C394.382 14.5699 394.827 14.4126 395.124 14.3181C395.496 14.2237 395.978 14.1293 396.387 14.1293C397.129 14.0979 397.835 14.1608 398.54 14.1608C398.651 14.3496 398.688 14.4755 398.763 14.5699C399.839 14.6328 401.027 14.444 402.03 14.7272C402.253 15.1678 402.253 15.5454 400.916 15.7342C400.136 15.3881 398.466 15.3251 398.726 14.6014C397.872 14.5699 396.906 14.507 397.055 15.0105C397.538 15.1678 398.057 15.2622 398.28 15.4195C398.911 15.8601 399.468 16.3007 400.693 16.5209C401.065 16.5839 401.436 16.8042 401.51 16.9615C401.77 17.465 402.698 17.5594 403.626 17.6223C404.591 17.7167 405.594 17.7482 406.782 17.8111V19.8251C407.673 19.951 408.304 20.0139 408.675 20.0769C409.084 19.6678 409.603 19.3216 409.715 18.944C409.826 18.5035 409.566 18.0629 409.492 17.6853C407.079 17.1503 406.67 17.1188 405.705 17.3391C405.111 17.0559 404.48 16.7727 403.775 16.458C404.517 16.1433 405.148 15.8601 405.891 15.5454C406.225 15.8286 406.485 16.0174 406.745 16.2377C406.782 16.2063 406.819 16.2063 406.856 16.1748C406.596 16.3321 406.67 16.3007 406.782 16.2377C408.007 16.2063 408.193 15.8916 407.599 15.5769C407.079 15.2622 406.299 15.0734 405.631 14.8216C405.928 14.6328 406.225 14.444 406.596 14.1923C406.002 14.0979 405.445 14.0035 404.517 13.8147C404.74 14.2552 404.888 14.5384 405.037 14.8216C405.223 14.8216 405.408 14.8216 405.631 14.8216C405.408 15.0105 405.223 15.0105 405.037 14.8216C404.257 14.4755 403.478 14.0979 402.661 13.7517C402.364 13.8147 401.881 13.9405 401.399 14.0664C401.287 14.0349 401.213 13.972 401.102 13.9405C401.362 13.7202 401.621 13.5 401.881 13.2797C399.876 12.7133 400.768 11.8321 400.582 11.014C402.253 11.7692 403.923 12.493 405.594 13.2168C406.039 13.0594 406.262 12.965 406.559 12.8706C406.299 12.5874 406.002 12.3356 405.742 12.021C405.705 11.9895 405.891 11.8951 405.965 11.8321C406.559 11.8636 407.153 11.8636 408.044 11.9265C407.599 12.1154 407.302 12.2412 406.93 12.3986C408.638 13.0909 409.938 14.0035 412.833 14.0664C413.056 13.6573 411.942 13.1223 413.762 12.965C414.356 13.1223 415.024 13.3426 415.655 13.5314C415.544 13.7202 415.432 13.9091 415.358 14.0979C415.024 14.0664 414.727 14.0349 414.244 13.972C414.393 14.0979 414.467 14.1923 414.541 14.2867C414.801 14.2237 415.061 14.1608 415.358 14.0979C415.506 14.2552 415.878 14.444 415.803 14.5699C415.655 14.9475 415.284 15.2937 415.135 15.4825C415.618 15.9545 415.952 16.3007 416.286 16.6468C417.697 16.8042 419.07 16.993 420.481 17.1818C421.706 17.6853 422.894 17.7167 423.674 17.2762C423.377 16.9615 422.338 16.7727 423.117 16.3007C423.6 16.2692 424.157 16.2063 424.899 16.1119C424.342 16.0174 424.008 15.9545 423.526 15.8916C424.12 15.4825 424.417 15.0419 423.934 14.5699C424.12 14.5699 424.305 14.5699 424.491 14.5699C424.454 14.5699 424.454 14.5699 424.417 14.5384C424.454 14.5699 424.491 14.5699 424.491 14.5699C425.308 13.8461 425.308 13.8461 423.934 13.6258C423.86 13.7517 423.823 13.8776 423.748 14.0035C423.637 13.972 423.526 13.9405 423.377 13.9091C423.563 13.8147 423.748 13.7202 423.934 13.6258C424.528 13.2797 425.085 12.9335 425.79 12.493C426.347 12.43 427.164 12.3671 427.981 12.2727C428.649 12.3986 429.28 12.493 430.023 12.6189V11.2657C428.983 11.3601 428.203 11.4545 427.387 11.5175C427.238 11.6748 427.09 11.8321 426.793 12.0839C426.161 11.5804 426.681 11.5489 427.35 11.5175C427.275 11.2028 427.238 10.9196 427.201 10.6678C428.203 10.5105 429.132 10.3531 430.06 10.1643C430.468 10.3846 430.802 10.5419 431.099 10.6678C431.359 10.6049 431.545 10.5419 431.916 10.4161V12.9335C431.173 13.0594 430.617 13.2482 431.025 13.6573C431.136 13.7202 430.988 13.8461 430.876 14.0349H428.946C428.797 13.7832 428.723 13.5944 428.612 13.437C428.426 13.4056 428.241 13.4056 428.092 13.4056C427.498 13.8147 426.941 14.2552 426.384 14.6643C428.166 15.1049 429.837 15.5454 431.545 15.9545C431.582 15.7342 431.619 15.5454 431.693 15.2307C432.436 15.3881 432.956 15.4825 433.587 15.6398C433.921 15.4825 434.329 15.2622 434.812 15.0419C436.111 15.4195 437.299 15.7657 438.524 16.1119C438.153 16.6783 438.784 17.1503 439.601 17.6538C440.121 17.4021 440.492 17.2447 441.086 16.9615C441.235 17.4335 441.309 17.7482 441.42 18.0944C442.014 18.1573 442.645 18.2202 443.239 18.3146C443.351 18.6293 443.499 18.9755 443.573 19.2587C444.799 19.6048 445.838 19.9195 446.989 20.2657C446.209 20.8007 445.541 21.3041 444.799 21.8076C444.056 21.1153 443.017 20.7377 442.088 20.8636C442.014 20.9895 441.977 21.1783 441.903 21.3356C441.123 21.5559 440.381 21.7762 439.453 22.0594C439.972 22.1853 440.455 22.2797 440.826 22.3741C441.532 22.1853 442.126 21.9965 442.72 21.8391C443.054 22.2482 443.091 22.8146 443.611 22.909C445.281 23.1923 445.318 23.8531 446.061 24.3566C446.135 24.4195 445.801 24.6083 445.69 24.7027C445.467 24.6398 445.244 24.5769 445.021 24.4825C444.947 24.5454 444.873 24.5769 444.836 24.6398C445.096 24.6713 445.393 24.7027 445.69 24.7027C445.764 24.8286 445.875 24.923 445.987 25.0489C445.69 25.1748 445.43 25.3006 445.096 25.458C445.355 25.5839 445.578 25.7097 445.838 25.8356C446.655 25.5839 447.36 25.3636 448.288 25.1118C448.771 25.3006 449.217 25.4895 449.662 25.6468C448.103 25.6783 448.66 26.1188 448.511 26.6223C449.254 26.3706 449.625 26.2447 450.033 26.1188C449.922 25.93 449.811 25.8041 449.699 25.6783H451.741C450.59 26.6853 451.593 27.409 453.115 28.2272C453.449 27.8496 453.672 27.5349 454.006 27.1258C454.823 27.1258 455.194 26.4964 456.567 26.7797C456.679 26.7797 457.347 26.402 457.755 26.1818C458.09 26.2132 458.535 26.2762 459.018 26.3391C459.872 25.5839 461.134 25.0804 463.176 24.923C464.364 24.8601 465.478 24.6713 466.257 24.2307C466.257 24.7342 466.406 25.1748 467.742 25.458C468.299 25.2377 468.893 25.0174 469.413 24.7971C471.863 25.3006 473.274 24.2622 475.353 24.1992V24.7657C474.722 24.923 473.571 25.0174 473.534 25.2062C473.274 25.8356 471.826 25.8671 470.861 26.2447C471.715 26.6223 472.494 26.9685 473.163 27.2832C474.685 27.1573 475.836 27.0629 477.098 26.9685C477.061 26.7797 477.024 26.6223 477.024 26.4964C476.541 26.5908 476.133 26.6853 475.539 26.8111C476.021 26.2132 476.318 25.7412 476.764 25.3006C477.024 25.0174 477.246 24.6713 478.286 24.7027C478.175 24.5769 478.063 24.451 477.952 24.2936C479.029 24.2936 479.957 24.2936 480.922 24.2936C481.108 24.5139 481.293 24.7027 481.553 24.986C480.217 24.8916 479.251 24.7971 478.286 24.7342C478.806 25.1748 479.326 25.6153 479.92 26.1188H481.702C481.924 26.3391 482.11 26.3391 482.296 26.1188C483.075 26.1503 483.484 25.9929 483.446 25.6468C484.003 25.7727 484.597 25.8671 485.154 25.9929C485.637 26.1188 486.045 26.1503 486.305 25.8985C487.196 25.8671 488.124 25.8356 489.201 25.8041C489.312 25.8671 489.535 25.9929 489.721 26.1188C489.609 26.1818 489.498 26.2132 489.832 26.0874C489.795 26.1188 489.758 26.1188 489.721 26.1188C490.872 26.1503 492.097 25.9929 493.322 26.7167V24.7657C493.767 24.6713 494.324 24.5769 494.881 24.4825C495.735 24.6083 496.552 24.7027 497.369 24.8286C497.22 24.923 497.034 25.0174 496.849 25.1118C497.109 25.3006 497.331 25.4265 497.554 25.5524C497.257 25.7097 496.997 25.8671 496.737 26.0244C497.146 26.7482 497.146 26.7482 496.329 27.2202C496.515 27.6293 496.478 28.0384 496.812 28.3845C497.109 28.6992 498.037 28.888 498.334 29.1713C498.668 29.5174 500.524 29.3286 499.856 29.9894H497.628C498.074 30.3356 498.371 30.5559 498.668 30.7447C498.148 31.0279 497.666 31.2482 497.331 31.437C497.925 31.9405 498.408 32.3496 498.965 32.8216C497.257 32.9475 495.698 32.916 494.584 33.1992C493.359 33.4824 492.542 34.0489 491.577 34.4894C491.02 34.4265 490.5 34.3636 490.463 34.3321C489.906 33.8601 489.498 33.5139 489.09 33.1363C490.129 32.916 491.02 32.7272 492.171 32.5069C490.834 32.2866 489.721 32.1293 488.533 31.9405C488.05 32.2866 487.716 32.5699 487.308 32.8531C487.679 33.0419 488.013 33.2307 488.347 33.4195C488.087 33.5768 487.827 33.7342 487.456 33.9545C486.045 33.0104 483.855 33.6713 482.147 33.3566C481.664 33.1678 481.182 32.9475 480.736 32.7587C479.585 32.8845 478.657 33.0104 477.284 33.1992C478.1 33.4824 478.583 33.6398 479.066 33.8286C478.472 33.8915 477.878 33.9545 477.246 34.0174C477.395 34.3321 477.543 34.5838 477.729 34.8356C477.246 34.9615 476.764 35.0873 476.207 35.2447C475.799 34.8985 475.427 34.5524 475.056 34.2062H473.608C473.905 34.6782 474.165 35.0873 474.425 35.5279C474.276 35.5279 474.128 35.5279 473.942 35.5279C473.497 35.9055 473.014 36.3146 472.569 36.7237C472.383 36.7237 472.197 36.7237 471.975 36.7237C472.197 36.944 472.383 36.944 472.569 36.7237C473.014 36.9125 474.017 36.8181 473.979 37.3216C473.942 37.6363 474.722 37.6992 475.464 37.5733C475.873 37.9824 476.17 38.2656 476.43 38.5489C477.803 38.3915 478.954 38.2342 479.363 38.958C478.954 39.0524 478.583 39.1468 478.175 39.2412C478.88 39.7761 479.4 40.1538 479.92 40.5314C479.548 40.6887 479.214 40.8146 478.843 40.9719C479.548 41.1922 480.105 41.3496 480.773 41.5384C480.142 41.8216 479.66 42.0419 479.214 42.2621C478.397 41.9789 477.581 41.6642 476.801 41.381C475.353 41.8216 476.615 42.1992 476.43 42.5454C477.618 42.6398 478.806 42.7656 479.994 42.86C480.773 43.3321 481.516 42.9544 482.296 42.86C481.999 43.1433 481.739 43.4265 481.405 43.7412C481.961 44.3705 481.961 45.1258 482.852 45.7866C483.224 46.0698 483.484 46.353 483.743 46.6677C484.115 47.0453 483.743 48.0209 483.001 48.4614C482.63 48.0209 482.333 47.6118 481.961 47.1712C481.219 47.1083 480.439 47.0453 479.808 47.0139C479.4 47.1398 479.14 47.2342 478.843 47.3286C478.137 47.6747 477.395 47.9894 476.652 48.3356C476.987 48.5873 477.284 48.7761 477.543 48.9649C478.546 48.902 479.437 48.839 480.551 48.7761C480.217 49.7202 477.358 49.8775 477.506 50.853C479.548 50.7586 480.996 51.2307 482.258 51.7971C482.63 51.9859 483.038 52.1432 483.446 52.3006C482.667 52.4579 481.924 52.6153 481.145 52.7726C480.588 52.4265 479.994 52.4265 479.437 52.7726C479.994 52.7726 480.588 52.7726 481.145 52.7726C480.959 52.9614 480.811 53.1502 480.551 53.4334C479.957 53.3076 479.511 53.2132 479.066 53.1188C479.214 52.9614 479.326 52.867 479.437 52.7726C478.88 52.6153 478.323 52.4579 477.915 52.332C478.175 51.86 478.36 51.5139 478.62 51.0733C477.024 51.1992 475.761 51.2936 474.017 51.4195C473.905 51.3251 473.534 51.1048 473.163 50.8845C474.796 50.6013 474.796 50.6013 474.351 49.9719C473.088 50.0663 473.126 50.4754 473.126 50.8845C472.049 50.8216 470.972 50.7586 469.636 50.7272C469.487 50.9474 469.339 51.1992 469.042 51.6712C469.97 51.5139 470.415 51.4195 470.861 51.3565C472.309 51.2936 471.752 51.9544 472.866 52.2062C473.237 52.2376 473.942 52.332 474.648 52.395C474.87 52.5838 475.056 52.7411 475.39 53.0244C474.165 52.8041 473.385 52.6467 472.346 52.4579C472.235 52.7411 472.16 52.9299 472.086 53.1502C474.017 53.3705 475.873 53.0558 477.84 53.402C477.098 53.6852 476.541 53.9055 475.984 54.1572C475.539 53.9999 475.205 53.874 474.945 53.7796C474.017 54.1257 473.126 54.4404 472.235 54.7866C474.314 54.6922 475.984 55.2901 477.989 55.2901C477.246 55.3215 476.541 55.353 475.799 55.3845C475.279 55.825 473.868 56.0768 474.648 56.7376C473.942 56.9894 473.274 57.2411 472.494 57.5243C472.16 57.3041 471.975 57.2097 471.752 57.0838C471.195 57.3985 470.749 57.6502 470.23 57.9964C470.007 57.6502 469.896 57.4614 469.71 57.2411C469.487 57.0208 469.19 56.832 468.893 56.6118C468.633 56.7691 468.411 56.8635 468.151 57.0208C467.371 56.832 466.777 56.6747 465.997 56.4544C465.329 56.6432 464.661 56.8006 463.621 57.0838C464.438 57.1467 464.772 57.2097 465.143 57.2411C465.7 57.7132 466.591 57.3041 467.297 57.367C469.413 58.5628 469.413 58.5628 469.116 59.3495C469.153 59.3495 469.153 59.3495 469.153 59.3495C468.93 59.4439 469.042 59.4124 469.116 59.3495C469.71 59.4439 470.304 59.5383 470.898 59.5698C471.678 59.6327 472.012 59.4439 471.975 59.1292C471.121 58.9404 470.675 58.7201 471.009 58.3111C472.494 58.0908 474.091 58.5628 475.39 58.0593C475.873 58.1537 476.393 58.2481 476.987 58.3425C477.358 58.1537 477.692 57.9964 478.137 57.8076C478.36 58.4369 478.546 59.0348 478.769 59.6013H451.11C451.593 59.3495 452.038 59.0978 452.484 58.8145C452.261 58.6887 452.075 58.6257 451.741 58.4684C451.221 58.846 450.627 59.1607 450.702 59.6013H447.397C447.397 59.6013 447.36 59.5698 447.323 59.5698C447.36 59.5698 447.36 59.5698 447.397 59.6013C447.323 58.909 448.623 58.2796 447.509 57.4929C446.506 57.839 445.504 58.1852 444.39 58.5628C444.91 58.8145 445.355 58.9404 445.578 59.1292C445.727 59.2551 445.801 59.4439 445.875 59.6013H437.967C437.893 59.4754 437.782 59.3495 437.708 59.1922C437.485 59.2551 437.262 59.2866 437.039 59.318C437.151 59.4124 437.225 59.5069 437.299 59.6013H128.636C128.747 59.2551 128.859 58.8145 128.97 58.374C129.341 58.2796 129.861 58.1537 130.641 57.9649C129.416 57.7132 128.042 57.6817 128.153 57.0523C128.339 57.0523 128.525 57.0523 128.71 57.0523C128.599 56.895 128.45 56.7376 128.339 56.5803C128.191 56.6118 128.042 56.6118 127.894 56.6432C127.968 56.7691 128.042 56.895 128.116 57.0523C127.003 57.0208 126.743 56.7062 126.706 56.3285C126.706 56.0139 126.446 55.7306 125.666 55.6048C124.07 55.353 123.55 54.9125 124.07 54.2202C124.107 54.1887 123.884 54.1257 123.773 54.0628C122.585 54.5348 122.585 54.5348 123.216 55.7306C123.81 55.8565 124.367 55.9509 124.664 56.0139C124.961 56.7062 125.22 57.3041 125.48 57.902C125.146 57.9649 124.738 58.0278 124.218 58.1222V58.9404C124.849 59.1607 125.443 59.381 126.074 59.6013H122.325L122.362 59.5698C122.659 58.909 121.434 58.4999 120.803 58.0278C120.951 57.8076 121.062 57.6187 121.248 57.367C120.617 57.3355 120.097 57.3041 119.54 57.2726C120.246 57.6187 119.615 57.839 119.169 58.0908C119.466 58.2796 119.763 58.4684 120.06 58.6887C119.726 59.0034 119.392 59.318 119.058 59.6013H116.533C116.793 59.5698 117.053 59.5069 117.276 59.4124C118.055 59.2866 118.464 59.0348 118.389 58.6887C118.352 58.4055 118.426 58.0593 118.092 57.8076C117.832 57.6502 117.053 57.5558 116.459 57.5243C115.753 57.4929 115.568 57.7132 115.568 57.9649L115.531 57.9964C114.528 56.9579 114.825 56.7062 117.276 56.2656C117.684 55.7621 118.018 55.353 118.352 54.9754C119.28 55.0069 119.912 55.0383 120.543 55.0383C120.543 54.9439 120.543 54.8495 120.58 54.7551C119.355 54.6607 118.129 54.6292 116.867 54.7866C116.57 55.1327 116.273 55.4789 116.013 55.825C114.603 55.5418 115.085 55.1327 115.308 54.7866C114.788 54.5034 114.306 54.2202 113.749 53.9055C114.231 53.7481 114.603 53.6223 114.937 53.5278C115.197 53.5908 115.419 53.6537 115.642 53.7481C115.716 53.6852 115.791 53.6223 115.828 53.5908C115.568 53.5593 115.308 53.5278 115.011 53.4964C115.011 53.339 114.974 53.1817 114.974 53.0244C114.194 53.0558 113.786 52.8985 113.823 52.5523C114.231 52.5523 114.603 52.5523 114.974 52.5523C114.974 52.7097 114.974 52.867 114.974 53.0244C115.308 52.9614 115.642 52.867 115.976 52.8041C115.642 52.7097 115.308 52.6467 114.974 52.5523C115.085 52.4265 115.159 52.2691 115.308 52.0488C116.719 52.395 117.907 52.7411 119.169 53.0558C119.503 53.1188 120.06 53.0558 120.394 53.0558C119.652 52.4265 119.02 51.8915 118.426 51.388C119.726 50.7272 119.763 50.6642 119.243 50.1922C118.909 49.9404 118.352 49.6258 118.501 49.374C118.983 48.4929 118.167 47.8006 117.313 47.3915C115.419 46.9824 114.157 46.6992 112.523 46.3216C112.152 46.353 111.298 46.3845 110.407 46.4474C110.333 46.1957 110.37 45.9754 109.479 46.0384C109.071 46.0384 108.588 45.9439 107.994 45.8495C108.44 45.6293 108.662 45.4719 109.108 45.2516C108.143 45.3146 107.4 45.3775 106.732 45.4405C106.658 44.7167 109.294 45.1258 108.959 44.3076C108.7 44.2447 108.403 44.1502 108.106 44.0873C108.106 43.6153 108.106 43.1433 108.143 42.6712C108.514 42.6083 108.885 42.5139 109.294 42.451C110.147 42.1677 110.964 41.916 111.967 41.6013C111.447 41.381 110.964 41.1922 110.407 41.0034C109.071 41.381 108.7 41.853 109.219 42.4195C108.848 42.4824 108.477 42.5768 108.106 42.6712C107.623 42.5139 107.215 42.3565 106.695 42.2936C106.286 42.1992 105.767 42.2621 105.173 42.2621C105.358 41.8216 105.507 41.5069 105.655 41.1607C104.838 40.909 104.059 40.6258 103.465 40.437C102.574 40.4684 101.943 40.4999 101.312 40.5314C101.163 40.0279 100.532 39.8076 99.1582 39.8705C99.5666 40.3111 100.198 40.5314 101.2 40.5628C101.163 41.2237 101.757 41.6957 103.391 41.853C103.131 42.4195 103.353 42.8915 104.69 43.1433C105.173 43.6153 106.138 43.1747 106.732 43.3006C107.883 44.0558 105.098 44.2761 105.544 44.937C105.618 45.0314 105.173 45.1887 104.876 45.2831C104.467 45.3775 104.022 45.4719 103.613 45.4719C102.871 45.5034 102.128 45.4405 101.423 45.4405C101.349 45.2516 101.274 45.1258 101.237 45.0314C100.124 44.9684 98.9726 45.1572 97.9702 44.874C97.7475 44.4335 97.7103 44.0558 99.084 43.867C99.8265 44.2132 101.534 44.2761 101.274 44.9999C102.128 45.0314 103.094 45.0943 102.908 44.5908C102.462 44.4335 101.943 44.3391 101.72 44.1817C101.089 43.7412 100.532 43.3006 99.3067 43.0803C98.9355 43.0174 98.5642 42.7971 98.4529 42.6398C98.2301 42.1363 97.302 42.0419 96.3738 41.9789C95.4085 41.8845 94.369 41.853 93.2181 41.7901V39.7761C92.3271 39.6817 91.696 39.5873 91.3247 39.5244C90.9163 39.9335 90.3966 40.3111 90.2852 40.6572C90.1738 41.0978 90.4337 41.5698 90.508 41.916C92.9211 42.451 93.3295 42.4824 94.2576 42.2621C94.8888 42.5454 95.4828 42.8286 96.2253 43.1433C95.4828 43.4579 94.8517 43.7412 94.1091 44.0558C93.775 43.8041 93.5151 43.5838 93.2553 43.3635C93.2181 43.395 93.181 43.395 93.1439 43.4265C93.4038 43.2691 93.2924 43.3321 93.2181 43.3635C91.993 43.395 91.8073 43.7097 92.4014 44.0558C92.9211 44.3391 93.7008 44.5279 94.369 44.7796C94.072 44.9684 93.775 45.1887 93.4038 45.409C93.9978 45.5034 94.5547 45.6293 95.4828 45.7866C95.26 45.346 95.1115 45.0628 94.963 44.7796C94.7774 44.7796 94.5547 44.7796 94.369 44.7796C94.5547 44.5908 94.7774 44.5908 94.963 44.7796C95.7427 45.1572 96.5223 45.5034 97.3391 45.8495C97.6361 45.7866 98.1187 45.6607 98.6014 45.5349C98.6756 45.5978 98.787 45.6293 98.8984 45.6607C98.6385 45.881 98.3786 46.1013 98.1187 46.3216C100.124 46.888 99.1954 47.7691 99.4181 48.5873C97.7475 47.8635 96.0768 47.1083 94.4061 46.3845C93.9235 46.5419 93.7379 46.6363 93.4409 46.7307C93.7008 47.0139 93.9978 47.2971 94.2576 47.5803C94.2948 47.6118 94.1091 47.7062 94.0349 47.7691C93.4409 47.7691 92.8469 47.7377 91.9559 47.6747C92.4014 47.4859 92.6984 47.36 93.0696 47.2027C91.3247 46.5104 90.0253 45.5978 87.1666 45.5349C86.9439 45.9439 88.0577 46.4789 86.2385 46.6363C85.6445 46.4789 84.9762 46.2586 84.3451 46.1013C84.4565 45.881 84.5678 45.6922 84.6421 45.5034C84.9762 45.5349 85.2732 45.5663 85.7559 45.6607C85.6074 45.5034 85.5331 45.409 85.4589 45.3146C85.199 45.3775 84.902 45.4405 84.6421 45.5034C84.4936 45.346 84.1223 45.1572 84.1966 45.0314C84.3451 44.6537 84.7163 44.3076 84.8648 44.1188C84.3822 43.6468 84.0481 43.3006 83.7139 42.9859C82.3032 42.7971 80.8924 42.6083 79.5187 42.4195C78.2936 41.916 77.0684 41.8845 76.3259 42.3251C76.6229 42.6398 77.6625 42.86 76.8828 43.3006C76.4002 43.3321 75.8062 43.395 75.0637 43.4894C75.6577 43.5838 75.9918 43.6468 76.4373 43.7097C75.8804 44.1188 75.5834 44.5593 76.066 45.0314C75.8804 45.0314 75.6948 45.0314 75.5092 45.0314C74.6924 45.7551 74.6924 45.7551 76.066 45.9754C75.472 46.3216 74.9152 46.6992 74.2098 47.1083C73.6529 47.1712 72.8361 47.2342 72.0193 47.3286C71.3511 47.2342 70.6828 47.1083 69.9774 46.9824V48.3356C71.017 48.2411 71.7966 48.1467 72.6134 48.0838H72.6505C72.7247 48.3985 72.7619 48.6817 72.799 48.9335C71.7966 49.1223 70.8684 49.2796 69.9403 49.4369C69.5319 49.2167 69.1978 49.0593 68.9008 48.9335C68.6409 48.9964 68.4553 49.0593 68.0469 49.2167V46.6677C68.8265 46.5419 69.3834 46.353 68.9379 45.9439C68.8637 45.881 69.0122 45.7551 69.0864 45.5663H71.0541C71.1655 45.8181 71.2768 46.0069 71.3882 46.1642C71.5738 46.1957 71.7223 46.1957 71.908 46.2272C72.502 45.7866 73.0589 45.346 73.6158 44.937C71.8337 44.4964 70.1631 44.0873 68.4553 43.6468C68.4182 43.867 68.381 44.0558 68.3068 44.3705C67.5643 44.2132 67.0445 44.1188 66.3762 43.9614C66.0792 44.1188 65.6708 44.3391 65.1882 44.5908C63.8888 44.1817 62.7008 43.8356 61.4756 43.4894C61.8469 42.923 61.2158 42.451 60.399 41.9789C59.8792 42.1992 59.508 42.3565 58.914 42.6398C58.7655 42.1677 58.6912 41.853 58.5798 41.5069C57.9487 41.444 57.3547 41.381 56.7607 41.2866C56.6493 40.9719 56.5008 40.6258 56.4265 40.3426C55.2014 39.9964 54.1619 39.6817 53.011 39.3356C53.7906 38.8006 54.4589 38.3286 55.2014 37.7936C55.9439 38.5174 56.9834 38.895 57.9116 38.7377C57.9487 38.6118 58.023 38.423 58.0972 38.2656C58.8768 38.0454 59.6194 37.8251 60.5475 37.5419C59.9906 37.416 59.5451 37.3216 59.1739 37.2272C58.4685 37.416 57.8745 37.6048 57.2804 37.7622C56.9463 37.3531 56.9092 36.7866 56.3894 36.7237C54.7188 36.409 54.6816 35.7482 53.9391 35.2447C53.8649 35.1817 54.199 35.0244 54.3104 34.8985C54.5331 34.9615 54.7559 35.0244 54.9786 35.1188C55.0529 35.0559 55.1271 35.0244 55.1643 34.9615C54.9044 34.93 54.6074 34.93 54.3104 34.8985C54.2361 34.7726 54.1248 34.6782 54.0134 34.5838C54.2733 34.4265 54.5703 34.3006 54.8673 34.1433C54.6445 34.0174 54.4218 33.8915 54.1619 33.7657C53.3451 34.0174 52.6026 34.2377 51.7116 34.4894C51.1918 34.3006 50.7834 34.1433 50.3379 33.9545C51.8601 33.923 51.3403 33.4824 51.4517 32.9789C50.7463 33.2307 50.3751 33.3566 49.9667 33.5139C50.0781 33.6713 50.1894 33.7971 50.3008 33.923H48.2589C49.4098 32.916 48.4074 32.1922 46.8852 31.3741C46.5511 31.7517 46.2912 32.0664 45.9942 32.4754C45.1775 32.4754 44.8062 33.1048 43.4325 32.8216C43.284 32.8216 42.6529 33.1992 42.2445 33.4195C41.9104 33.388 41.4649 33.3251 40.9823 33.2622C40.0912 34.0174 38.8661 34.5209 36.787 34.6782C35.599 34.7412 34.4853 34.93 33.7427 35.3705H33.7056C33.7427 34.8671 33.5942 34.4265 32.2577 34.1433C31.6637 34.3636 31.1068 34.5838 30.5871 34.8041C28.1368 34.3006 26.726 35.3391 24.6469 35.402V34.8356C25.2781 34.7097 26.3918 34.5838 26.4661 34.395C26.6889 33.7657 28.1368 33.7342 29.1392 33.3566C28.2853 32.9789 27.4685 32.6328 26.8374 32.3181C25.3152 32.444 24.1272 32.5384 22.902 32.6328C22.9392 32.8216 22.9392 32.9789 22.9763 33.1048C23.4589 33.0104 23.8673 32.916 24.4613 32.7901C23.9787 33.388 23.6817 33.8601 23.2362 34.3006C22.9763 34.5838 22.7164 34.93 21.714 34.8985C21.8254 35.0244 21.9368 35.1503 22.0481 35.3076C20.9715 35.3076 20.0434 35.3076 19.0781 35.3076C18.8553 35.0873 18.7068 34.8985 18.4469 34.6153C19.7835 34.7412 20.7487 34.8041 21.714 34.8985C21.1942 34.4265 20.6745 33.9859 20.0805 33.4824H18.2613C18.0757 33.2622 17.8901 33.2622 17.7044 33.4824C16.9248 33.451 16.5164 33.6083 16.5535 33.9545C15.9966 33.8286 15.4026 33.7342 14.8458 33.6083C14.326 33.4824 13.9547 33.4824 13.6949 33.7027C12.7667 33.7342 11.8757 33.7657 10.799 33.7971C10.6877 33.7342 10.4649 33.6083 10.2793 33.4824C10.3907 33.451 10.4649 33.388 10.1679 33.5139C10.205 33.4824 10.2422 33.4824 10.2793 33.4824C9.12839 33.451 7.90324 33.6083 6.6781 32.8845V34.8671C6.23259 34.93 5.6757 35.0244 5.11882 35.1188C4.26492 34.9929 3.44816 34.8985 2.59427 34.7726C2.7799 34.6782 2.96552 34.5838 3.15115 34.4894C2.85415 34.3321 2.66852 34.2062 2.44576 34.0489C2.74277 33.8915 3.00265 33.7342 3.26253 33.5768C2.85415 32.8531 2.85415 32.8531 3.63379 32.381C3.48528 31.972 3.52241 31.5629 3.15115 31.2167C2.89127 30.902 1.96313 30.7132 1.66612 30.43C1.33199 30.0838 -0.524292 30.3041 0.14397 29.6118H2.37151C1.926 29.2971 1.629 29.0769 1.33199 28.8566C1.85175 28.5734 2.33439 28.3531 2.66852 28.1643C2.07451 27.6922 1.59187 27.2517 1.03499 26.7797C2.74277 26.6538 4.26492 26.6853 5.41582 26.402C6.64097 26.1188 7.45774 25.5524 8.423 25.1118C8.97989 25.1748 9.49965 25.2692 9.53678 25.2692C10.0937 25.7412 10.4649 26.0874 10.9104 26.465C9.87091 26.6853 8.97989 26.8741 7.82899 27.0943C9.16552 27.3146 10.2793 27.472 11.4673 27.6608C11.9499 27.3146 12.2841 27.0314 12.6553 26.7482C12.2841 26.5594 11.9871 26.3706 11.6529 26.2132C11.9128 26.0244 12.1727 25.8985 12.544 25.6468C13.9547 26.5908 16.1452 25.9615 17.8529 26.2447C18.3356 26.4335 18.8182 26.6538 19.2637 26.8741C20.4146 26.7167 21.3428 26.5908 22.7164 26.402C21.8996 26.1188 21.417 25.9615 20.9344 25.7727C21.4913 25.7097 22.1224 25.6468 22.7535 25.5839C22.5679 25.2692 22.4194 25.0174 22.2709 24.7657C22.7535 24.6398 23.2362 24.5139 23.793 24.3566C24.2014 24.7027 24.5727 25.0804 24.9439 25.395H26.3918C26.0948 24.923 25.835 24.5139 25.538 24.0734C25.7236 24.0734 25.8721 24.0734 26.0577 24.1048C26.5032 23.6957 26.9859 23.2867 27.4314 22.8776C27.617 22.8776 27.8026 22.8776 27.9883 22.8776C27.8026 22.6573 27.617 22.6573 27.4314 22.8776C26.9487 22.6888 25.9835 22.7832 26.0206 22.2797C26.0206 21.965 25.2781 21.902 24.5356 22.0279C24.1272 21.6188 23.8302 21.3356 23.5703 21.0524C22.1966 21.2097 21.0457 21.3671 20.6002 20.6433C21.0086 20.5489 21.417 20.4545 21.8254 20.3601C21.12 19.8566 20.6002 19.4475 20.0434 19.0699C20.4517 18.9125 20.7859 18.7867 21.1571 18.6293C20.4517 18.4405 19.8948 18.2517 19.2266 18.0629C19.8577 17.7797 20.3404 17.5594 20.7859 17.3391C21.6026 17.6538 22.4194 17.937 23.199 18.2202C24.6469 17.7797 23.3847 17.4021 23.5703 17.0559C22.3823 16.9615 21.1942 16.8356 20.0062 16.7412C19.2266 16.2692 18.4841 16.6468 17.7044 16.7412C18.0014 16.458 18.2613 16.1748 18.5583 15.8916C18.0014 15.2307 18.0014 14.4755 17.1475 13.8147C16.7763 13.5314 16.5164 13.2482 16.2565 12.965C15.8853 12.5559 16.2565 11.6119 16.999 11.1398C17.3703 11.5804 17.6673 11.9895 18.0014 12.43C18.7811 12.493 19.5607 12.5559 20.1919 12.5874C20.5631 12.4615 20.8601 12.3671 21.12 12.2727C21.8625 11.9265 22.605 11.6119 23.3475 11.2657C22.9763 11.014 22.7164 10.8251 22.4565 10.6363C21.4541 10.6993 20.5631 10.7622 19.4493 10.8251C19.7835 9.8811 22.6422 9.72375 22.4936 8.74823C20.4517 8.87411 19.0038 8.37061 17.7416 7.80418C17.3703 7.61537 16.9619 7.48949 16.5535 7.33215C17.3332 7.17481 18.0757 7.01747 18.8553 6.86012C19.4122 7.17481 20.0062 7.17481 20.5631 6.86012C20.0062 6.86012 19.4122 6.86012 18.8553 6.86012C19.041 6.63984 19.1895 6.45103 19.4493 6.16782C20.0434 6.29369 20.4889 6.3881 20.9344 6.4825C20.7859 6.63984 20.6745 6.73425 20.5631 6.86012C21.12 7.01747 21.6769 7.14334 22.0853 7.26921C21.8254 7.77271 21.6026 8.11886 21.3799 8.52795C22.9763 8.43355 24.2386 8.33914 25.9835 8.21327C26.0948 8.2762 26.4661 8.49648 26.8374 8.71676C25.2038 9.03145 25.2038 9.03145 25.6493 9.62935C26.9116 9.53494 26.8745 9.12585 26.8745 8.74823C27.9511 8.7797 29.0278 8.84264 30.3643 8.90557C30.5128 8.65383 30.6613 8.40208 30.9583 7.93005C29.993 8.08739 29.5847 8.1818 29.1392 8.24474C27.6912 8.33914 28.2481 7.64684 27.1344 7.39509C26.7631 7.36362 26.0577 7.26921 25.3523 7.20628C25.1296 7.04893 24.9439 6.89159 24.6098 6.57691C25.7978 6.79719 26.6146 6.95453 27.6541 7.17481C27.7655 6.86012 27.8398 6.67131 27.914 6.45103C25.9835 6.23075 24.1272 6.54544 22.1595 6.19929C22.8649 5.91607 23.4589 5.69579 24.0158 5.47551C24.4613 5.60139 24.7954 5.72726 25.0553 5.82166C25.9835 5.47551 26.8745 5.16083 27.7655 4.81467C25.6493 4.90908 23.9787 4.34265 22.011 4.31118C22.7164 4.27971 23.4589 4.24824 24.2014 4.21677C24.7212 3.77622 26.132 3.52447 25.3523 2.86363C26.0206 2.61188 26.726 2.36013 27.5056 2.10839C27.8026 2.2972 28.0254 2.42307 28.2481 2.51748C28.7679 2.20279 29.2134 1.95104 29.7703 1.60489C29.993 1.95104 30.1044 2.17132 30.29 2.36013C30.5128 2.58041 30.8098 2.76922 31.1068 2.9895C31.3667 2.86363 31.5894 2.73776 31.8493 2.58041C32.5918 2.76922 33.223 2.92657 34.0026 3.14685C34.6709 2.95804 35.3391 2.80069 36.3787 2.54895C35.5619 2.45454 35.2278 2.42307 34.8565 2.36013C34.2996 1.88811 33.4086 2.2972 32.7032 2.23426C30.5499 1.03846 30.5499 1.03846 30.8841 0.251748C30.8469 0.251748 30.8469 0.251748 30.8469 0.251748C31.0697 0.157342 30.9583 0.188811 30.8469 0.251748C30.29 0.157342 29.696 0.0629369 29.102 0.0314685C28.3224 -0.0314685 27.9883 0.157342 27.9883 0.472027C28.8793 0.660838 29.3248 0.912585 28.9906 1.29021C27.5056 1.51049 25.9092 1.03846 24.6098 1.54195C24.0901 1.44755 23.6074 1.35314 23.0134 1.25874C22.6422 1.44755 22.2709 1.60489 21.8625 1.7937C21.6398 1.16433 21.4541 0.566432 21.2314 0H48.89C48.4074 0.251748 47.9619 0.534964 47.5164 0.786711C47.7391 0.912585 47.9248 0.975522 48.2589 1.16433C48.7787 0.755243 49.3727 0.440558 49.2984 0H52.6026C52.6026 0 52.6397 0.0314685 52.6769 0.0314685C52.6397 0.0314685 52.6397 0.0314685 52.6026 0C52.6769 0.692306 51.3775 1.32168 52.4541 2.10839C53.4936 1.76223 54.496 1.41608 55.6098 1.03846C55.09 0.81818 54.6445 0.660838 54.4218 0.472027C54.2733 0.346153 54.199 0.157342 54.1248 0H61.9954C62.1068 0.125874 62.181 0.251748 62.2924 0.40909C62.5152 0.346153 62.7379 0.314685 62.9607 0.283216C62.8493 0.188811 62.775 0.0944054 62.6637 0H371.327C371.253 0.346153 371.141 0.786711 371.03 1.22727C370.659 1.32168 370.139 1.44755 369.322 1.63636C370.547 1.91958 371.958 1.91958 371.847 2.54895C371.661 2.54895 371.475 2.54895 371.29 2.54895C371.29 2.58041 371.29 2.58041 371.29 2.58041C371.253 2.54895 371.253 2.54895 371.253 2.54895C371.253 2.54895 371.253 2.54895 371.29 2.54895C371.401 2.70629 371.55 2.86363 371.661 3.02097C371.809 2.9895 371.958 2.9895 372.106 2.95804C372.032 2.83216 371.958 2.70629 371.847 2.58041C372.997 2.58041 373.257 2.8951 373.257 3.27272C373.294 3.5874 373.517 3.87062 374.334 3.99649C375.93 4.24824 376.45 4.72027 375.93 5.38111C375.893 5.41257 376.116 5.50698 376.227 5.56992C377.415 5.06642 377.415 5.06642 376.784 3.87062C376.19 3.74475 375.596 3.65034 375.299 3.5874C375.002 2.8951 374.78 2.2972 374.52 1.6993C374.854 1.63636 375.262 1.57342 375.782 1.47902V0.692306C375.151 0.440558 374.557 0.220279 373.926 0H377.675L377.638 0.0314685C377.341 0.692306 378.566 1.1014 379.197 1.57342C379.049 1.7937 378.938 1.98251 378.752 2.23426C379.383 2.26573 379.903 2.2972 380.423 2.32867C379.754 1.98251 380.385 1.76223 380.794 1.51049C380.534 1.32168 380.237 1.13286 379.903 0.912585C380.274 0.597901 380.608 0.283216 380.942 0H383.43C383.207 0.0314685 382.947 0.0944054 382.724 0.220279Z" fill="#F7CF05"/>
</svg>
